<svg version="1.1" xmlns="http://www.w3.org/2000/svg" xmlns:xlink="http://www.w3.org/1999/xlink" width="350" height="300" style="width: 350px; height: 300px;"><defs><clipPath id="nzUJQvibgTfP"><path fill="none" stroke="none" d=" M 55 10 L 320 10 L 320 290 L 55 290 L 55 10 Z"/></clipPath><clipPath id="EhTiRKqgEyGG"><path fill="none" stroke="none" d=" M 55 10 L 320 10 L 320 290 L 55 290 L 55 10 Z"/></clipPath><clipPath id="PXqWiJlTiOCV"><path fill="none" stroke="none" d=" M 55 10 L 320 10 L 320 290 L 55 290 L 55 10 Z"/></clipPath></defs><g><g transform="scale(1,1) translate(0.5,0.5)"><rect fill="#FFFFFF" stroke="none" x="0" y="0" width="350" height="300"/><g><rect fill="none" stroke="#e5e5e5" x="55" y="10" width="265" height="280" stroke-linejoin="bevel" stroke-miterlimit="10"/></g><g clip-path="url(#nzUJQvibgTfP)"><g><g/></g></g><g clip-path="url(#EhTiRKqgEyGG)"><g><g/></g></g><g clip-path="url(#PXqWiJlTiOCV)"><g><g><path fill="none" stroke="none"/><path fill="#0E52A0" stroke="none" paint-order="stroke fill markers" d=" M 55.75714285714285 131.73913043478262 L 61.81428571428572 131.73913043478262 L 61.81428571428572 290 L 55.75714285714285 290 L 55.75714285714285 131.73913043478262 Z"/><path fill="none" stroke="black" paint-order="fill stroke markers" d=" M 55.75714285714285 131.73913043478262 L 61.81428571428572 131.73913043478262 L 61.81428571428572 290 L 55.75714285714285 290 L 55.75714285714285 131.73913043478262 Z" stroke-linejoin="bevel" stroke-miterlimit="10"/><path fill="#0E52A0" stroke="none" paint-order="stroke fill markers" d=" M 63.328571428571436 131.73913043478262 L 69.38571428571429 131.73913043478262 L 69.38571428571429 290 L 63.328571428571436 290 L 63.328571428571436 131.73913043478262 Z"/><path fill="none" stroke="black" paint-order="fill stroke markers" d=" M 63.328571428571436 131.73913043478262 L 69.38571428571429 131.73913043478262 L 69.38571428571429 290 L 63.328571428571436 290 L 63.328571428571436 131.73913043478262 Z" stroke-linejoin="bevel" stroke-miterlimit="10"/><path fill="#0E52A0" stroke="none" paint-order="stroke fill markers" d=" M 70.9 119.56521739130434 L 76.95714285714286 119.56521739130434 L 76.95714285714286 290 L 70.9 290 L 70.9 119.56521739130434 Z"/><path fill="none" stroke="black" paint-order="fill stroke markers" d=" M 70.9 119.56521739130434 L 76.95714285714286 119.56521739130434 L 76.95714285714286 290 L 70.9 290 L 70.9 119.56521739130434 Z" stroke-linejoin="bevel" stroke-miterlimit="10"/><path fill="#0E52A0" stroke="none" paint-order="stroke fill markers" d=" M 78.47142857142858 119.56521739130434 L 84.52857142857142 119.56521739130434 L 84.52857142857142 290 L 78.47142857142858 290 L 78.47142857142858 119.56521739130434 Z"/><path fill="none" stroke="black" paint-order="fill stroke markers" d=" M 78.47142857142858 119.56521739130434 L 84.52857142857142 119.56521739130434 L 84.52857142857142 290 L 78.47142857142858 290 L 78.47142857142858 119.56521739130434 Z" stroke-linejoin="bevel" stroke-miterlimit="10"/><path fill="#0E52A0" stroke="none" paint-order="stroke fill markers" d=" M 86.04285714285714 119.56521739130434 L 92.1 119.56521739130434 L 92.1 290 L 86.04285714285714 290 L 86.04285714285714 119.56521739130434 Z"/><path fill="none" stroke="black" paint-order="fill stroke markers" d=" M 86.04285714285714 119.56521739130434 L 92.1 119.56521739130434 L 92.1 290 L 86.04285714285714 290 L 86.04285714285714 119.56521739130434 Z" stroke-linejoin="bevel" stroke-miterlimit="10"/><path fill="#0E52A0" stroke="none" paint-order="stroke fill markers" d=" M 93.6142857142857 119.56521739130434 L 99.67142857142858 119.56521739130434 L 99.67142857142858 290 L 93.6142857142857 290 L 93.6142857142857 119.56521739130434 Z"/><path fill="none" stroke="black" paint-order="fill stroke markers" d=" M 93.6142857142857 119.56521739130434 L 99.67142857142858 119.56521739130434 L 99.67142857142858 290 L 93.6142857142857 290 L 93.6142857142857 119.56521739130434 Z" stroke-linejoin="bevel" stroke-miterlimit="10"/><path fill="#0E52A0" stroke="none" paint-order="stroke fill markers" d=" M 101.18571428571428 119.56521739130434 L 107.24285714285716 119.56521739130434 L 107.24285714285716 290 L 101.18571428571428 290 L 101.18571428571428 119.56521739130434 Z"/><path fill="none" stroke="black" paint-order="fill stroke markers" d=" M 101.18571428571428 119.56521739130434 L 107.24285714285716 119.56521739130434 L 107.24285714285716 290 L 101.18571428571428 290 L 101.18571428571428 119.56521739130434 Z" stroke-linejoin="bevel" stroke-miterlimit="10"/><path fill="#0E52A0" stroke="none" paint-order="stroke fill markers" d=" M 108.75714285714284 119.56521739130434 L 114.81428571428572 119.56521739130434 L 114.81428571428572 290 L 108.75714285714284 290 L 108.75714285714284 119.56521739130434 Z"/><path fill="none" stroke="black" paint-order="fill stroke markers" d=" M 108.75714285714284 119.56521739130434 L 114.81428571428572 119.56521739130434 L 114.81428571428572 290 L 108.75714285714284 290 L 108.75714285714284 119.56521739130434 Z" stroke-linejoin="bevel" stroke-miterlimit="10"/><path fill="#0E52A0" stroke="none" paint-order="stroke fill markers" d=" M 116.32857142857142 119.56521739130434 L 122.3857142857143 119.56521739130434 L 122.3857142857143 290 L 116.32857142857142 290 L 116.32857142857142 119.56521739130434 Z"/><path fill="none" stroke="black" paint-order="fill stroke markers" d=" M 116.32857142857142 119.56521739130434 L 122.3857142857143 119.56521739130434 L 122.3857142857143 290 L 116.32857142857142 290 L 116.32857142857142 119.56521739130434 Z" stroke-linejoin="bevel" stroke-miterlimit="10"/><path fill="#0E52A0" stroke="none" paint-order="stroke fill markers" d=" M 123.9 119.56521739130434 L 129.95714285714286 119.56521739130434 L 129.95714285714286 290 L 123.9 290 L 123.9 119.56521739130434 Z"/><path fill="none" stroke="black" paint-order="fill stroke markers" d=" M 123.9 119.56521739130434 L 129.95714285714286 119.56521739130434 L 129.95714285714286 290 L 123.9 290 L 123.9 119.56521739130434 Z" stroke-linejoin="bevel" stroke-miterlimit="10"/><path fill="pink" stroke="none" paint-order="stroke fill markers" d=" M 131.4714285714286 119.56521739130434 L 137.5285714285714 119.56521739130434 L 137.5285714285714 290 L 131.4714285714286 290 L 131.4714285714286 119.56521739130434 Z"/><path fill="none" stroke="black" paint-order="fill stroke markers" d=" M 131.4714285714286 119.56521739130434 L 137.5285714285714 119.56521739130434 L 137.5285714285714 290 L 131.4714285714286 290 L 131.4714285714286 119.56521739130434 Z" stroke-linejoin="bevel" stroke-miterlimit="10"/><path fill="#0E52A0" stroke="none" paint-order="stroke fill markers" d=" M 139.04285714285714 119.56521739130434 L 145.09999999999997 119.56521739130434 L 145.09999999999997 290 L 139.04285714285714 290 L 139.04285714285714 119.56521739130434 Z"/><path fill="none" stroke="black" paint-order="fill stroke markers" d=" M 139.04285714285714 119.56521739130434 L 145.09999999999997 119.56521739130434 L 145.09999999999997 290 L 139.04285714285714 290 L 139.04285714285714 119.56521739130434 Z" stroke-linejoin="bevel" stroke-miterlimit="10"/><path fill="#0E52A0" stroke="none" paint-order="stroke fill markers" d=" M 146.6142857142857 107.3913043478261 L 152.67142857142858 107.3913043478261 L 152.67142857142858 290 L 146.6142857142857 290 L 146.6142857142857 107.3913043478261 Z"/><path fill="none" stroke="black" paint-order="fill stroke markers" d=" M 146.6142857142857 107.3913043478261 L 152.67142857142858 107.3913043478261 L 152.67142857142858 290 L 146.6142857142857 290 L 146.6142857142857 107.3913043478261 Z" stroke-linejoin="bevel" stroke-miterlimit="10"/><path fill="#0E52A0" stroke="none" paint-order="stroke fill markers" d=" M 154.1857142857143 107.3913043478261 L 160.24285714285713 107.3913043478261 L 160.24285714285713 290 L 154.1857142857143 290 L 154.1857142857143 107.3913043478261 Z"/><path fill="none" stroke="black" paint-order="fill stroke markers" d=" M 154.1857142857143 107.3913043478261 L 160.24285714285713 107.3913043478261 L 160.24285714285713 290 L 154.1857142857143 290 L 154.1857142857143 107.3913043478261 Z" stroke-linejoin="bevel" stroke-miterlimit="10"/><path fill="#0E52A0" stroke="none" paint-order="stroke fill markers" d=" M 161.75714285714287 107.3913043478261 L 167.8142857142857 107.3913043478261 L 167.8142857142857 290 L 161.75714285714287 290 L 161.75714285714287 107.3913043478261 Z"/><path fill="none" stroke="black" paint-order="fill stroke markers" d=" M 161.75714285714287 107.3913043478261 L 167.8142857142857 107.3913043478261 L 167.8142857142857 290 L 161.75714285714287 290 L 161.75714285714287 107.3913043478261 Z" stroke-linejoin="bevel" stroke-miterlimit="10"/><path fill="#0E52A0" stroke="none" paint-order="stroke fill markers" d=" M 169.3285714285714 95.21739130434784 L 175.38571428571427 95.21739130434784 L 175.38571428571427 290 L 169.3285714285714 290 L 169.3285714285714 95.21739130434784 Z"/><path fill="none" stroke="black" paint-order="fill stroke markers" d=" M 169.3285714285714 95.21739130434784 L 175.38571428571427 95.21739130434784 L 175.38571428571427 290 L 169.3285714285714 290 L 169.3285714285714 95.21739130434784 Z" stroke-linejoin="bevel" stroke-miterlimit="10"/><path fill="#0E52A0" stroke="none" paint-order="stroke fill markers" d=" M 176.90000000000003 95.21739130434784 L 182.95714285714286 95.21739130434784 L 182.95714285714286 290 L 176.90000000000003 290 L 176.90000000000003 95.21739130434784 Z"/><path fill="none" stroke="black" paint-order="fill stroke markers" d=" M 176.90000000000003 95.21739130434784 L 182.95714285714286 95.21739130434784 L 182.95714285714286 290 L 176.90000000000003 290 L 176.90000000000003 95.21739130434784 Z" stroke-linejoin="bevel" stroke-miterlimit="10"/><path fill="#0E52A0" stroke="none" paint-order="stroke fill markers" d=" M 184.4714285714286 95.21739130434784 L 190.5285714285714 95.21739130434784 L 190.5285714285714 290 L 184.4714285714286 290 L 184.4714285714286 95.21739130434784 Z"/><path fill="none" stroke="black" paint-order="fill stroke markers" d=" M 184.4714285714286 95.21739130434784 L 190.5285714285714 95.21739130434784 L 190.5285714285714 290 L 184.4714285714286 290 L 184.4714285714286 95.21739130434784 Z" stroke-linejoin="bevel" stroke-miterlimit="10"/><path fill="#0E52A0" stroke="none" paint-order="stroke fill markers" d=" M 192.04285714285714 95.21739130434784 L 198.09999999999997 95.21739130434784 L 198.09999999999997 290 L 192.04285714285714 290 L 192.04285714285714 95.21739130434784 Z"/><path fill="none" stroke="black" paint-order="fill stroke markers" d=" M 192.04285714285714 95.21739130434784 L 198.09999999999997 95.21739130434784 L 198.09999999999997 290 L 192.04285714285714 290 L 192.04285714285714 95.21739130434784 Z" stroke-linejoin="bevel" stroke-miterlimit="10"/><path fill="#0E52A0" stroke="none" paint-order="stroke fill markers" d=" M 199.61428571428573 83.04347826086956 L 205.67142857142855 83.04347826086956 L 205.67142857142855 290 L 199.61428571428573 290 L 199.61428571428573 83.04347826086956 Z"/><path fill="none" stroke="black" paint-order="fill stroke markers" d=" M 199.61428571428573 83.04347826086956 L 205.67142857142855 83.04347826086956 L 205.67142857142855 290 L 199.61428571428573 290 L 199.61428571428573 83.04347826086956 Z" stroke-linejoin="bevel" stroke-miterlimit="10"/><path fill="#0E52A0" stroke="none" paint-order="stroke fill markers" d=" M 207.1857142857143 70.86956521739134 L 213.24285714285713 70.86956521739134 L 213.24285714285713 290 L 207.1857142857143 290 L 207.1857142857143 70.86956521739134 Z"/><path fill="none" stroke="black" paint-order="fill stroke markers" d=" M 207.1857142857143 70.86956521739134 L 213.24285714285713 70.86956521739134 L 213.24285714285713 290 L 207.1857142857143 290 L 207.1857142857143 70.86956521739134 Z" stroke-linejoin="bevel" stroke-miterlimit="10"/><path fill="pink" stroke="none" paint-order="stroke fill markers" d=" M 214.75714285714287 70.86956521739134 L 220.8142857142857 70.86956521739134 L 220.8142857142857 290 L 214.75714285714287 290 L 214.75714285714287 70.86956521739134 Z"/><path fill="none" stroke="black" paint-order="fill stroke markers" d=" M 214.75714285714287 70.86956521739134 L 220.8142857142857 70.86956521739134 L 220.8142857142857 290 L 214.75714285714287 290 L 214.75714285714287 70.86956521739134 Z" stroke-linejoin="bevel" stroke-miterlimit="10"/><path fill="#0E52A0" stroke="none" paint-order="stroke fill markers" d=" M 222.32857142857142 70.86956521739134 L 228.3857142857143 70.86956521739134 L 228.3857142857143 290 L 222.32857142857142 290 L 222.32857142857142 70.86956521739134 Z"/><path fill="none" stroke="black" paint-order="fill stroke markers" d=" M 222.32857142857142 70.86956521739134 L 228.3857142857143 70.86956521739134 L 228.3857142857143 290 L 222.32857142857142 290 L 222.32857142857142 70.86956521739134 Z" stroke-linejoin="bevel" stroke-miterlimit="10"/><path fill="#0E52A0" stroke="none" paint-order="stroke fill markers" d=" M 229.9 70.86956521739134 L 235.95714285714283 70.86956521739134 L 235.95714285714283 290 L 229.9 290 L 229.9 70.86956521739134 Z"/><path fill="none" stroke="black" paint-order="fill stroke markers" d=" M 229.9 70.86956521739134 L 235.95714285714283 70.86956521739134 L 235.95714285714283 290 L 229.9 290 L 229.9 70.86956521739134 Z" stroke-linejoin="bevel" stroke-miterlimit="10"/><path fill="#0E52A0" stroke="none" paint-order="stroke fill markers" d=" M 237.4714285714286 70.86956521739134 L 243.5285714285714 70.86956521739134 L 243.5285714285714 290 L 237.4714285714286 290 L 237.4714285714286 70.86956521739134 Z"/><path fill="none" stroke="black" paint-order="fill stroke markers" d=" M 237.4714285714286 70.86956521739134 L 243.5285714285714 70.86956521739134 L 243.5285714285714 290 L 237.4714285714286 290 L 237.4714285714286 70.86956521739134 Z" stroke-linejoin="bevel" stroke-miterlimit="10"/><path fill="#0E52A0" stroke="none" paint-order="stroke fill markers" d=" M 245.04285714285714 70.86956521739134 L 251.09999999999997 70.86956521739134 L 251.09999999999997 290 L 245.04285714285714 290 L 245.04285714285714 70.86956521739134 Z"/><path fill="none" stroke="black" paint-order="fill stroke markers" d=" M 245.04285714285714 70.86956521739134 L 251.09999999999997 70.86956521739134 L 251.09999999999997 290 L 245.04285714285714 290 L 245.04285714285714 70.86956521739134 Z" stroke-linejoin="bevel" stroke-miterlimit="10"/><path fill="#0E52A0" stroke="none" paint-order="stroke fill markers" d=" M 252.6142857142857 58.69565217391306 L 258.6714285714286 58.69565217391306 L 258.6714285714286 290 L 252.6142857142857 290 L 252.6142857142857 58.69565217391306 Z"/><path fill="none" stroke="black" paint-order="fill stroke markers" d=" M 252.6142857142857 58.69565217391306 L 258.6714285714286 58.69565217391306 L 258.6714285714286 290 L 252.6142857142857 290 L 252.6142857142857 58.69565217391306 Z" stroke-linejoin="bevel" stroke-miterlimit="10"/><path fill="#0E52A0" stroke="none" paint-order="stroke fill markers" d=" M 260.18571428571425 58.69565217391306 L 266.2428571428571 58.69565217391306 L 266.2428571428571 290 L 260.18571428571425 290 L 260.18571428571425 58.69565217391306 Z"/><path fill="none" stroke="black" paint-order="fill stroke markers" d=" M 260.18571428571425 58.69565217391306 L 266.2428571428571 58.69565217391306 L 266.2428571428571 290 L 260.18571428571425 290 L 260.18571428571425 58.69565217391306 Z" stroke-linejoin="bevel" stroke-miterlimit="10"/><path fill="#0E52A0" stroke="none" paint-order="stroke fill markers" d=" M 267.75714285714287 58.69565217391306 L 273.8142857142857 58.69565217391306 L 273.8142857142857 290 L 267.75714285714287 290 L 267.75714285714287 58.69565217391306 Z"/><path fill="none" stroke="black" paint-order="fill stroke markers" d=" M 267.75714285714287 58.69565217391306 L 273.8142857142857 58.69565217391306 L 273.8142857142857 290 L 267.75714285714287 290 L 267.75714285714287 58.69565217391306 Z" stroke-linejoin="bevel" stroke-miterlimit="10"/><path fill="#0E52A0" stroke="none" paint-order="stroke fill markers" d=" M 275.3285714285715 58.69565217391306 L 281.3857142857143 58.69565217391306 L 281.3857142857143 290 L 275.3285714285715 290 L 275.3285714285715 58.69565217391306 Z"/><path fill="none" stroke="black" paint-order="fill stroke markers" d=" M 275.3285714285715 58.69565217391306 L 281.3857142857143 58.69565217391306 L 281.3857142857143 290 L 275.3285714285715 290 L 275.3285714285715 58.69565217391306 Z" stroke-linejoin="bevel" stroke-miterlimit="10"/><path fill="#0E52A0" stroke="none" paint-order="stroke fill markers" d=" M 282.90000000000003 46.52173913043478 L 288.95714285714286 46.52173913043478 L 288.95714285714286 290 L 282.90000000000003 290 L 282.90000000000003 46.52173913043478 Z"/><path fill="none" stroke="black" paint-order="fill stroke markers" d=" M 282.90000000000003 46.52173913043478 L 288.95714285714286 46.52173913043478 L 288.95714285714286 290 L 282.90000000000003 290 L 282.90000000000003 46.52173913043478 Z" stroke-linejoin="bevel" stroke-miterlimit="10"/><path fill="#0E52A0" stroke="none" paint-order="stroke fill markers" d=" M 290.47142857142853 34.34782608695656 L 296.52857142857147 34.34782608695656 L 296.52857142857147 290 L 290.47142857142853 290 L 290.47142857142853 34.34782608695656 Z"/><path fill="none" stroke="black" paint-order="fill stroke markers" d=" M 290.47142857142853 34.34782608695656 L 296.52857142857147 34.34782608695656 L 296.52857142857147 290 L 290.47142857142853 290 L 290.47142857142853 34.34782608695656 Z" stroke-linejoin="bevel" stroke-miterlimit="10"/><path fill="#0E52A0" stroke="none" paint-order="stroke fill markers" d=" M 298.0428571428571 22.17391304347825 L 304.1 22.17391304347825 L 304.1 290 L 298.0428571428571 290 L 298.0428571428571 22.17391304347825 Z"/><path fill="none" stroke="black" paint-order="fill stroke markers" d=" M 298.0428571428571 22.17391304347825 L 304.1 22.17391304347825 L 304.1 290 L 298.0428571428571 290 L 298.0428571428571 22.17391304347825 Z" stroke-linejoin="bevel" stroke-miterlimit="10"/><path fill="#0E52A0" stroke="none" paint-order="stroke fill markers" d=" M 305.6142857142857 22.17391304347825 L 311.6714285714285 22.17391304347825 L 311.6714285714285 290 L 305.6142857142857 290 L 305.6142857142857 22.17391304347825 Z"/><path fill="none" stroke="black" paint-order="fill stroke markers" d=" M 305.6142857142857 22.17391304347825 L 311.6714285714285 22.17391304347825 L 311.6714285714285 290 L 305.6142857142857 290 L 305.6142857142857 22.17391304347825 Z" stroke-linejoin="bevel" stroke-miterlimit="10"/><path fill="#0E52A0" stroke="none" paint-order="stroke fill markers" d=" M 313.1857142857143 10 L 319.24285714285713 10 L 319.24285714285713 290 L 313.1857142857143 290 L 313.1857142857143 10 Z"/><path fill="none" stroke="black" paint-order="fill stroke markers" d=" M 313.1857142857143 10 L 319.24285714285713 10 L 319.24285714285713 290 L 313.1857142857143 290 L 313.1857142857143 10 Z" stroke-linejoin="bevel" stroke-miterlimit="10"/></g></g></g><g/><g/><g/><g><g fill="#444444"><path fill="none" stroke="black" paint-order="fill stroke markers" d=" M 55 290 L 55 10" stroke-linejoin="bevel" stroke-miterlimit="10"/><path fill="none" stroke="black" paint-order="fill stroke markers" d=" M 49 290 L 57 290" stroke-linejoin="bevel" stroke-miterlimit="10"/><path fill="none" stroke="black" paint-order="fill stroke markers" d=" M 49 229 L 57 229" stroke-linejoin="bevel" stroke-miterlimit="10"/><path fill="none" stroke="black" paint-order="fill stroke markers" d=" M 49 168 L 57 168" stroke-linejoin="bevel" stroke-miterlimit="10"/><path fill="none" stroke="black" paint-order="fill stroke markers" d=" M 49 107 L 57 107" stroke-linejoin="bevel" stroke-miterlimit="10"/><path fill="none" stroke="black" paint-order="fill stroke markers" d=" M 49 47 L 57 47" stroke-linejoin="bevel" stroke-miterlimit="10"/><path fill="none" stroke="black" paint-order="fill stroke markers" d=" M 51 290 L 55 290" stroke-linejoin="bevel" stroke-miterlimit="10"/><path fill="none" stroke="black" paint-order="fill stroke markers" d=" M 51 278 L 55 278" stroke-linejoin="bevel" stroke-miterlimit="10"/><path fill="none" stroke="black" paint-order="fill stroke markers" d=" M 51 266 L 55 266" stroke-linejoin="bevel" stroke-miterlimit="10"/><path fill="none" stroke="black" paint-order="fill stroke markers" d=" M 51 253 L 55 253" stroke-linejoin="bevel" stroke-miterlimit="10"/><path fill="none" stroke="black" paint-order="fill stroke markers" d=" M 51 241 L 55 241" stroke-linejoin="bevel" stroke-miterlimit="10"/><path fill="none" stroke="black" paint-order="fill stroke markers" d=" M 51 229 L 55 229" stroke-linejoin="bevel" stroke-miterlimit="10"/><path fill="none" stroke="black" paint-order="fill stroke markers" d=" M 51 217 L 55 217" stroke-linejoin="bevel" stroke-miterlimit="10"/><path fill="none" stroke="black" paint-order="fill stroke markers" d=" M 51 205 L 55 205" stroke-linejoin="bevel" stroke-miterlimit="10"/><path fill="none" stroke="black" paint-order="fill stroke markers" d=" M 51 193 L 55 193" stroke-linejoin="bevel" stroke-miterlimit="10"/><path fill="none" stroke="black" paint-order="fill stroke markers" d=" M 51 180 L 55 180" stroke-linejoin="bevel" stroke-miterlimit="10"/><path fill="none" stroke="black" paint-order="fill stroke markers" d=" M 51 168 L 55 168" stroke-linejoin="bevel" stroke-miterlimit="10"/><path fill="none" stroke="black" paint-order="fill stroke markers" d=" M 51 156 L 55 156" stroke-linejoin="bevel" stroke-miterlimit="10"/><path fill="none" stroke="black" paint-order="fill stroke markers" d=" M 51 144 L 55 144" stroke-linejoin="bevel" stroke-miterlimit="10"/><path fill="none" stroke="black" paint-order="fill stroke markers" d=" M 51 132 L 55 132" stroke-linejoin="bevel" stroke-miterlimit="10"/><path fill="none" stroke="black" paint-order="fill stroke markers" d=" M 51 120 L 55 120" stroke-linejoin="bevel" stroke-miterlimit="10"/><path fill="none" stroke="black" paint-order="fill stroke markers" d=" M 51 107 L 55 107" stroke-linejoin="bevel" stroke-miterlimit="10"/><path fill="none" stroke="black" paint-order="fill stroke markers" d=" M 51 95 L 55 95" stroke-linejoin="bevel" stroke-miterlimit="10"/><path fill="none" stroke="black" paint-order="fill stroke markers" d=" M 51 83 L 55 83" stroke-linejoin="bevel" stroke-miterlimit="10"/><path fill="none" stroke="black" paint-order="fill stroke markers" d=" M 51 71 L 55 71" stroke-linejoin="bevel" stroke-miterlimit="10"/><path fill="none" stroke="black" paint-order="fill stroke markers" d=" M 51 59 L 55 59" stroke-linejoin="bevel" stroke-miterlimit="10"/><path fill="none" stroke="black" paint-order="fill stroke markers" d=" M 51 47 L 55 47" stroke-linejoin="bevel" stroke-miterlimit="10"/><path fill="none" stroke="black" paint-order="fill stroke markers" d=" M 51 34 L 55 34" stroke-linejoin="bevel" stroke-miterlimit="10"/><path fill="none" stroke="black" paint-order="fill stroke markers" d=" M 51 22 L 55 22" stroke-linejoin="bevel" stroke-miterlimit="10"/><path fill="" stroke="black" paint-order="fill stroke markers" d=" M 51 10 L 55 10" stroke-linejoin="bevel" stroke-miterlimit="10"/><g transform="translate(44,290) rotate(0,0,0)"><text fill="" stroke="none" font-family="helvetica" font-size="8pt" font-style="normal" font-weight="normal" text-decoration="normal" x="0" y="0" text-anchor="end" dominant-baseline="central">0</text><g transform="rotate(0,0,0) translate(-44,-290) translate(44,229) rotate(0,0,0)"><text fill="" stroke="none" font-family="helvetica" font-size="8pt" font-style="normal" font-weight="normal" text-decoration="normal" x="0" y="0" text-anchor="end" dominant-baseline="central">0.05</text><g transform="rotate(0,0,0) translate(-44,-229) translate(44,168) rotate(0,0,0)"><text fill="" stroke="none" font-family="helvetica" font-size="8pt" font-style="normal" font-weight="normal" text-decoration="normal" x="0" y="0" text-anchor="end" dominant-baseline="central">0.1</text><g transform="rotate(0,0,0) translate(-44,-168) translate(44,107) rotate(0,0,0)"><text fill="" stroke="none" font-family="helvetica" font-size="8pt" font-style="normal" font-weight="normal" text-decoration="normal" x="0" y="0" text-anchor="end" dominant-baseline="central">0.15</text><g transform="rotate(0,0,0) translate(-44,-107) translate(44,47) rotate(0,0,0)"><text fill="" stroke="none" font-family="helvetica" font-size="8pt" font-style="normal" font-weight="normal" text-decoration="normal" x="0" y="0" text-anchor="end" dominant-baseline="central">0.2</text><g transform="rotate(0,0,0) translate(-44,-47) translate(15,150) rotate(-90,0,0)"><text fill="" stroke="none" font-family="helvetica" font-size="10pt" font-style="italic" font-weight="normal" text-decoration="normal" x="0" y="0" text-anchor="middle" dominant-baseline="alphabetic">Harmonic Centrality</text><g transform="rotate(90,0,0) translate(-15,-150)"/></g></g></g></g></g></g></g></g></g></g></svg>