<svg version="1.1" xmlns="http://www.w3.org/2000/svg" xmlns:xlink="http://www.w3.org/1999/xlink" width="310" height="300" style="width: 310px; height: 300px;"><defs><clipPath id="sBZZSxKmqfkE"><path fill="none" stroke="none" d=" M 55 10 L 280 10 L 280 290 L 55 290 L 55 10 Z"/></clipPath><clipPath id="qJsQLSzodRFC"><path fill="none" stroke="none" d=" M 55 10 L 280 10 L 280 290 L 55 290 L 55 10 Z"/></clipPath><clipPath id="oDuucphBDiGU"><path fill="none" stroke="none" d=" M 55 10 L 280 10 L 280 290 L 55 290 L 55 10 Z"/></clipPath></defs><g><g transform="scale(1,1) translate(0.5,0.5)"><rect fill="#FFFFFF" stroke="none" x="0" y="0" width="310" height="300"/><g><rect fill="none" stroke="#e5e5e5" x="55" y="10" width="225" height="280" stroke-linejoin="bevel" stroke-miterlimit="10"/></g><g clip-path="url(#sBZZSxKmqfkE)"><g><g/></g></g><g clip-path="url(#qJsQLSzodRFC)"><g><g/></g></g><g clip-path="url(#oDuucphBDiGU)"><g><g><path fill="none" stroke="none"/><path fill="#EF7D00" stroke="none" paint-order="stroke fill markers" d=" M 55.7258064516129 139.23076923076923 L 61.53225806451613 139.23076923076923 L 61.53225806451613 290 L 55.7258064516129 290 L 55.7258064516129 139.23076923076923 Z"/><path fill="none" stroke="black" paint-order="fill stroke markers" d=" M 55.7258064516129 139.23076923076923 L 61.53225806451613 139.23076923076923 L 61.53225806451613 290 L 55.7258064516129 290 L 55.7258064516129 139.23076923076923 Z" stroke-linejoin="bevel" stroke-miterlimit="10"/><path fill="#EF7D00" stroke="none" paint-order="stroke fill markers" d=" M 62.98387096774194 139.23076923076923 L 68.79032258064515 139.23076923076923 L 68.79032258064515 290 L 62.98387096774194 290 L 62.98387096774194 139.23076923076923 Z"/><path fill="none" stroke="black" paint-order="fill stroke markers" d=" M 62.98387096774194 139.23076923076923 L 68.79032258064515 139.23076923076923 L 68.79032258064515 290 L 62.98387096774194 290 L 62.98387096774194 139.23076923076923 Z" stroke-linejoin="bevel" stroke-miterlimit="10"/><path fill="#EF7D00" stroke="none" paint-order="stroke fill markers" d=" M 70.24193548387098 139.23076923076923 L 76.04838709677418 139.23076923076923 L 76.04838709677418 290 L 70.24193548387098 290 L 70.24193548387098 139.23076923076923 Z"/><path fill="none" stroke="black" paint-order="fill stroke markers" d=" M 70.24193548387098 139.23076923076923 L 76.04838709677418 139.23076923076923 L 76.04838709677418 290 L 70.24193548387098 290 L 70.24193548387098 139.23076923076923 Z" stroke-linejoin="bevel" stroke-miterlimit="10"/><path fill="#EF7D00" stroke="none" paint-order="stroke fill markers" d=" M 77.5 139.23076923076923 L 83.30645161290323 139.23076923076923 L 83.30645161290323 290 L 77.5 290 L 77.5 139.23076923076923 Z"/><path fill="none" stroke="black" paint-order="fill stroke markers" d=" M 77.5 139.23076923076923 L 83.30645161290323 139.23076923076923 L 83.30645161290323 290 L 77.5 290 L 77.5 139.23076923076923 Z" stroke-linejoin="bevel" stroke-miterlimit="10"/><path fill="#EF7D00" stroke="none" paint-order="stroke fill markers" d=" M 84.75806451612902 139.23076923076923 L 90.56451612903226 139.23076923076923 L 90.56451612903226 290 L 84.75806451612902 290 L 84.75806451612902 139.23076923076923 Z"/><path fill="none" stroke="black" paint-order="fill stroke markers" d=" M 84.75806451612902 139.23076923076923 L 90.56451612903226 139.23076923076923 L 90.56451612903226 290 L 84.75806451612902 290 L 84.75806451612902 139.23076923076923 Z" stroke-linejoin="bevel" stroke-miterlimit="10"/><path fill="#EF7D00" stroke="none" paint-order="stroke fill markers" d=" M 92.01612903225808 128.46153846153848 L 97.82258064516128 128.46153846153848 L 97.82258064516128 290 L 92.01612903225808 290 L 92.01612903225808 128.46153846153848 Z"/><path fill="none" stroke="black" paint-order="fill stroke markers" d=" M 92.01612903225808 128.46153846153848 L 97.82258064516128 128.46153846153848 L 97.82258064516128 290 L 92.01612903225808 290 L 92.01612903225808 128.46153846153848 Z" stroke-linejoin="bevel" stroke-miterlimit="10"/><path fill="#EF7D00" stroke="none" paint-order="stroke fill markers" d=" M 99.2741935483871 128.46153846153848 L 105.0806451612903 128.46153846153848 L 105.0806451612903 290 L 99.2741935483871 290 L 99.2741935483871 128.46153846153848 Z"/><path fill="none" stroke="black" paint-order="fill stroke markers" d=" M 99.2741935483871 128.46153846153848 L 105.0806451612903 128.46153846153848 L 105.0806451612903 290 L 99.2741935483871 290 L 99.2741935483871 128.46153846153848 Z" stroke-linejoin="bevel" stroke-miterlimit="10"/><path fill="#EF7D00" stroke="none" paint-order="stroke fill markers" d=" M 106.53225806451613 128.46153846153848 L 112.33870967741936 128.46153846153848 L 112.33870967741936 290 L 106.53225806451613 290 L 106.53225806451613 128.46153846153848 Z"/><path fill="none" stroke="black" paint-order="fill stroke markers" d=" M 106.53225806451613 128.46153846153848 L 112.33870967741936 128.46153846153848 L 112.33870967741936 290 L 106.53225806451613 290 L 106.53225806451613 128.46153846153848 Z" stroke-linejoin="bevel" stroke-miterlimit="10"/><path fill="#EF7D00" stroke="none" paint-order="stroke fill markers" d=" M 113.79032258064515 117.69230769230768 L 119.59677419354838 117.69230769230768 L 119.59677419354838 290 L 113.79032258064515 290 L 113.79032258064515 117.69230769230768 Z"/><path fill="none" stroke="black" paint-order="fill stroke markers" d=" M 113.79032258064515 117.69230769230768 L 119.59677419354838 117.69230769230768 L 119.59677419354838 290 L 113.79032258064515 290 L 113.79032258064515 117.69230769230768 Z" stroke-linejoin="bevel" stroke-miterlimit="10"/><path fill="#EF7D00" stroke="none" paint-order="stroke fill markers" d=" M 121.04838709677419 117.69230769230768 L 126.85483870967742 117.69230769230768 L 126.85483870967742 290 L 121.04838709677419 290 L 121.04838709677419 117.69230769230768 Z"/><path fill="none" stroke="black" paint-order="fill stroke markers" d=" M 121.04838709677419 117.69230769230768 L 126.85483870967742 117.69230769230768 L 126.85483870967742 290 L 121.04838709677419 290 L 121.04838709677419 117.69230769230768 Z" stroke-linejoin="bevel" stroke-miterlimit="10"/><path fill="#EF7D00" stroke="none" paint-order="stroke fill markers" d=" M 128.3064516129032 117.69230769230768 L 134.11290322580643 117.69230769230768 L 134.11290322580643 290 L 128.3064516129032 290 L 128.3064516129032 117.69230769230768 Z"/><path fill="none" stroke="black" paint-order="fill stroke markers" d=" M 128.3064516129032 117.69230769230768 L 134.11290322580643 117.69230769230768 L 134.11290322580643 290 L 128.3064516129032 290 L 128.3064516129032 117.69230769230768 Z" stroke-linejoin="bevel" stroke-miterlimit="10"/><path fill="#EF7D00" stroke="none" paint-order="stroke fill markers" d=" M 135.56451612903226 117.69230769230768 L 141.3709677419355 117.69230769230768 L 141.3709677419355 290 L 135.56451612903226 290 L 135.56451612903226 117.69230769230768 Z"/><path fill="none" stroke="black" paint-order="fill stroke markers" d=" M 135.56451612903226 117.69230769230768 L 141.3709677419355 117.69230769230768 L 141.3709677419355 290 L 135.56451612903226 290 L 135.56451612903226 117.69230769230768 Z" stroke-linejoin="bevel" stroke-miterlimit="10"/><path fill="#EF7D00" stroke="none" paint-order="stroke fill markers" d=" M 142.82258064516128 106.9230769230769 L 148.6290322580645 106.9230769230769 L 148.6290322580645 290 L 142.82258064516128 290 L 142.82258064516128 106.9230769230769 Z"/><path fill="none" stroke="black" paint-order="fill stroke markers" d=" M 142.82258064516128 106.9230769230769 L 148.6290322580645 106.9230769230769 L 148.6290322580645 290 L 142.82258064516128 290 L 142.82258064516128 106.9230769230769 Z" stroke-linejoin="bevel" stroke-miterlimit="10"/><path fill="#EF7D00" stroke="none" paint-order="stroke fill markers" d=" M 150.08064516129033 106.9230769230769 L 155.88709677419357 106.9230769230769 L 155.88709677419357 290 L 150.08064516129033 290 L 150.08064516129033 106.9230769230769 Z"/><path fill="none" stroke="black" paint-order="fill stroke markers" d=" M 150.08064516129033 106.9230769230769 L 155.88709677419357 106.9230769230769 L 155.88709677419357 290 L 150.08064516129033 290 L 150.08064516129033 106.9230769230769 Z" stroke-linejoin="bevel" stroke-miterlimit="10"/><path fill="pink" stroke="none" paint-order="stroke fill markers" d=" M 157.33870967741936 106.9230769230769 L 163.1451612903226 106.9230769230769 L 163.1451612903226 290 L 157.33870967741936 290 L 157.33870967741936 106.9230769230769 Z"/><path fill="none" stroke="black" paint-order="fill stroke markers" d=" M 157.33870967741936 106.9230769230769 L 163.1451612903226 106.9230769230769 L 163.1451612903226 290 L 157.33870967741936 290 L 157.33870967741936 106.9230769230769 Z" stroke-linejoin="bevel" stroke-miterlimit="10"/><path fill="#EF7D00" stroke="none" paint-order="stroke fill markers" d=" M 164.59677419354838 106.9230769230769 L 170.40322580645162 106.9230769230769 L 170.40322580645162 290 L 164.59677419354838 290 L 164.59677419354838 106.9230769230769 Z"/><path fill="none" stroke="black" paint-order="fill stroke markers" d=" M 164.59677419354838 106.9230769230769 L 170.40322580645162 106.9230769230769 L 170.40322580645162 290 L 164.59677419354838 290 L 164.59677419354838 106.9230769230769 Z" stroke-linejoin="bevel" stroke-miterlimit="10"/><path fill="#EF7D00" stroke="none" paint-order="stroke fill markers" d=" M 171.85483870967744 106.9230769230769 L 177.6612903225806 106.9230769230769 L 177.6612903225806 290 L 171.85483870967744 290 L 171.85483870967744 106.9230769230769 Z"/><path fill="none" stroke="black" paint-order="fill stroke markers" d=" M 171.85483870967744 106.9230769230769 L 177.6612903225806 106.9230769230769 L 177.6612903225806 290 L 171.85483870967744 290 L 171.85483870967744 106.9230769230769 Z" stroke-linejoin="bevel" stroke-miterlimit="10"/><path fill="#EF7D00" stroke="none" paint-order="stroke fill markers" d=" M 179.11290322580646 106.9230769230769 L 184.91935483870964 106.9230769230769 L 184.91935483870964 290 L 179.11290322580646 290 L 179.11290322580646 106.9230769230769 Z"/><path fill="none" stroke="black" paint-order="fill stroke markers" d=" M 179.11290322580646 106.9230769230769 L 184.91935483870964 106.9230769230769 L 184.91935483870964 290 L 179.11290322580646 290 L 179.11290322580646 106.9230769230769 Z" stroke-linejoin="bevel" stroke-miterlimit="10"/><path fill="#EF7D00" stroke="none" paint-order="stroke fill markers" d=" M 186.3709677419355 106.9230769230769 L 192.17741935483872 106.9230769230769 L 192.17741935483872 290 L 186.3709677419355 290 L 186.3709677419355 106.9230769230769 Z"/><path fill="none" stroke="black" paint-order="fill stroke markers" d=" M 186.3709677419355 106.9230769230769 L 192.17741935483872 106.9230769230769 L 192.17741935483872 290 L 186.3709677419355 290 L 186.3709677419355 106.9230769230769 Z" stroke-linejoin="bevel" stroke-miterlimit="10"/><path fill="#EF7D00" stroke="none" paint-order="stroke fill markers" d=" M 193.6290322580645 96.15384615384616 L 199.43548387096774 96.15384615384616 L 199.43548387096774 290 L 193.6290322580645 290 L 193.6290322580645 96.15384615384616 Z"/><path fill="none" stroke="black" paint-order="fill stroke markers" d=" M 193.6290322580645 96.15384615384616 L 199.43548387096774 96.15384615384616 L 199.43548387096774 290 L 193.6290322580645 290 L 193.6290322580645 96.15384615384616 Z" stroke-linejoin="bevel" stroke-miterlimit="10"/><path fill="#EF7D00" stroke="none" paint-order="stroke fill markers" d=" M 200.88709677419354 85.38461538461539 L 206.69354838709677 85.38461538461539 L 206.69354838709677 290 L 200.88709677419354 290 L 200.88709677419354 85.38461538461539 Z"/><path fill="none" stroke="black" paint-order="fill stroke markers" d=" M 200.88709677419354 85.38461538461539 L 206.69354838709677 85.38461538461539 L 206.69354838709677 290 L 200.88709677419354 290 L 200.88709677419354 85.38461538461539 Z" stroke-linejoin="bevel" stroke-miterlimit="10"/><path fill="#EF7D00" stroke="none" paint-order="stroke fill markers" d=" M 208.14516129032256 85.38461538461539 L 213.9516129032258 85.38461538461539 L 213.9516129032258 290 L 208.14516129032256 290 L 208.14516129032256 85.38461538461539 Z"/><path fill="none" stroke="black" paint-order="fill stroke markers" d=" M 208.14516129032256 85.38461538461539 L 213.9516129032258 85.38461538461539 L 213.9516129032258 290 L 208.14516129032256 290 L 208.14516129032256 85.38461538461539 Z" stroke-linejoin="bevel" stroke-miterlimit="10"/><path fill="#EF7D00" stroke="none" paint-order="stroke fill markers" d=" M 215.40322580645164 74.61538461538461 L 221.20967741935482 74.61538461538461 L 221.20967741935482 290 L 215.40322580645164 290 L 215.40322580645164 74.61538461538461 Z"/><path fill="none" stroke="black" paint-order="fill stroke markers" d=" M 215.40322580645164 74.61538461538461 L 221.20967741935482 74.61538461538461 L 221.20967741935482 290 L 215.40322580645164 290 L 215.40322580645164 74.61538461538461 Z" stroke-linejoin="bevel" stroke-miterlimit="10"/><path fill="#EF7D00" stroke="none" paint-order="stroke fill markers" d=" M 222.66129032258067 74.61538461538461 L 228.46774193548384 74.61538461538461 L 228.46774193548384 290 L 222.66129032258067 290 L 222.66129032258067 74.61538461538461 Z"/><path fill="none" stroke="black" paint-order="fill stroke markers" d=" M 222.66129032258067 74.61538461538461 L 228.46774193548384 74.61538461538461 L 228.46774193548384 290 L 222.66129032258067 290 L 222.66129032258067 74.61538461538461 Z" stroke-linejoin="bevel" stroke-miterlimit="10"/><path fill="#EF7D00" stroke="none" paint-order="stroke fill markers" d=" M 229.9193548387097 74.61538461538461 L 235.72580645161287 74.61538461538461 L 235.72580645161287 290 L 229.9193548387097 290 L 229.9193548387097 74.61538461538461 Z"/><path fill="none" stroke="black" paint-order="fill stroke markers" d=" M 229.9193548387097 74.61538461538461 L 235.72580645161287 74.61538461538461 L 235.72580645161287 290 L 229.9193548387097 290 L 229.9193548387097 74.61538461538461 Z" stroke-linejoin="bevel" stroke-miterlimit="10"/><path fill="#EF7D00" stroke="none" paint-order="stroke fill markers" d=" M 237.17741935483872 74.61538461538461 L 242.9838709677419 74.61538461538461 L 242.9838709677419 290 L 237.17741935483872 290 L 237.17741935483872 74.61538461538461 Z"/><path fill="none" stroke="black" paint-order="fill stroke markers" d=" M 237.17741935483872 74.61538461538461 L 242.9838709677419 74.61538461538461 L 242.9838709677419 290 L 237.17741935483872 290 L 237.17741935483872 74.61538461538461 Z" stroke-linejoin="bevel" stroke-miterlimit="10"/><path fill="#EF7D00" stroke="none" paint-order="stroke fill markers" d=" M 244.43548387096774 74.61538461538461 L 250.24193548387098 74.61538461538461 L 250.24193548387098 290 L 244.43548387096774 290 L 244.43548387096774 74.61538461538461 Z"/><path fill="none" stroke="black" paint-order="fill stroke markers" d=" M 244.43548387096774 74.61538461538461 L 250.24193548387098 74.61538461538461 L 250.24193548387098 290 L 244.43548387096774 290 L 244.43548387096774 74.61538461538461 Z" stroke-linejoin="bevel" stroke-miterlimit="10"/><path fill="#EF7D00" stroke="none" paint-order="stroke fill markers" d=" M 251.69354838709677 53.076923076923066 L 257.5 53.076923076923066 L 257.5 290 L 251.69354838709677 290 L 251.69354838709677 53.076923076923066 Z"/><path fill="none" stroke="black" paint-order="fill stroke markers" d=" M 251.69354838709677 53.076923076923066 L 257.5 53.076923076923066 L 257.5 290 L 251.69354838709677 290 L 251.69354838709677 53.076923076923066 Z" stroke-linejoin="bevel" stroke-miterlimit="10"/><path fill="#EF7D00" stroke="none" paint-order="stroke fill markers" d=" M 258.95161290322585 42.30769230769229 L 264.758064516129 42.30769230769229 L 264.758064516129 290 L 258.95161290322585 290 L 258.95161290322585 42.30769230769229 Z"/><path fill="none" stroke="black" paint-order="fill stroke markers" d=" M 258.95161290322585 42.30769230769229 L 264.758064516129 42.30769230769229 L 264.758064516129 290 L 258.95161290322585 290 L 258.95161290322585 42.30769230769229 Z" stroke-linejoin="bevel" stroke-miterlimit="10"/><path fill="#EF7D00" stroke="none" paint-order="stroke fill markers" d=" M 266.2096774193549 42.30769230769229 L 272.01612903225805 42.30769230769229 L 272.01612903225805 290 L 266.2096774193549 290 L 266.2096774193549 42.30769230769229 Z"/><path fill="none" stroke="black" paint-order="fill stroke markers" d=" M 266.2096774193549 42.30769230769229 L 272.01612903225805 42.30769230769229 L 272.01612903225805 290 L 266.2096774193549 290 L 266.2096774193549 42.30769230769229 Z" stroke-linejoin="bevel" stroke-miterlimit="10"/><path fill="#EF7D00" stroke="none" paint-order="stroke fill markers" d=" M 273.4677419354839 10 L 279.2741935483871 10 L 279.2741935483871 290 L 273.4677419354839 290 L 273.4677419354839 10 Z"/><path fill="none" stroke="black" paint-order="fill stroke markers" d=" M 273.4677419354839 10 L 279.2741935483871 10 L 279.2741935483871 290 L 273.4677419354839 290 L 273.4677419354839 10 Z" stroke-linejoin="bevel" stroke-miterlimit="10"/></g></g></g><g/><g/><g/><g><g fill="#444444"><path fill="none" stroke="black" paint-order="fill stroke markers" d=" M 55 290 L 55 10" stroke-linejoin="bevel" stroke-miterlimit="10"/><path fill="none" stroke="black" paint-order="fill stroke markers" d=" M 49 290 L 57 290" stroke-linejoin="bevel" stroke-miterlimit="10"/><path fill="none" stroke="black" paint-order="fill stroke markers" d=" M 49 236 L 57 236" stroke-linejoin="bevel" stroke-miterlimit="10"/><path fill="none" stroke="black" paint-order="fill stroke markers" d=" M 49 182 L 57 182" stroke-linejoin="bevel" stroke-miterlimit="10"/><path fill="none" stroke="black" paint-order="fill stroke markers" d=" M 49 128 L 57 128" stroke-linejoin="bevel" stroke-miterlimit="10"/><path fill="none" stroke="black" paint-order="fill stroke markers" d=" M 49 75 L 57 75" stroke-linejoin="bevel" stroke-miterlimit="10"/><path fill="none" stroke="black" paint-order="fill stroke markers" d=" M 49 21 L 57 21" stroke-linejoin="bevel" stroke-miterlimit="10"/><path fill="none" stroke="black" paint-order="fill stroke markers" d=" M 51 290 L 55 290" stroke-linejoin="bevel" stroke-miterlimit="10"/><path fill="none" stroke="black" paint-order="fill stroke markers" d=" M 51 279 L 55 279" stroke-linejoin="bevel" stroke-miterlimit="10"/><path fill="none" stroke="black" paint-order="fill stroke markers" d=" M 51 268 L 55 268" stroke-linejoin="bevel" stroke-miterlimit="10"/><path fill="none" stroke="black" paint-order="fill stroke markers" d=" M 51 258 L 55 258" stroke-linejoin="bevel" stroke-miterlimit="10"/><path fill="none" stroke="black" paint-order="fill stroke markers" d=" M 51 247 L 55 247" stroke-linejoin="bevel" stroke-miterlimit="10"/><path fill="none" stroke="black" paint-order="fill stroke markers" d=" M 51 236 L 55 236" stroke-linejoin="bevel" stroke-miterlimit="10"/><path fill="none" stroke="black" paint-order="fill stroke markers" d=" M 51 225 L 55 225" stroke-linejoin="bevel" stroke-miterlimit="10"/><path fill="none" stroke="black" paint-order="fill stroke markers" d=" M 51 215 L 55 215" stroke-linejoin="bevel" stroke-miterlimit="10"/><path fill="none" stroke="black" paint-order="fill stroke markers" d=" M 51 204 L 55 204" stroke-linejoin="bevel" stroke-miterlimit="10"/><path fill="none" stroke="black" paint-order="fill stroke markers" d=" M 51 193 L 55 193" stroke-linejoin="bevel" stroke-miterlimit="10"/><path fill="none" stroke="black" paint-order="fill stroke markers" d=" M 51 182 L 55 182" stroke-linejoin="bevel" stroke-miterlimit="10"/><path fill="none" stroke="black" paint-order="fill stroke markers" d=" M 51 172 L 55 172" stroke-linejoin="bevel" stroke-miterlimit="10"/><path fill="none" stroke="black" paint-order="fill stroke markers" d=" M 51 161 L 55 161" stroke-linejoin="bevel" stroke-miterlimit="10"/><path fill="none" stroke="black" paint-order="fill stroke markers" d=" M 51 150 L 55 150" stroke-linejoin="bevel" stroke-miterlimit="10"/><path fill="none" stroke="black" paint-order="fill stroke markers" d=" M 51 139 L 55 139" stroke-linejoin="bevel" stroke-miterlimit="10"/><path fill="none" stroke="black" paint-order="fill stroke markers" d=" M 51 128 L 55 128" stroke-linejoin="bevel" stroke-miterlimit="10"/><path fill="none" stroke="black" paint-order="fill stroke markers" d=" M 51 118 L 55 118" stroke-linejoin="bevel" stroke-miterlimit="10"/><path fill="none" stroke="black" paint-order="fill stroke markers" d=" M 51 107 L 55 107" stroke-linejoin="bevel" stroke-miterlimit="10"/><path fill="none" stroke="black" paint-order="fill stroke markers" d=" M 51 96 L 55 96" stroke-linejoin="bevel" stroke-miterlimit="10"/><path fill="none" stroke="black" paint-order="fill stroke markers" d=" M 51 85 L 55 85" stroke-linejoin="bevel" stroke-miterlimit="10"/><path fill="none" stroke="black" paint-order="fill stroke markers" d=" M 51 75 L 55 75" stroke-linejoin="bevel" stroke-miterlimit="10"/><path fill="none" stroke="black" paint-order="fill stroke markers" d=" M 51 64 L 55 64" stroke-linejoin="bevel" stroke-miterlimit="10"/><path fill="none" stroke="black" paint-order="fill stroke markers" d=" M 51 53 L 55 53" stroke-linejoin="bevel" stroke-miterlimit="10"/><path fill="none" stroke="black" paint-order="fill stroke markers" d=" M 51 42 L 55 42" stroke-linejoin="bevel" stroke-miterlimit="10"/><path fill="none" stroke="black" paint-order="fill stroke markers" d=" M 51 32 L 55 32" stroke-linejoin="bevel" stroke-miterlimit="10"/><path fill="none" stroke="black" paint-order="fill stroke markers" d=" M 51 21 L 55 21" stroke-linejoin="bevel" stroke-miterlimit="10"/><path fill="" stroke="black" paint-order="fill stroke markers" d=" M 51 10 L 55 10" stroke-linejoin="bevel" stroke-miterlimit="10"/><g transform="translate(44,290) rotate(0,0,0)"><text fill="" stroke="none" font-family="helvetica" font-size="8pt" font-style="normal" font-weight="normal" text-decoration="normal" x="0" y="0" text-anchor="end" dominant-baseline="central">0</text><g transform="rotate(0,0,0) translate(-44,-290) translate(44,236) rotate(0,0,0)"><text fill="" stroke="none" font-family="helvetica" font-size="8pt" font-style="normal" font-weight="normal" text-decoration="normal" x="0" y="0" text-anchor="end" dominant-baseline="central">0.05</text><g transform="rotate(0,0,0) translate(-44,-236) translate(44,182) rotate(0,0,0)"><text fill="" stroke="none" font-family="helvetica" font-size="8pt" font-style="normal" font-weight="normal" text-decoration="normal" x="0" y="0" text-anchor="end" dominant-baseline="central">0.1</text><g transform="rotate(0,0,0) translate(-44,-182) translate(44,128) rotate(0,0,0)"><text fill="" stroke="none" font-family="helvetica" font-size="8pt" font-style="normal" font-weight="normal" text-decoration="normal" x="0" y="0" text-anchor="end" dominant-baseline="central">0.15</text><g transform="rotate(0,0,0) translate(-44,-128) translate(44,75) rotate(0,0,0)"><text fill="" stroke="none" font-family="helvetica" font-size="8pt" font-style="normal" font-weight="normal" text-decoration="normal" x="0" y="0" text-anchor="end" dominant-baseline="central">0.2</text><g transform="rotate(0,0,0) translate(-44,-75) translate(44,21) rotate(0,0,0)"><text fill="" stroke="none" font-family="helvetica" font-size="8pt" font-style="normal" font-weight="normal" text-decoration="normal" x="0" y="0" text-anchor="end" dominant-baseline="central">0.25</text><g transform="rotate(0,0,0) translate(-44,-21) translate(15,150) rotate(-90,0,0)"><text fill="" stroke="none" font-family="helvetica" font-size="10pt" font-style="italic" font-weight="normal" text-decoration="normal" x="0" y="0" text-anchor="middle" dominant-baseline="alphabetic">Harmonic Centrality</text><g transform="rotate(90,0,0) translate(-15,-150)"/></g></g></g></g></g></g></g></g></g></g></g></svg>