<svg version="1.1" xmlns="http://www.w3.org/2000/svg" xmlns:xlink="http://www.w3.org/1999/xlink" width="600" height="300" style="width: 600px; height: 300px;"><defs><clipPath id="EZMdhseDVHou"><path fill="none" stroke="none" d=" M 55 10 L 570 10 L 570 290 L 55 290 L 55 10 Z"/></clipPath><clipPath id="TXlbTTiIQsnz"><path fill="none" stroke="none" d=" M 55 10 L 570 10 L 570 290 L 55 290 L 55 10 Z"/></clipPath><clipPath id="PgTypFbMutrI"><path fill="none" stroke="none" d=" M 55 10 L 570 10 L 570 290 L 55 290 L 55 10 Z"/></clipPath></defs><g><g transform="scale(1,1) translate(0.5,0.5)"><rect fill="#FFFFFF" stroke="none" x="0" y="0" width="600" height="300"/><g><rect fill="none" stroke="#e5e5e5" x="55" y="10" width="515" height="280" stroke-linejoin="bevel" stroke-miterlimit="10"/></g><g clip-path="url(#EZMdhseDVHou)"><g><g/></g></g><g clip-path="url(#TXlbTTiIQsnz)"><g><g/></g></g><g clip-path="url(#PgTypFbMutrI)"><g><g><path fill="none" stroke="none"/><path fill="#009F4F" stroke="none" paint-order="stroke fill markers" d=" M 55.858333333333334 188.1818181818182 L 62.724999999999994 188.1818181818182 L 62.724999999999994 290 L 55.858333333333334 290 L 55.858333333333334 188.1818181818182 Z"/><path fill="none" stroke="black" paint-order="fill stroke markers" d=" M 55.858333333333334 188.1818181818182 L 62.724999999999994 188.1818181818182 L 62.724999999999994 290 L 55.858333333333334 290 L 55.858333333333334 188.1818181818182 Z" stroke-linejoin="bevel" stroke-miterlimit="10"/><path fill="#009F4F" stroke="none" paint-order="stroke fill markers" d=" M 64.44166666666666 188.1818181818182 L 71.30833333333334 188.1818181818182 L 71.30833333333334 290 L 64.44166666666666 290 L 64.44166666666666 188.1818181818182 Z"/><path fill="none" stroke="black" paint-order="fill stroke markers" d=" M 64.44166666666666 188.1818181818182 L 71.30833333333334 188.1818181818182 L 71.30833333333334 290 L 64.44166666666666 290 L 64.44166666666666 188.1818181818182 Z" stroke-linejoin="bevel" stroke-miterlimit="10"/><path fill="#009F4F" stroke="none" paint-order="stroke fill markers" d=" M 73.025 188.1818181818182 L 79.89166666666668 188.1818181818182 L 79.89166666666668 290 L 73.025 290 L 73.025 188.1818181818182 Z"/><path fill="none" stroke="black" paint-order="fill stroke markers" d=" M 73.025 188.1818181818182 L 79.89166666666668 188.1818181818182 L 79.89166666666668 290 L 73.025 290 L 73.025 188.1818181818182 Z" stroke-linejoin="bevel" stroke-miterlimit="10"/><path fill="#009F4F" stroke="none" paint-order="stroke fill markers" d=" M 81.60833333333335 188.1818181818182 L 88.475 188.1818181818182 L 88.475 290 L 81.60833333333335 290 L 81.60833333333335 188.1818181818182 Z"/><path fill="none" stroke="black" paint-order="fill stroke markers" d=" M 81.60833333333335 188.1818181818182 L 88.475 188.1818181818182 L 88.475 290 L 81.60833333333335 290 L 81.60833333333335 188.1818181818182 Z" stroke-linejoin="bevel" stroke-miterlimit="10"/><path fill="#009F4F" stroke="none" paint-order="stroke fill markers" d=" M 90.19166666666666 188.1818181818182 L 97.05833333333334 188.1818181818182 L 97.05833333333334 290 L 90.19166666666666 290 L 90.19166666666666 188.1818181818182 Z"/><path fill="none" stroke="black" paint-order="fill stroke markers" d=" M 90.19166666666666 188.1818181818182 L 97.05833333333334 188.1818181818182 L 97.05833333333334 290 L 90.19166666666666 290 L 90.19166666666666 188.1818181818182 Z" stroke-linejoin="bevel" stroke-miterlimit="10"/><path fill="#009F4F" stroke="none" paint-order="stroke fill markers" d=" M 98.775 175.45454545454544 L 105.64166666666668 175.45454545454544 L 105.64166666666668 290 L 98.775 290 L 98.775 175.45454545454544 Z"/><path fill="none" stroke="black" paint-order="fill stroke markers" d=" M 98.775 175.45454545454544 L 105.64166666666668 175.45454545454544 L 105.64166666666668 290 L 98.775 290 L 98.775 175.45454545454544 Z" stroke-linejoin="bevel" stroke-miterlimit="10"/><path fill="#009F4F" stroke="none" paint-order="stroke fill markers" d=" M 107.35833333333333 175.45454545454544 L 114.22500000000001 175.45454545454544 L 114.22500000000001 290 L 107.35833333333333 290 L 107.35833333333333 175.45454545454544 Z"/><path fill="none" stroke="black" paint-order="fill stroke markers" d=" M 107.35833333333333 175.45454545454544 L 114.22500000000001 175.45454545454544 L 114.22500000000001 290 L 107.35833333333333 290 L 107.35833333333333 175.45454545454544 Z" stroke-linejoin="bevel" stroke-miterlimit="10"/><path fill="#009F4F" stroke="none" paint-order="stroke fill markers" d=" M 115.94166666666666 175.45454545454544 L 122.80833333333334 175.45454545454544 L 122.80833333333334 290 L 115.94166666666666 290 L 115.94166666666666 175.45454545454544 Z"/><path fill="none" stroke="black" paint-order="fill stroke markers" d=" M 115.94166666666666 175.45454545454544 L 122.80833333333334 175.45454545454544 L 122.80833333333334 290 L 115.94166666666666 290 L 115.94166666666666 175.45454545454544 Z" stroke-linejoin="bevel" stroke-miterlimit="10"/><path fill="pink" stroke="none" paint-order="stroke fill markers" d=" M 124.525 175.45454545454544 L 131.39166666666668 175.45454545454544 L 131.39166666666668 290 L 124.525 290 L 124.525 175.45454545454544 Z"/><path fill="none" stroke="black" paint-order="fill stroke markers" d=" M 124.525 175.45454545454544 L 131.39166666666668 175.45454545454544 L 131.39166666666668 290 L 124.525 290 L 124.525 175.45454545454544 Z" stroke-linejoin="bevel" stroke-miterlimit="10"/><path fill="#009F4F" stroke="none" paint-order="stroke fill markers" d=" M 133.10833333333335 175.45454545454544 L 139.97500000000002 175.45454545454544 L 139.97500000000002 290 L 133.10833333333335 290 L 133.10833333333335 175.45454545454544 Z"/><path fill="none" stroke="black" paint-order="fill stroke markers" d=" M 133.10833333333335 175.45454545454544 L 139.97500000000002 175.45454545454544 L 139.97500000000002 290 L 133.10833333333335 290 L 133.10833333333335 175.45454545454544 Z" stroke-linejoin="bevel" stroke-miterlimit="10"/><path fill="#009F4F" stroke="none" paint-order="stroke fill markers" d=" M 141.69166666666666 162.72727272727272 L 148.55833333333334 162.72727272727272 L 148.55833333333334 290 L 141.69166666666666 290 L 141.69166666666666 162.72727272727272 Z"/><path fill="none" stroke="black" paint-order="fill stroke markers" d=" M 141.69166666666666 162.72727272727272 L 148.55833333333334 162.72727272727272 L 148.55833333333334 290 L 141.69166666666666 290 L 141.69166666666666 162.72727272727272 Z" stroke-linejoin="bevel" stroke-miterlimit="10"/><path fill="#009F4F" stroke="none" paint-order="stroke fill markers" d=" M 150.275 162.72727272727272 L 157.14166666666668 162.72727272727272 L 157.14166666666668 290 L 150.275 290 L 150.275 162.72727272727272 Z"/><path fill="none" stroke="black" paint-order="fill stroke markers" d=" M 150.275 162.72727272727272 L 157.14166666666668 162.72727272727272 L 157.14166666666668 290 L 150.275 290 L 150.275 162.72727272727272 Z" stroke-linejoin="bevel" stroke-miterlimit="10"/><path fill="#009F4F" stroke="none" paint-order="stroke fill markers" d=" M 158.85833333333335 162.72727272727272 L 165.72500000000002 162.72727272727272 L 165.72500000000002 290 L 158.85833333333335 290 L 158.85833333333335 162.72727272727272 Z"/><path fill="none" stroke="black" paint-order="fill stroke markers" d=" M 158.85833333333335 162.72727272727272 L 165.72500000000002 162.72727272727272 L 165.72500000000002 290 L 158.85833333333335 290 L 158.85833333333335 162.72727272727272 Z" stroke-linejoin="bevel" stroke-miterlimit="10"/><path fill="#009F4F" stroke="none" paint-order="stroke fill markers" d=" M 167.44166666666666 162.72727272727272 L 174.30833333333334 162.72727272727272 L 174.30833333333334 290 L 167.44166666666666 290 L 167.44166666666666 162.72727272727272 Z"/><path fill="none" stroke="black" paint-order="fill stroke markers" d=" M 167.44166666666666 162.72727272727272 L 174.30833333333334 162.72727272727272 L 174.30833333333334 290 L 167.44166666666666 290 L 167.44166666666666 162.72727272727272 Z" stroke-linejoin="bevel" stroke-miterlimit="10"/><path fill="#009F4F" stroke="none" paint-order="stroke fill markers" d=" M 176.025 162.72727272727272 L 182.89166666666668 162.72727272727272 L 182.89166666666668 290 L 176.025 290 L 176.025 162.72727272727272 Z"/><path fill="none" stroke="black" paint-order="fill stroke markers" d=" M 176.025 162.72727272727272 L 182.89166666666668 162.72727272727272 L 182.89166666666668 290 L 176.025 290 L 176.025 162.72727272727272 Z" stroke-linejoin="bevel" stroke-miterlimit="10"/><path fill="#009F4F" stroke="none" paint-order="stroke fill markers" d=" M 184.60833333333335 162.72727272727272 L 191.47500000000002 162.72727272727272 L 191.47500000000002 290 L 184.60833333333335 290 L 184.60833333333335 162.72727272727272 Z"/><path fill="none" stroke="black" paint-order="fill stroke markers" d=" M 184.60833333333335 162.72727272727272 L 191.47500000000002 162.72727272727272 L 191.47500000000002 290 L 184.60833333333335 290 L 184.60833333333335 162.72727272727272 Z" stroke-linejoin="bevel" stroke-miterlimit="10"/><path fill="#009F4F" stroke="none" paint-order="stroke fill markers" d=" M 193.19166666666666 162.72727272727272 L 200.05833333333334 162.72727272727272 L 200.05833333333334 290 L 193.19166666666666 290 L 193.19166666666666 162.72727272727272 Z"/><path fill="none" stroke="black" paint-order="fill stroke markers" d=" M 193.19166666666666 162.72727272727272 L 200.05833333333334 162.72727272727272 L 200.05833333333334 290 L 193.19166666666666 290 L 193.19166666666666 162.72727272727272 Z" stroke-linejoin="bevel" stroke-miterlimit="10"/><path fill="#009F4F" stroke="none" paint-order="stroke fill markers" d=" M 201.77500000000003 162.72727272727272 L 208.64166666666665 162.72727272727272 L 208.64166666666665 290 L 201.77500000000003 290 L 201.77500000000003 162.72727272727272 Z"/><path fill="none" stroke="black" paint-order="fill stroke markers" d=" M 201.77500000000003 162.72727272727272 L 208.64166666666665 162.72727272727272 L 208.64166666666665 290 L 201.77500000000003 290 L 201.77500000000003 162.72727272727272 Z" stroke-linejoin="bevel" stroke-miterlimit="10"/><path fill="#009F4F" stroke="none" paint-order="stroke fill markers" d=" M 210.35833333333335 162.72727272727272 L 217.22500000000002 162.72727272727272 L 217.22500000000002 290 L 210.35833333333335 290 L 210.35833333333335 162.72727272727272 Z"/><path fill="none" stroke="black" paint-order="fill stroke markers" d=" M 210.35833333333335 162.72727272727272 L 217.22500000000002 162.72727272727272 L 217.22500000000002 290 L 210.35833333333335 290 L 210.35833333333335 162.72727272727272 Z" stroke-linejoin="bevel" stroke-miterlimit="10"/><path fill="#009F4F" stroke="none" paint-order="stroke fill markers" d=" M 218.94166666666666 150 L 225.80833333333334 150 L 225.80833333333334 290 L 218.94166666666666 290 L 218.94166666666666 150 Z"/><path fill="none" stroke="black" paint-order="fill stroke markers" d=" M 218.94166666666666 150 L 225.80833333333334 150 L 225.80833333333334 290 L 218.94166666666666 290 L 218.94166666666666 150 Z" stroke-linejoin="bevel" stroke-miterlimit="10"/><path fill="#009F4F" stroke="none" paint-order="stroke fill markers" d=" M 227.52500000000003 150 L 234.39166666666665 150 L 234.39166666666665 290 L 227.52500000000003 290 L 227.52500000000003 150 Z"/><path fill="none" stroke="black" paint-order="fill stroke markers" d=" M 227.52500000000003 150 L 234.39166666666665 150 L 234.39166666666665 290 L 227.52500000000003 290 L 227.52500000000003 150 Z" stroke-linejoin="bevel" stroke-miterlimit="10"/><path fill="#009F4F" stroke="none" paint-order="stroke fill markers" d=" M 236.10833333333335 150 L 242.97500000000002 150 L 242.97500000000002 290 L 236.10833333333335 290 L 236.10833333333335 150 Z"/><path fill="none" stroke="black" paint-order="fill stroke markers" d=" M 236.10833333333335 150 L 242.97500000000002 150 L 242.97500000000002 290 L 236.10833333333335 290 L 236.10833333333335 150 Z" stroke-linejoin="bevel" stroke-miterlimit="10"/><path fill="#009F4F" stroke="none" paint-order="stroke fill markers" d=" M 244.69166666666666 150 L 251.55833333333334 150 L 251.55833333333334 290 L 244.69166666666666 290 L 244.69166666666666 150 Z"/><path fill="none" stroke="black" paint-order="fill stroke markers" d=" M 244.69166666666666 150 L 251.55833333333334 150 L 251.55833333333334 290 L 244.69166666666666 290 L 244.69166666666666 150 Z" stroke-linejoin="bevel" stroke-miterlimit="10"/><path fill="#009F4F" stroke="none" paint-order="stroke fill markers" d=" M 253.27500000000006 150 L 260.14166666666665 150 L 260.14166666666665 290 L 253.27500000000006 290 L 253.27500000000006 150 Z"/><path fill="none" stroke="black" paint-order="fill stroke markers" d=" M 253.27500000000006 150 L 260.14166666666665 150 L 260.14166666666665 290 L 253.27500000000006 290 L 253.27500000000006 150 Z" stroke-linejoin="bevel" stroke-miterlimit="10"/><path fill="#009F4F" stroke="none" paint-order="stroke fill markers" d=" M 261.85833333333335 137.27272727272728 L 268.725 137.27272727272728 L 268.725 290 L 261.85833333333335 290 L 261.85833333333335 137.27272727272728 Z"/><path fill="none" stroke="black" paint-order="fill stroke markers" d=" M 261.85833333333335 137.27272727272728 L 268.725 137.27272727272728 L 268.725 290 L 261.85833333333335 290 L 261.85833333333335 137.27272727272728 Z" stroke-linejoin="bevel" stroke-miterlimit="10"/><path fill="#009F4F" stroke="none" paint-order="stroke fill markers" d=" M 270.4416666666667 137.27272727272728 L 277.3083333333333 137.27272727272728 L 277.3083333333333 290 L 270.4416666666667 290 L 270.4416666666667 137.27272727272728 Z"/><path fill="none" stroke="black" paint-order="fill stroke markers" d=" M 270.4416666666667 137.27272727272728 L 277.3083333333333 137.27272727272728 L 277.3083333333333 290 L 270.4416666666667 290 L 270.4416666666667 137.27272727272728 Z" stroke-linejoin="bevel" stroke-miterlimit="10"/><path fill="#009F4F" stroke="none" paint-order="stroke fill markers" d=" M 279.0250000000001 137.27272727272728 L 285.89166666666665 137.27272727272728 L 285.89166666666665 290 L 279.0250000000001 290 L 279.0250000000001 137.27272727272728 Z"/><path fill="none" stroke="black" paint-order="fill stroke markers" d=" M 279.0250000000001 137.27272727272728 L 285.89166666666665 137.27272727272728 L 285.89166666666665 290 L 279.0250000000001 290 L 279.0250000000001 137.27272727272728 Z" stroke-linejoin="bevel" stroke-miterlimit="10"/><path fill="#009F4F" stroke="none" paint-order="stroke fill markers" d=" M 287.60833333333335 137.27272727272728 L 294.475 137.27272727272728 L 294.475 290 L 287.60833333333335 290 L 287.60833333333335 137.27272727272728 Z"/><path fill="none" stroke="black" paint-order="fill stroke markers" d=" M 287.60833333333335 137.27272727272728 L 294.475 137.27272727272728 L 294.475 290 L 287.60833333333335 290 L 287.60833333333335 137.27272727272728 Z" stroke-linejoin="bevel" stroke-miterlimit="10"/><path fill="#009F4F" stroke="none" paint-order="stroke fill markers" d=" M 296.1916666666667 137.27272727272728 L 303.0583333333333 137.27272727272728 L 303.0583333333333 290 L 296.1916666666667 290 L 296.1916666666667 137.27272727272728 Z"/><path fill="none" stroke="black" paint-order="fill stroke markers" d=" M 296.1916666666667 137.27272727272728 L 303.0583333333333 137.27272727272728 L 303.0583333333333 290 L 296.1916666666667 290 L 296.1916666666667 137.27272727272728 Z" stroke-linejoin="bevel" stroke-miterlimit="10"/><path fill="#009F4F" stroke="none" paint-order="stroke fill markers" d=" M 304.7750000000001 137.27272727272728 L 311.64166666666665 137.27272727272728 L 311.64166666666665 290 L 304.7750000000001 290 L 304.7750000000001 137.27272727272728 Z"/><path fill="none" stroke="black" paint-order="fill stroke markers" d=" M 304.7750000000001 137.27272727272728 L 311.64166666666665 137.27272727272728 L 311.64166666666665 290 L 304.7750000000001 290 L 304.7750000000001 137.27272727272728 Z" stroke-linejoin="bevel" stroke-miterlimit="10"/><path fill="#009F4F" stroke="none" paint-order="stroke fill markers" d=" M 313.35833333333335 137.27272727272728 L 320.225 137.27272727272728 L 320.225 290 L 313.35833333333335 290 L 313.35833333333335 137.27272727272728 Z"/><path fill="none" stroke="black" paint-order="fill stroke markers" d=" M 313.35833333333335 137.27272727272728 L 320.225 137.27272727272728 L 320.225 290 L 313.35833333333335 290 L 313.35833333333335 137.27272727272728 Z" stroke-linejoin="bevel" stroke-miterlimit="10"/><path fill="#009F4F" stroke="none" paint-order="stroke fill markers" d=" M 321.9416666666667 137.27272727272728 L 328.8083333333333 137.27272727272728 L 328.8083333333333 290 L 321.9416666666667 290 L 321.9416666666667 137.27272727272728 Z"/><path fill="none" stroke="black" paint-order="fill stroke markers" d=" M 321.9416666666667 137.27272727272728 L 328.8083333333333 137.27272727272728 L 328.8083333333333 290 L 321.9416666666667 290 L 321.9416666666667 137.27272727272728 Z" stroke-linejoin="bevel" stroke-miterlimit="10"/><path fill="#009F4F" stroke="none" paint-order="stroke fill markers" d=" M 330.5250000000001 137.27272727272728 L 337.39166666666665 137.27272727272728 L 337.39166666666665 290 L 330.5250000000001 290 L 330.5250000000001 137.27272727272728 Z"/><path fill="none" stroke="black" paint-order="fill stroke markers" d=" M 330.5250000000001 137.27272727272728 L 337.39166666666665 137.27272727272728 L 337.39166666666665 290 L 330.5250000000001 290 L 330.5250000000001 137.27272727272728 Z" stroke-linejoin="bevel" stroke-miterlimit="10"/><path fill="#009F4F" stroke="none" paint-order="stroke fill markers" d=" M 339.10833333333335 137.27272727272728 L 345.975 137.27272727272728 L 345.975 290 L 339.10833333333335 290 L 339.10833333333335 137.27272727272728 Z"/><path fill="none" stroke="black" paint-order="fill stroke markers" d=" M 339.10833333333335 137.27272727272728 L 345.975 137.27272727272728 L 345.975 290 L 339.10833333333335 290 L 339.10833333333335 137.27272727272728 Z" stroke-linejoin="bevel" stroke-miterlimit="10"/><path fill="#009F4F" stroke="none" paint-order="stroke fill markers" d=" M 347.6916666666667 124.54545454545453 L 354.5583333333333 124.54545454545453 L 354.5583333333333 290 L 347.6916666666667 290 L 347.6916666666667 124.54545454545453 Z"/><path fill="none" stroke="black" paint-order="fill stroke markers" d=" M 347.6916666666667 124.54545454545453 L 354.5583333333333 124.54545454545453 L 354.5583333333333 290 L 347.6916666666667 290 L 347.6916666666667 124.54545454545453 Z" stroke-linejoin="bevel" stroke-miterlimit="10"/><path fill="#009F4F" stroke="none" paint-order="stroke fill markers" d=" M 356.2750000000001 124.54545454545453 L 363.14166666666665 124.54545454545453 L 363.14166666666665 290 L 356.2750000000001 290 L 356.2750000000001 124.54545454545453 Z"/><path fill="none" stroke="black" paint-order="fill stroke markers" d=" M 356.2750000000001 124.54545454545453 L 363.14166666666665 124.54545454545453 L 363.14166666666665 290 L 356.2750000000001 290 L 356.2750000000001 124.54545454545453 Z" stroke-linejoin="bevel" stroke-miterlimit="10"/><path fill="#009F4F" stroke="none" paint-order="stroke fill markers" d=" M 364.85833333333335 124.54545454545453 L 371.725 124.54545454545453 L 371.725 290 L 364.85833333333335 290 L 364.85833333333335 124.54545454545453 Z"/><path fill="none" stroke="black" paint-order="fill stroke markers" d=" M 364.85833333333335 124.54545454545453 L 371.725 124.54545454545453 L 371.725 290 L 364.85833333333335 290 L 364.85833333333335 124.54545454545453 Z" stroke-linejoin="bevel" stroke-miterlimit="10"/><path fill="#009F4F" stroke="none" paint-order="stroke fill markers" d=" M 373.4416666666667 124.54545454545453 L 380.3083333333333 124.54545454545453 L 380.3083333333333 290 L 373.4416666666667 290 L 373.4416666666667 124.54545454545453 Z"/><path fill="none" stroke="black" paint-order="fill stroke markers" d=" M 373.4416666666667 124.54545454545453 L 380.3083333333333 124.54545454545453 L 380.3083333333333 290 L 373.4416666666667 290 L 373.4416666666667 124.54545454545453 Z" stroke-linejoin="bevel" stroke-miterlimit="10"/><path fill="#009F4F" stroke="none" paint-order="stroke fill markers" d=" M 382.0250000000001 124.54545454545453 L 388.89166666666665 124.54545454545453 L 388.89166666666665 290 L 382.0250000000001 290 L 382.0250000000001 124.54545454545453 Z"/><path fill="none" stroke="black" paint-order="fill stroke markers" d=" M 382.0250000000001 124.54545454545453 L 388.89166666666665 124.54545454545453 L 388.89166666666665 290 L 382.0250000000001 290 L 382.0250000000001 124.54545454545453 Z" stroke-linejoin="bevel" stroke-miterlimit="10"/><path fill="#009F4F" stroke="none" paint-order="stroke fill markers" d=" M 390.60833333333335 124.54545454545453 L 397.475 124.54545454545453 L 397.475 290 L 390.60833333333335 290 L 390.60833333333335 124.54545454545453 Z"/><path fill="none" stroke="black" paint-order="fill stroke markers" d=" M 390.60833333333335 124.54545454545453 L 397.475 124.54545454545453 L 397.475 290 L 390.60833333333335 290 L 390.60833333333335 124.54545454545453 Z" stroke-linejoin="bevel" stroke-miterlimit="10"/><path fill="#009F4F" stroke="none" paint-order="stroke fill markers" d=" M 399.1916666666667 124.54545454545453 L 406.0583333333333 124.54545454545453 L 406.0583333333333 290 L 399.1916666666667 290 L 399.1916666666667 124.54545454545453 Z"/><path fill="none" stroke="black" paint-order="fill stroke markers" d=" M 399.1916666666667 124.54545454545453 L 406.0583333333333 124.54545454545453 L 406.0583333333333 290 L 399.1916666666667 290 L 399.1916666666667 124.54545454545453 Z" stroke-linejoin="bevel" stroke-miterlimit="10"/><path fill="#009F4F" stroke="none" paint-order="stroke fill markers" d=" M 407.7750000000001 124.54545454545453 L 414.64166666666665 124.54545454545453 L 414.64166666666665 290 L 407.7750000000001 290 L 407.7750000000001 124.54545454545453 Z"/><path fill="none" stroke="black" paint-order="fill stroke markers" d=" M 407.7750000000001 124.54545454545453 L 414.64166666666665 124.54545454545453 L 414.64166666666665 290 L 407.7750000000001 290 L 407.7750000000001 124.54545454545453 Z" stroke-linejoin="bevel" stroke-miterlimit="10"/><path fill="#009F4F" stroke="none" paint-order="stroke fill markers" d=" M 416.35833333333335 124.54545454545453 L 423.225 124.54545454545453 L 423.225 290 L 416.35833333333335 290 L 416.35833333333335 124.54545454545453 Z"/><path fill="none" stroke="black" paint-order="fill stroke markers" d=" M 416.35833333333335 124.54545454545453 L 423.225 124.54545454545453 L 423.225 290 L 416.35833333333335 290 L 416.35833333333335 124.54545454545453 Z" stroke-linejoin="bevel" stroke-miterlimit="10"/><path fill="#009F4F" stroke="none" paint-order="stroke fill markers" d=" M 424.9416666666667 124.54545454545453 L 431.8083333333333 124.54545454545453 L 431.8083333333333 290 L 424.9416666666667 290 L 424.9416666666667 124.54545454545453 Z"/><path fill="none" stroke="black" paint-order="fill stroke markers" d=" M 424.9416666666667 124.54545454545453 L 431.8083333333333 124.54545454545453 L 431.8083333333333 290 L 424.9416666666667 290 L 424.9416666666667 124.54545454545453 Z" stroke-linejoin="bevel" stroke-miterlimit="10"/><path fill="#009F4F" stroke="none" paint-order="stroke fill markers" d=" M 433.52500000000003 111.81818181818178 L 440.3916666666667 111.81818181818178 L 440.3916666666667 290 L 433.52500000000003 290 L 433.52500000000003 111.81818181818178 Z"/><path fill="none" stroke="black" paint-order="fill stroke markers" d=" M 433.52500000000003 111.81818181818178 L 440.3916666666667 111.81818181818178 L 440.3916666666667 290 L 433.52500000000003 290 L 433.52500000000003 111.81818181818178 Z" stroke-linejoin="bevel" stroke-miterlimit="10"/><path fill="#009F4F" stroke="none" paint-order="stroke fill markers" d=" M 442.10833333333335 111.81818181818178 L 448.975 111.81818181818178 L 448.975 290 L 442.10833333333335 290 L 442.10833333333335 111.81818181818178 Z"/><path fill="none" stroke="black" paint-order="fill stroke markers" d=" M 442.10833333333335 111.81818181818178 L 448.975 111.81818181818178 L 448.975 290 L 442.10833333333335 290 L 442.10833333333335 111.81818181818178 Z" stroke-linejoin="bevel" stroke-miterlimit="10"/><path fill="#009F4F" stroke="none" paint-order="stroke fill markers" d=" M 450.6916666666667 111.81818181818178 L 457.5583333333333 111.81818181818178 L 457.5583333333333 290 L 450.6916666666667 290 L 450.6916666666667 111.81818181818178 Z"/><path fill="none" stroke="black" paint-order="fill stroke markers" d=" M 450.6916666666667 111.81818181818178 L 457.5583333333333 111.81818181818178 L 457.5583333333333 290 L 450.6916666666667 290 L 450.6916666666667 111.81818181818178 Z" stroke-linejoin="bevel" stroke-miterlimit="10"/><path fill="#009F4F" stroke="none" paint-order="stroke fill markers" d=" M 459.27500000000003 111.81818181818178 L 466.1416666666667 111.81818181818178 L 466.1416666666667 290 L 459.27500000000003 290 L 459.27500000000003 111.81818181818178 Z"/><path fill="none" stroke="black" paint-order="fill stroke markers" d=" M 459.27500000000003 111.81818181818178 L 466.1416666666667 111.81818181818178 L 466.1416666666667 290 L 459.27500000000003 290 L 459.27500000000003 111.81818181818178 Z" stroke-linejoin="bevel" stroke-miterlimit="10"/><path fill="#009F4F" stroke="none" paint-order="stroke fill markers" d=" M 467.85833333333335 99.0909090909091 L 474.725 99.0909090909091 L 474.725 290 L 467.85833333333335 290 L 467.85833333333335 99.0909090909091 Z"/><path fill="none" stroke="black" paint-order="fill stroke markers" d=" M 467.85833333333335 99.0909090909091 L 474.725 99.0909090909091 L 474.725 290 L 467.85833333333335 290 L 467.85833333333335 99.0909090909091 Z" stroke-linejoin="bevel" stroke-miterlimit="10"/><path fill="#009F4F" stroke="none" paint-order="stroke fill markers" d=" M 476.4416666666667 99.0909090909091 L 483.3083333333334 99.0909090909091 L 483.3083333333334 290 L 476.4416666666667 290 L 476.4416666666667 99.0909090909091 Z"/><path fill="none" stroke="black" paint-order="fill stroke markers" d=" M 476.4416666666667 99.0909090909091 L 483.3083333333334 99.0909090909091 L 483.3083333333334 290 L 476.4416666666667 290 L 476.4416666666667 99.0909090909091 Z" stroke-linejoin="bevel" stroke-miterlimit="10"/><path fill="#009F4F" stroke="none" paint-order="stroke fill markers" d=" M 485.02500000000003 86.36363636363635 L 491.8916666666667 86.36363636363635 L 491.8916666666667 290 L 485.02500000000003 290 L 485.02500000000003 86.36363636363635 Z"/><path fill="none" stroke="black" paint-order="fill stroke markers" d=" M 485.02500000000003 86.36363636363635 L 491.8916666666667 86.36363636363635 L 491.8916666666667 290 L 485.02500000000003 290 L 485.02500000000003 86.36363636363635 Z" stroke-linejoin="bevel" stroke-miterlimit="10"/><path fill="#009F4F" stroke="none" paint-order="stroke fill markers" d=" M 493.60833333333335 86.36363636363635 L 500.475 86.36363636363635 L 500.475 290 L 493.60833333333335 290 L 493.60833333333335 86.36363636363635 Z"/><path fill="none" stroke="black" paint-order="fill stroke markers" d=" M 493.60833333333335 86.36363636363635 L 500.475 86.36363636363635 L 500.475 290 L 493.60833333333335 290 L 493.60833333333335 86.36363636363635 Z" stroke-linejoin="bevel" stroke-miterlimit="10"/><path fill="#009F4F" stroke="none" paint-order="stroke fill markers" d=" M 502.1916666666667 86.36363636363635 L 509.0583333333334 86.36363636363635 L 509.0583333333334 290 L 502.1916666666667 290 L 502.1916666666667 86.36363636363635 Z"/><path fill="none" stroke="black" paint-order="fill stroke markers" d=" M 502.1916666666667 86.36363636363635 L 509.0583333333334 86.36363636363635 L 509.0583333333334 290 L 502.1916666666667 290 L 502.1916666666667 86.36363636363635 Z" stroke-linejoin="bevel" stroke-miterlimit="10"/><path fill="#009F4F" stroke="none" paint-order="stroke fill markers" d=" M 510.7750000000001 73.63636363636363 L 517.6416666666667 73.63636363636363 L 517.6416666666667 290 L 510.7750000000001 290 L 510.7750000000001 73.63636363636363 Z"/><path fill="none" stroke="black" paint-order="fill stroke markers" d=" M 510.7750000000001 73.63636363636363 L 517.6416666666667 73.63636363636363 L 517.6416666666667 290 L 510.7750000000001 290 L 510.7750000000001 73.63636363636363 Z" stroke-linejoin="bevel" stroke-miterlimit="10"/><path fill="#009F4F" stroke="none" paint-order="stroke fill markers" d=" M 519.3583333333333 73.63636363636363 L 526.2250000000001 73.63636363636363 L 526.2250000000001 290 L 519.3583333333333 290 L 519.3583333333333 73.63636363636363 Z"/><path fill="none" stroke="black" paint-order="fill stroke markers" d=" M 519.3583333333333 73.63636363636363 L 526.2250000000001 73.63636363636363 L 526.2250000000001 290 L 519.3583333333333 290 L 519.3583333333333 73.63636363636363 Z" stroke-linejoin="bevel" stroke-miterlimit="10"/><path fill="#009F4F" stroke="none" paint-order="stroke fill markers" d=" M 527.9416666666666 73.63636363636363 L 534.8083333333334 73.63636363636363 L 534.8083333333334 290 L 527.9416666666666 290 L 527.9416666666666 73.63636363636363 Z"/><path fill="none" stroke="black" paint-order="fill stroke markers" d=" M 527.9416666666666 73.63636363636363 L 534.8083333333334 73.63636363636363 L 534.8083333333334 290 L 527.9416666666666 290 L 527.9416666666666 73.63636363636363 Z" stroke-linejoin="bevel" stroke-miterlimit="10"/><path fill="#009F4F" stroke="none" paint-order="stroke fill markers" d=" M 536.5250000000001 48.18181818181819 L 543.3916666666667 48.18181818181819 L 543.3916666666667 290 L 536.5250000000001 290 L 536.5250000000001 48.18181818181819 Z"/><path fill="none" stroke="black" paint-order="fill stroke markers" d=" M 536.5250000000001 48.18181818181819 L 543.3916666666667 48.18181818181819 L 543.3916666666667 290 L 536.5250000000001 290 L 536.5250000000001 48.18181818181819 Z" stroke-linejoin="bevel" stroke-miterlimit="10"/><path fill="#009F4F" stroke="none" paint-order="stroke fill markers" d=" M 545.1083333333333 22.727272727272748 L 551.9750000000001 22.727272727272748 L 551.9750000000001 290 L 545.1083333333333 290 L 545.1083333333333 22.727272727272748 Z"/><path fill="none" stroke="black" paint-order="fill stroke markers" d=" M 545.1083333333333 22.727272727272748 L 551.9750000000001 22.727272727272748 L 551.9750000000001 290 L 545.1083333333333 290 L 545.1083333333333 22.727272727272748 Z" stroke-linejoin="bevel" stroke-miterlimit="10"/><path fill="#009F4F" stroke="none" paint-order="stroke fill markers" d=" M 553.6916666666666 22.727272727272748 L 560.5583333333334 22.727272727272748 L 560.5583333333334 290 L 553.6916666666666 290 L 553.6916666666666 22.727272727272748 Z"/><path fill="none" stroke="black" paint-order="fill stroke markers" d=" M 553.6916666666666 22.727272727272748 L 560.5583333333334 22.727272727272748 L 560.5583333333334 290 L 553.6916666666666 290 L 553.6916666666666 22.727272727272748 Z" stroke-linejoin="bevel" stroke-miterlimit="10"/><path fill="#009F4F" stroke="none" paint-order="stroke fill markers" d=" M 562.2750000000001 10 L 569.1416666666667 10 L 569.1416666666667 290 L 562.2750000000001 290 L 562.2750000000001 10 Z"/><path fill="none" stroke="black" paint-order="fill stroke markers" d=" M 562.2750000000001 10 L 569.1416666666667 10 L 569.1416666666667 290 L 562.2750000000001 290 L 562.2750000000001 10 Z" stroke-linejoin="bevel" stroke-miterlimit="10"/></g></g></g><g/><g/><g/><g><g fill="#444444"><path fill="none" stroke="black" paint-order="fill stroke markers" d=" M 55 290 L 55 10" stroke-linejoin="bevel" stroke-miterlimit="10"/><path fill="none" stroke="black" paint-order="fill stroke markers" d=" M 49 290 L 57 290" stroke-linejoin="bevel" stroke-miterlimit="10"/><path fill="none" stroke="black" paint-order="fill stroke markers" d=" M 49 226 L 57 226" stroke-linejoin="bevel" stroke-miterlimit="10"/><path fill="none" stroke="black" paint-order="fill stroke markers" d=" M 49 163 L 57 163" stroke-linejoin="bevel" stroke-miterlimit="10"/><path fill="none" stroke="black" paint-order="fill stroke markers" d=" M 49 99 L 57 99" stroke-linejoin="bevel" stroke-miterlimit="10"/><path fill="none" stroke="black" paint-order="fill stroke markers" d=" M 49 35 L 57 35" stroke-linejoin="bevel" stroke-miterlimit="10"/><path fill="none" stroke="black" paint-order="fill stroke markers" d=" M 51 290 L 55 290" stroke-linejoin="bevel" stroke-miterlimit="10"/><path fill="none" stroke="black" paint-order="fill stroke markers" d=" M 51 277 L 55 277" stroke-linejoin="bevel" stroke-miterlimit="10"/><path fill="none" stroke="black" paint-order="fill stroke markers" d=" M 51 265 L 55 265" stroke-linejoin="bevel" stroke-miterlimit="10"/><path fill="none" stroke="black" paint-order="fill stroke markers" d=" M 51 252 L 55 252" stroke-linejoin="bevel" stroke-miterlimit="10"/><path fill="none" stroke="black" paint-order="fill stroke markers" d=" M 51 239 L 55 239" stroke-linejoin="bevel" stroke-miterlimit="10"/><path fill="none" stroke="black" paint-order="fill stroke markers" d=" M 51 226 L 55 226" stroke-linejoin="bevel" stroke-miterlimit="10"/><path fill="none" stroke="black" paint-order="fill stroke markers" d=" M 51 214 L 55 214" stroke-linejoin="bevel" stroke-miterlimit="10"/><path fill="none" stroke="black" paint-order="fill stroke markers" d=" M 51 201 L 55 201" stroke-linejoin="bevel" stroke-miterlimit="10"/><path fill="none" stroke="black" paint-order="fill stroke markers" d=" M 51 188 L 55 188" stroke-linejoin="bevel" stroke-miterlimit="10"/><path fill="none" stroke="black" paint-order="fill stroke markers" d=" M 51 175 L 55 175" stroke-linejoin="bevel" stroke-miterlimit="10"/><path fill="none" stroke="black" paint-order="fill stroke markers" d=" M 51 163 L 55 163" stroke-linejoin="bevel" stroke-miterlimit="10"/><path fill="none" stroke="black" paint-order="fill stroke markers" d=" M 51 150 L 55 150" stroke-linejoin="bevel" stroke-miterlimit="10"/><path fill="none" stroke="black" paint-order="fill stroke markers" d=" M 51 137 L 55 137" stroke-linejoin="bevel" stroke-miterlimit="10"/><path fill="none" stroke="black" paint-order="fill stroke markers" d=" M 51 125 L 55 125" stroke-linejoin="bevel" stroke-miterlimit="10"/><path fill="none" stroke="black" paint-order="fill stroke markers" d=" M 51 112 L 55 112" stroke-linejoin="bevel" stroke-miterlimit="10"/><path fill="none" stroke="black" paint-order="fill stroke markers" d=" M 51 99 L 55 99" stroke-linejoin="bevel" stroke-miterlimit="10"/><path fill="none" stroke="black" paint-order="fill stroke markers" d=" M 51 86 L 55 86" stroke-linejoin="bevel" stroke-miterlimit="10"/><path fill="none" stroke="black" paint-order="fill stroke markers" d=" M 51 74 L 55 74" stroke-linejoin="bevel" stroke-miterlimit="10"/><path fill="none" stroke="black" paint-order="fill stroke markers" d=" M 51 61 L 55 61" stroke-linejoin="bevel" stroke-miterlimit="10"/><path fill="none" stroke="black" paint-order="fill stroke markers" d=" M 51 48 L 55 48" stroke-linejoin="bevel" stroke-miterlimit="10"/><path fill="none" stroke="black" paint-order="fill stroke markers" d=" M 51 35 L 55 35" stroke-linejoin="bevel" stroke-miterlimit="10"/><path fill="none" stroke="black" paint-order="fill stroke markers" d=" M 51 23 L 55 23" stroke-linejoin="bevel" stroke-miterlimit="10"/><path fill="" stroke="black" paint-order="fill stroke markers" d=" M 51 10 L 55 10" stroke-linejoin="bevel" stroke-miterlimit="10"/><g transform="translate(44,290) rotate(0,0,0)"><text fill="" stroke="none" font-family="helvetica" font-size="8pt" font-style="normal" font-weight="normal" text-decoration="normal" x="0" y="0" text-anchor="end" dominant-baseline="central">0</text><g transform="rotate(0,0,0) translate(-44,-290) translate(44,226) rotate(0,0,0)"><text fill="" stroke="none" font-family="helvetica" font-size="8pt" font-style="normal" font-weight="normal" text-decoration="normal" x="0" y="0" text-anchor="end" dominant-baseline="central">0.05</text><g transform="rotate(0,0,0) translate(-44,-226) translate(44,163) rotate(0,0,0)"><text fill="" stroke="none" font-family="helvetica" font-size="8pt" font-style="normal" font-weight="normal" text-decoration="normal" x="0" y="0" text-anchor="end" dominant-baseline="central">0.1</text><g transform="rotate(0,0,0) translate(-44,-163) translate(44,99) rotate(0,0,0)"><text fill="" stroke="none" font-family="helvetica" font-size="8pt" font-style="normal" font-weight="normal" text-decoration="normal" x="0" y="0" text-anchor="end" dominant-baseline="central">0.15</text><g transform="rotate(0,0,0) translate(-44,-99) translate(44,35) rotate(0,0,0)"><text fill="" stroke="none" font-family="helvetica" font-size="8pt" font-style="normal" font-weight="normal" text-decoration="normal" x="0" y="0" text-anchor="end" dominant-baseline="central">0.2</text><g transform="rotate(0,0,0) translate(-44,-35) translate(15,150) rotate(-90,0,0)"><text fill="" stroke="none" font-family="helvetica" font-size="10pt" font-style="italic" font-weight="normal" text-decoration="normal" x="0" y="0" text-anchor="middle" dominant-baseline="alphabetic">Harmonic Centrality</text><g transform="rotate(90,0,0) translate(-15,-150)"/></g></g></g></g></g></g></g></g></g></g></svg>