<?xml version="1.0" encoding="utf-8" standalone="no"?>
<!DOCTYPE svg PUBLIC "-//W3C//DTD SVG 1.1//EN"
  "http://www.w3.org/Graphics/SVG/1.1/DTD/svg11.dtd">
<!-- Created with matplotlib (https://matplotlib.org/) -->
<svg height="394.98635pt" version="1.1" viewBox="0 0 1182.422031 394.98635" width="1182.422031pt" xmlns="http://www.w3.org/2000/svg" xmlns:xlink="http://www.w3.org/1999/xlink">
 <defs>
  <style type="text/css">
*{stroke-linecap:butt;stroke-linejoin:round;}
  </style>
 </defs>
 <g id="figure_1">
  <g id="patch_1">
   <path d="M 0 394.98635 
L 1182.422031 394.98635 
L 1182.422031 0 
L 0 0 
z
" style="fill:#ffffff;"/>
  </g>
  <g id="axes_1">
   <g id="patch_2">
    <path d="M 53.222031 181.817978 
L 381.457325 181.817978 
L 381.457325 21.935625 
L 53.222031 21.935625 
z
" style="fill:#eaeaf2;"/>
   </g>
   <g id="matplotlib.axis_1">
    <g id="xtick_1">
     <g id="line2d_1">
      <path clip-path="url(#pe316ebeaf2)" d="M 105.06704 181.817978 
L 105.06704 21.935625 
" style="fill:none;stroke:#ffffff;stroke-linecap:round;"/>
     </g>
     <g id="text_1">
      <!-- Parmelin Guy (UDC) -->
      <defs>
       <path d="M 7.71875 0 
L 7.71875 71.578125 
L 34.71875 71.578125 
Q 41.84375 71.578125 45.609375 70.90625 
Q 50.875 70.015625 54.4375 67.546875 
Q 58.015625 65.09375 60.1875 60.640625 
Q 62.359375 56.203125 62.359375 50.875 
Q 62.359375 41.75 56.546875 35.421875 
Q 50.734375 29.109375 35.546875 29.109375 
L 17.1875 29.109375 
L 17.1875 0 
z
M 17.1875 37.546875 
L 35.6875 37.546875 
Q 44.875 37.546875 48.734375 40.96875 
Q 52.59375 44.390625 52.59375 50.59375 
Q 52.59375 55.078125 50.3125 58.265625 
Q 48.046875 61.46875 44.34375 62.5 
Q 41.9375 63.140625 35.5 63.140625 
L 17.1875 63.140625 
z
" id="ArialMT-80"/>
       <path d="M 40.4375 6.390625 
Q 35.546875 2.25 31.03125 0.53125 
Q 26.515625 -1.171875 21.34375 -1.171875 
Q 12.796875 -1.171875 8.203125 3 
Q 3.609375 7.171875 3.609375 13.671875 
Q 3.609375 17.484375 5.34375 20.625 
Q 7.078125 23.78125 9.890625 25.6875 
Q 12.703125 27.59375 16.21875 28.5625 
Q 18.796875 29.25 24.03125 29.890625 
Q 34.671875 31.15625 39.703125 32.90625 
Q 39.75 34.71875 39.75 35.203125 
Q 39.75 40.578125 37.25 42.78125 
Q 33.890625 45.75 27.25 45.75 
Q 21.046875 45.75 18.09375 43.578125 
Q 15.140625 41.40625 13.71875 35.890625 
L 5.125 37.0625 
Q 6.296875 42.578125 8.984375 45.96875 
Q 11.671875 49.359375 16.75 51.1875 
Q 21.828125 53.03125 28.515625 53.03125 
Q 35.15625 53.03125 39.296875 51.46875 
Q 43.453125 49.90625 45.40625 47.53125 
Q 47.359375 45.171875 48.140625 41.546875 
Q 48.578125 39.3125 48.578125 33.453125 
L 48.578125 21.734375 
Q 48.578125 9.46875 49.140625 6.21875 
Q 49.703125 2.984375 51.375 0 
L 42.1875 0 
Q 40.828125 2.734375 40.4375 6.390625 
z
M 39.703125 26.03125 
Q 34.90625 24.078125 25.34375 22.703125 
Q 19.921875 21.921875 17.671875 20.9375 
Q 15.4375 19.96875 14.203125 18.09375 
Q 12.984375 16.21875 12.984375 13.921875 
Q 12.984375 10.40625 15.640625 8.0625 
Q 18.3125 5.71875 23.4375 5.71875 
Q 28.515625 5.71875 32.46875 7.9375 
Q 36.421875 10.15625 38.28125 14.015625 
Q 39.703125 17 39.703125 22.796875 
z
" id="ArialMT-97"/>
       <path d="M 6.5 0 
L 6.5 51.859375 
L 14.40625 51.859375 
L 14.40625 44 
Q 17.4375 49.515625 20 51.265625 
Q 22.5625 53.03125 25.640625 53.03125 
Q 30.078125 53.03125 34.671875 50.203125 
L 31.640625 42.046875 
Q 28.421875 43.953125 25.203125 43.953125 
Q 22.3125 43.953125 20.015625 42.21875 
Q 17.71875 40.484375 16.75 37.40625 
Q 15.28125 32.71875 15.28125 27.15625 
L 15.28125 0 
z
" id="ArialMT-114"/>
       <path d="M 6.59375 0 
L 6.59375 51.859375 
L 14.453125 51.859375 
L 14.453125 44.578125 
Q 16.890625 48.390625 20.9375 50.703125 
Q 25 53.03125 30.171875 53.03125 
Q 35.9375 53.03125 39.625 50.640625 
Q 43.3125 48.25 44.828125 43.953125 
Q 50.984375 53.03125 60.84375 53.03125 
Q 68.5625 53.03125 72.703125 48.75 
Q 76.859375 44.484375 76.859375 35.59375 
L 76.859375 0 
L 68.109375 0 
L 68.109375 32.671875 
Q 68.109375 37.9375 67.25 40.25 
Q 66.40625 42.578125 64.15625 43.984375 
Q 61.921875 45.40625 58.890625 45.40625 
Q 53.421875 45.40625 49.796875 41.765625 
Q 46.1875 38.140625 46.1875 30.125 
L 46.1875 0 
L 37.40625 0 
L 37.40625 33.6875 
Q 37.40625 39.546875 35.25 42.46875 
Q 33.109375 45.40625 28.21875 45.40625 
Q 24.515625 45.40625 21.359375 43.453125 
Q 18.21875 41.5 16.796875 37.734375 
Q 15.375 33.984375 15.375 26.90625 
L 15.375 0 
z
" id="ArialMT-109"/>
       <path d="M 42.09375 16.703125 
L 51.171875 15.578125 
Q 49.03125 7.625 43.21875 3.21875 
Q 37.40625 -1.171875 28.375 -1.171875 
Q 17 -1.171875 10.328125 5.828125 
Q 3.65625 12.84375 3.65625 25.484375 
Q 3.65625 38.578125 10.390625 45.796875 
Q 17.140625 53.03125 27.875 53.03125 
Q 38.28125 53.03125 44.875 45.953125 
Q 51.46875 38.875 51.46875 26.03125 
Q 51.46875 25.25 51.421875 23.6875 
L 12.75 23.6875 
Q 13.234375 15.140625 17.578125 10.59375 
Q 21.921875 6.0625 28.421875 6.0625 
Q 33.25 6.0625 36.671875 8.59375 
Q 40.09375 11.140625 42.09375 16.703125 
z
M 13.234375 30.90625 
L 42.1875 30.90625 
Q 41.609375 37.453125 38.875 40.71875 
Q 34.671875 45.796875 27.984375 45.796875 
Q 21.921875 45.796875 17.796875 41.75 
Q 13.671875 37.703125 13.234375 30.90625 
z
" id="ArialMT-101"/>
       <path d="M 6.390625 0 
L 6.390625 71.578125 
L 15.1875 71.578125 
L 15.1875 0 
z
" id="ArialMT-108"/>
       <path d="M 6.640625 61.46875 
L 6.640625 71.578125 
L 15.4375 71.578125 
L 15.4375 61.46875 
z
M 6.640625 0 
L 6.640625 51.859375 
L 15.4375 51.859375 
L 15.4375 0 
z
" id="ArialMT-105"/>
       <path d="M 6.59375 0 
L 6.59375 51.859375 
L 14.5 51.859375 
L 14.5 44.484375 
Q 20.21875 53.03125 31 53.03125 
Q 35.6875 53.03125 39.625 51.34375 
Q 43.5625 49.65625 45.515625 46.921875 
Q 47.46875 44.1875 48.25 40.4375 
Q 48.734375 37.984375 48.734375 31.890625 
L 48.734375 0 
L 39.9375 0 
L 39.9375 31.546875 
Q 39.9375 36.921875 38.90625 39.578125 
Q 37.890625 42.234375 35.28125 43.8125 
Q 32.671875 45.40625 29.15625 45.40625 
Q 23.53125 45.40625 19.453125 41.84375 
Q 15.375 38.28125 15.375 28.328125 
L 15.375 0 
z
" id="ArialMT-110"/>
       <path id="ArialMT-32"/>
       <path d="M 41.21875 28.078125 
L 41.21875 36.46875 
L 71.53125 36.53125 
L 71.53125 9.96875 
Q 64.546875 4.390625 57.125 1.578125 
Q 49.703125 -1.21875 41.890625 -1.21875 
Q 31.34375 -1.21875 22.71875 3.296875 
Q 14.109375 7.8125 9.71875 16.359375 
Q 5.328125 24.90625 5.328125 35.453125 
Q 5.328125 45.90625 9.6875 54.953125 
Q 14.0625 64.015625 22.265625 68.40625 
Q 30.46875 72.796875 41.15625 72.796875 
Q 48.921875 72.796875 55.1875 70.28125 
Q 61.46875 67.78125 65.03125 63.28125 
Q 68.609375 58.796875 70.453125 51.5625 
L 61.921875 49.21875 
Q 60.296875 54.6875 57.90625 57.8125 
Q 55.515625 60.9375 51.0625 62.8125 
Q 46.625 64.703125 41.21875 64.703125 
Q 34.71875 64.703125 29.984375 62.71875 
Q 25.25 60.75 22.34375 57.515625 
Q 19.4375 54.296875 17.828125 50.4375 
Q 15.09375 43.796875 15.09375 36.03125 
Q 15.09375 26.46875 18.390625 20.015625 
Q 21.6875 13.578125 27.984375 10.453125 
Q 34.28125 7.328125 41.359375 7.328125 
Q 47.515625 7.328125 53.375 9.6875 
Q 59.234375 12.0625 62.25 14.75 
L 62.25 28.078125 
z
" id="ArialMT-71"/>
       <path d="M 40.578125 0 
L 40.578125 7.625 
Q 34.515625 -1.171875 24.125 -1.171875 
Q 19.53125 -1.171875 15.546875 0.578125 
Q 11.578125 2.34375 9.640625 5 
Q 7.71875 7.671875 6.9375 11.53125 
Q 6.390625 14.109375 6.390625 19.734375 
L 6.390625 51.859375 
L 15.1875 51.859375 
L 15.1875 23.09375 
Q 15.1875 16.21875 15.71875 13.8125 
Q 16.546875 10.359375 19.234375 8.375 
Q 21.921875 6.390625 25.875 6.390625 
Q 29.828125 6.390625 33.296875 8.421875 
Q 36.765625 10.453125 38.203125 13.9375 
Q 39.65625 17.4375 39.65625 24.078125 
L 39.65625 51.859375 
L 48.4375 51.859375 
L 48.4375 0 
z
" id="ArialMT-117"/>
       <path d="M 6.203125 -19.96875 
L 5.21875 -11.71875 
Q 8.109375 -12.5 10.25 -12.5 
Q 13.1875 -12.5 14.9375 -11.515625 
Q 16.703125 -10.546875 17.828125 -8.796875 
Q 18.65625 -7.46875 20.515625 -2.25 
Q 20.75 -1.515625 21.296875 -0.09375 
L 1.609375 51.859375 
L 11.078125 51.859375 
L 21.875 21.828125 
Q 23.96875 16.109375 25.640625 9.8125 
Q 27.15625 15.875 29.25 21.625 
L 40.328125 51.859375 
L 49.125 51.859375 
L 29.390625 -0.875 
Q 26.21875 -9.421875 24.46875 -12.640625 
Q 22.125 -17 19.09375 -19.015625 
Q 16.0625 -21.046875 11.859375 -21.046875 
Q 9.328125 -21.046875 6.203125 -19.96875 
z
" id="ArialMT-121"/>
       <path d="M 23.390625 -21.046875 
Q 16.109375 -11.859375 11.078125 0.4375 
Q 6.0625 12.75 6.0625 25.921875 
Q 6.0625 37.546875 9.8125 48.1875 
Q 14.203125 60.546875 23.390625 72.796875 
L 29.6875 72.796875 
Q 23.78125 62.640625 21.875 58.296875 
Q 18.890625 51.5625 17.1875 44.234375 
Q 15.09375 35.109375 15.09375 25.875 
Q 15.09375 2.390625 29.6875 -21.046875 
z
" id="ArialMT-40"/>
       <path d="M 54.6875 71.578125 
L 64.15625 71.578125 
L 64.15625 30.21875 
Q 64.15625 19.4375 61.71875 13.078125 
Q 59.28125 6.734375 52.90625 2.75 
Q 46.53125 -1.21875 36.1875 -1.21875 
Q 26.125 -1.21875 19.71875 2.25 
Q 13.328125 5.71875 10.59375 12.28125 
Q 7.859375 18.84375 7.859375 30.21875 
L 7.859375 71.578125 
L 17.328125 71.578125 
L 17.328125 30.28125 
Q 17.328125 20.953125 19.0625 16.53125 
Q 20.796875 12.109375 25.015625 9.71875 
Q 29.25 7.328125 35.359375 7.328125 
Q 45.796875 7.328125 50.234375 12.0625 
Q 54.6875 16.796875 54.6875 30.28125 
z
" id="ArialMT-85"/>
       <path d="M 7.71875 0 
L 7.71875 71.578125 
L 32.375 71.578125 
Q 40.71875 71.578125 45.125 70.5625 
Q 51.265625 69.140625 55.609375 65.4375 
Q 61.28125 60.640625 64.078125 53.1875 
Q 66.890625 45.75 66.890625 36.1875 
Q 66.890625 28.03125 64.984375 21.734375 
Q 63.09375 15.4375 60.109375 11.296875 
Q 57.125 7.171875 53.578125 4.796875 
Q 50.046875 2.4375 45.046875 1.21875 
Q 40.046875 0 33.546875 0 
z
M 17.1875 8.453125 
L 32.46875 8.453125 
Q 39.546875 8.453125 43.578125 9.765625 
Q 47.609375 11.078125 50 13.484375 
Q 53.375 16.84375 55.25 22.53125 
Q 57.125 28.21875 57.125 36.328125 
Q 57.125 47.5625 53.4375 53.59375 
Q 49.75 59.625 44.484375 61.671875 
Q 40.671875 63.140625 32.234375 63.140625 
L 17.1875 63.140625 
z
" id="ArialMT-68"/>
       <path d="M 58.796875 25.09375 
L 68.265625 22.703125 
Q 65.28125 11.03125 57.546875 4.90625 
Q 49.8125 -1.21875 38.625 -1.21875 
Q 27.046875 -1.21875 19.796875 3.484375 
Q 12.546875 8.203125 8.765625 17.140625 
Q 4.984375 26.078125 4.984375 36.328125 
Q 4.984375 47.515625 9.25 55.828125 
Q 13.53125 64.15625 21.40625 68.46875 
Q 29.296875 72.796875 38.765625 72.796875 
Q 49.515625 72.796875 56.828125 67.328125 
Q 64.15625 61.859375 67.046875 51.953125 
L 57.71875 49.75 
Q 55.21875 57.5625 50.484375 61.125 
Q 45.75 64.703125 38.578125 64.703125 
Q 30.328125 64.703125 24.78125 60.734375 
Q 19.234375 56.78125 16.984375 50.109375 
Q 14.75 43.453125 14.75 36.375 
Q 14.75 27.25 17.40625 20.4375 
Q 20.0625 13.625 25.671875 10.25 
Q 31.296875 6.890625 37.84375 6.890625 
Q 45.796875 6.890625 51.3125 11.46875 
Q 56.84375 16.0625 58.796875 25.09375 
z
" id="ArialMT-67"/>
       <path d="M 12.359375 -21.046875 
L 6.0625 -21.046875 
Q 20.65625 2.390625 20.65625 25.875 
Q 20.65625 35.0625 18.5625 44.09375 
Q 16.890625 51.421875 13.921875 58.15625 
Q 12.015625 62.546875 6.0625 72.796875 
L 12.359375 72.796875 
Q 21.53125 60.546875 25.921875 48.1875 
Q 29.6875 37.546875 29.6875 25.921875 
Q 29.6875 12.75 24.625 0.4375 
Q 19.578125 -11.859375 12.359375 -21.046875 
z
" id="ArialMT-41"/>
      </defs>
      <g style="fill:#262626;" transform="translate(99.114342 292.020661)rotate(-80)scale(0.11 -0.11)">
       <use xlink:href="#ArialMT-80"/>
       <use x="66.699219" xlink:href="#ArialMT-97"/>
       <use x="122.314453" xlink:href="#ArialMT-114"/>
       <use x="155.615234" xlink:href="#ArialMT-109"/>
       <use x="238.916016" xlink:href="#ArialMT-101"/>
       <use x="294.53125" xlink:href="#ArialMT-108"/>
       <use x="316.748047" xlink:href="#ArialMT-105"/>
       <use x="338.964844" xlink:href="#ArialMT-110"/>
       <use x="394.580078" xlink:href="#ArialMT-32"/>
       <use x="422.363281" xlink:href="#ArialMT-71"/>
       <use x="500.146484" xlink:href="#ArialMT-117"/>
       <use x="555.761719" xlink:href="#ArialMT-121"/>
       <use x="605.761719" xlink:href="#ArialMT-32"/>
       <use x="633.544922" xlink:href="#ArialMT-40"/>
       <use x="666.845703" xlink:href="#ArialMT-85"/>
       <use x="739.0625" xlink:href="#ArialMT-68"/>
       <use x="811.279297" xlink:href="#ArialMT-67"/>
       <use x="883.496094" xlink:href="#ArialMT-41"/>
      </g>
     </g>
    </g>
    <g id="text_2">
     <!-- Councillors Ranking -->
     <defs>
      <path d="M 3.328125 25.921875 
Q 3.328125 40.328125 11.328125 47.265625 
Q 18.015625 53.03125 27.640625 53.03125 
Q 38.328125 53.03125 45.109375 46.015625 
Q 51.90625 39.015625 51.90625 26.65625 
Q 51.90625 16.65625 48.90625 10.90625 
Q 45.90625 5.171875 40.15625 2 
Q 34.421875 -1.171875 27.640625 -1.171875 
Q 16.75 -1.171875 10.03125 5.8125 
Q 3.328125 12.796875 3.328125 25.921875 
z
M 12.359375 25.921875 
Q 12.359375 15.96875 16.703125 11.015625 
Q 21.046875 6.0625 27.640625 6.0625 
Q 34.1875 6.0625 38.53125 11.03125 
Q 42.875 16.015625 42.875 26.21875 
Q 42.875 35.84375 38.5 40.796875 
Q 34.125 45.75 27.640625 45.75 
Q 21.046875 45.75 16.703125 40.8125 
Q 12.359375 35.890625 12.359375 25.921875 
z
" id="ArialMT-111"/>
      <path d="M 40.4375 19 
L 49.078125 17.875 
Q 47.65625 8.9375 41.8125 3.875 
Q 35.984375 -1.171875 27.484375 -1.171875 
Q 16.84375 -1.171875 10.375 5.78125 
Q 3.90625 12.75 3.90625 25.734375 
Q 3.90625 34.125 6.6875 40.421875 
Q 9.46875 46.734375 15.15625 49.875 
Q 20.84375 53.03125 27.546875 53.03125 
Q 35.984375 53.03125 41.359375 48.75 
Q 46.734375 44.484375 48.25 36.625 
L 39.703125 35.296875 
Q 38.484375 40.53125 35.375 43.15625 
Q 32.28125 45.796875 27.875 45.796875 
Q 21.234375 45.796875 17.078125 41.03125 
Q 12.9375 36.28125 12.9375 25.984375 
Q 12.9375 15.53125 16.9375 10.796875 
Q 20.953125 6.0625 27.390625 6.0625 
Q 32.5625 6.0625 36.03125 9.234375 
Q 39.5 12.40625 40.4375 19 
z
" id="ArialMT-99"/>
      <path d="M 3.078125 15.484375 
L 11.765625 16.84375 
Q 12.5 11.625 15.84375 8.84375 
Q 19.1875 6.0625 25.203125 6.0625 
Q 31.25 6.0625 34.171875 8.515625 
Q 37.109375 10.984375 37.109375 14.3125 
Q 37.109375 17.28125 34.515625 19 
Q 32.71875 20.171875 25.53125 21.96875 
Q 15.875 24.421875 12.140625 26.203125 
Q 8.40625 27.984375 6.46875 31.125 
Q 4.546875 34.28125 4.546875 38.09375 
Q 4.546875 41.546875 6.125 44.5 
Q 7.71875 47.46875 10.453125 49.421875 
Q 12.5 50.921875 16.03125 51.96875 
Q 19.578125 53.03125 23.640625 53.03125 
Q 29.734375 53.03125 34.34375 51.265625 
Q 38.96875 49.515625 41.15625 46.5 
Q 43.359375 43.5 44.1875 38.484375 
L 35.59375 37.3125 
Q 35.015625 41.3125 32.203125 43.546875 
Q 29.390625 45.796875 24.265625 45.796875 
Q 18.21875 45.796875 15.625 43.796875 
Q 13.03125 41.796875 13.03125 39.109375 
Q 13.03125 37.40625 14.109375 36.03125 
Q 15.1875 34.625 17.484375 33.6875 
Q 18.796875 33.203125 25.25 31.453125 
Q 34.578125 28.953125 38.25 27.359375 
Q 41.9375 25.78125 44.03125 22.75 
Q 46.140625 19.734375 46.140625 15.234375 
Q 46.140625 10.84375 43.578125 6.953125 
Q 41.015625 3.078125 36.171875 0.953125 
Q 31.34375 -1.171875 25.25 -1.171875 
Q 15.140625 -1.171875 9.84375 3.03125 
Q 4.546875 7.234375 3.078125 15.484375 
z
" id="ArialMT-115"/>
      <path d="M 7.859375 0 
L 7.859375 71.578125 
L 39.59375 71.578125 
Q 49.171875 71.578125 54.140625 69.640625 
Q 59.125 67.71875 62.109375 62.828125 
Q 65.09375 57.953125 65.09375 52.046875 
Q 65.09375 44.4375 60.15625 39.203125 
Q 55.21875 33.984375 44.921875 32.5625 
Q 48.6875 30.765625 50.640625 29 
Q 54.78125 25.203125 58.5 19.484375 
L 70.953125 0 
L 59.03125 0 
L 49.5625 14.890625 
Q 45.40625 21.34375 42.71875 24.75 
Q 40.046875 28.171875 37.921875 29.53125 
Q 35.796875 30.90625 33.59375 31.453125 
Q 31.984375 31.78125 28.328125 31.78125 
L 17.328125 31.78125 
L 17.328125 0 
z
M 17.328125 39.984375 
L 37.703125 39.984375 
Q 44.1875 39.984375 47.84375 41.328125 
Q 51.515625 42.671875 53.421875 45.625 
Q 55.328125 48.578125 55.328125 52.046875 
Q 55.328125 57.125 51.640625 60.390625 
Q 47.953125 63.671875 39.984375 63.671875 
L 17.328125 63.671875 
z
" id="ArialMT-82"/>
      <path d="M 6.640625 0 
L 6.640625 71.578125 
L 15.4375 71.578125 
L 15.4375 30.765625 
L 36.234375 51.859375 
L 47.609375 51.859375 
L 27.78125 32.625 
L 49.609375 0 
L 38.765625 0 
L 21.625 26.515625 
L 15.4375 20.5625 
L 15.4375 0 
z
" id="ArialMT-107"/>
      <path d="M 4.984375 -4.296875 
L 13.53125 -5.5625 
Q 14.0625 -9.515625 16.5 -11.328125 
Q 19.78125 -13.765625 25.4375 -13.765625 
Q 31.546875 -13.765625 34.859375 -11.328125 
Q 38.1875 -8.890625 39.359375 -4.5 
Q 40.046875 -1.8125 39.984375 6.78125 
Q 34.234375 0 25.640625 0 
Q 14.9375 0 9.078125 7.71875 
Q 3.21875 15.4375 3.21875 26.21875 
Q 3.21875 33.640625 5.90625 39.90625 
Q 8.59375 46.1875 13.6875 49.609375 
Q 18.796875 53.03125 25.6875 53.03125 
Q 34.859375 53.03125 40.828125 45.609375 
L 40.828125 51.859375 
L 48.921875 51.859375 
L 48.921875 7.03125 
Q 48.921875 -5.078125 46.453125 -10.125 
Q 44 -15.1875 38.640625 -18.109375 
Q 33.296875 -21.046875 25.484375 -21.046875 
Q 16.21875 -21.046875 10.5 -16.875 
Q 4.78125 -12.703125 4.984375 -4.296875 
z
M 12.25 26.859375 
Q 12.25 16.65625 16.296875 11.96875 
Q 20.359375 7.28125 26.46875 7.28125 
Q 32.515625 7.28125 36.609375 11.9375 
Q 40.71875 16.609375 40.71875 26.5625 
Q 40.71875 36.078125 36.5 40.90625 
Q 32.28125 45.75 26.3125 45.75 
Q 20.453125 45.75 16.34375 40.984375 
Q 12.25 36.234375 12.25 26.859375 
z
" id="ArialMT-103"/>
     </defs>
     <g style="fill:#262626;" transform="translate(163.983741 305.158309)scale(0.12 -0.12)">
      <use xlink:href="#ArialMT-67"/>
      <use x="72.216797" xlink:href="#ArialMT-111"/>
      <use x="127.832031" xlink:href="#ArialMT-117"/>
      <use x="183.447266" xlink:href="#ArialMT-110"/>
      <use x="239.0625" xlink:href="#ArialMT-99"/>
      <use x="289.0625" xlink:href="#ArialMT-105"/>
      <use x="311.279297" xlink:href="#ArialMT-108"/>
      <use x="333.496094" xlink:href="#ArialMT-108"/>
      <use x="355.712891" xlink:href="#ArialMT-111"/>
      <use x="411.328125" xlink:href="#ArialMT-114"/>
      <use x="444.628906" xlink:href="#ArialMT-115"/>
      <use x="494.628906" xlink:href="#ArialMT-32"/>
      <use x="522.412109" xlink:href="#ArialMT-82"/>
      <use x="594.628906" xlink:href="#ArialMT-97"/>
      <use x="650.244141" xlink:href="#ArialMT-110"/>
      <use x="705.859375" xlink:href="#ArialMT-107"/>
      <use x="755.859375" xlink:href="#ArialMT-105"/>
      <use x="778.076172" xlink:href="#ArialMT-110"/>
      <use x="833.691406" xlink:href="#ArialMT-103"/>
     </g>
    </g>
   </g>
   <g id="matplotlib.axis_2">
    <g id="ytick_1">
     <g id="line2d_2">
      <path clip-path="url(#pe316ebeaf2)" d="M 53.222031 181.817978 
L 381.457325 181.817978 
" style="fill:none;stroke:#ffffff;stroke-linecap:round;"/>
     </g>
     <g id="text_3">
      <!-- 0.08 -->
      <defs>
       <path d="M 4.15625 35.296875 
Q 4.15625 48 6.765625 55.734375 
Q 9.375 63.484375 14.515625 67.671875 
Q 19.671875 71.875 27.484375 71.875 
Q 33.25 71.875 37.59375 69.546875 
Q 41.9375 67.234375 44.765625 62.859375 
Q 47.609375 58.5 49.21875 52.21875 
Q 50.828125 45.953125 50.828125 35.296875 
Q 50.828125 22.703125 48.234375 14.96875 
Q 45.65625 7.234375 40.5 3 
Q 35.359375 -1.21875 27.484375 -1.21875 
Q 17.140625 -1.21875 11.234375 6.203125 
Q 4.15625 15.140625 4.15625 35.296875 
z
M 13.1875 35.296875 
Q 13.1875 17.671875 17.3125 11.828125 
Q 21.4375 6 27.484375 6 
Q 33.546875 6 37.671875 11.859375 
Q 41.796875 17.71875 41.796875 35.296875 
Q 41.796875 52.984375 37.671875 58.78125 
Q 33.546875 64.59375 27.390625 64.59375 
Q 21.34375 64.59375 17.71875 59.46875 
Q 13.1875 52.9375 13.1875 35.296875 
z
" id="ArialMT-48"/>
       <path d="M 9.078125 0 
L 9.078125 10.015625 
L 19.09375 10.015625 
L 19.09375 0 
z
" id="ArialMT-46"/>
       <path d="M 17.671875 38.8125 
Q 12.203125 40.828125 9.5625 44.53125 
Q 6.9375 48.25 6.9375 53.421875 
Q 6.9375 61.234375 12.546875 66.546875 
Q 18.171875 71.875 27.484375 71.875 
Q 36.859375 71.875 42.578125 66.421875 
Q 48.296875 60.984375 48.296875 53.171875 
Q 48.296875 48.1875 45.671875 44.5 
Q 43.0625 40.828125 37.75 38.8125 
Q 44.34375 36.671875 47.78125 31.875 
Q 51.21875 27.09375 51.21875 20.453125 
Q 51.21875 11.28125 44.71875 5.03125 
Q 38.234375 -1.21875 27.640625 -1.21875 
Q 17.046875 -1.21875 10.546875 5.046875 
Q 4.046875 11.328125 4.046875 20.703125 
Q 4.046875 27.6875 7.59375 32.390625 
Q 11.140625 37.109375 17.671875 38.8125 
z
M 15.921875 53.71875 
Q 15.921875 48.640625 19.1875 45.40625 
Q 22.46875 42.1875 27.6875 42.1875 
Q 32.765625 42.1875 36.015625 45.375 
Q 39.265625 48.578125 39.265625 53.21875 
Q 39.265625 58.0625 35.90625 61.359375 
Q 32.5625 64.65625 27.59375 64.65625 
Q 22.5625 64.65625 19.234375 61.421875 
Q 15.921875 58.203125 15.921875 53.71875 
z
M 13.09375 20.65625 
Q 13.09375 16.890625 14.875 13.375 
Q 16.65625 9.859375 20.171875 7.921875 
Q 23.6875 6 27.734375 6 
Q 34.03125 6 38.125 10.046875 
Q 42.234375 14.109375 42.234375 20.359375 
Q 42.234375 26.703125 38.015625 30.859375 
Q 33.796875 35.015625 27.4375 35.015625 
Q 21.234375 35.015625 17.15625 30.90625 
Q 13.09375 26.8125 13.09375 20.65625 
z
" id="ArialMT-56"/>
      </defs>
      <g style="fill:#262626;" transform="translate(22.315 185.754775)scale(0.11 -0.11)">
       <use xlink:href="#ArialMT-48"/>
       <use x="55.615234" xlink:href="#ArialMT-46"/>
       <use x="83.398438" xlink:href="#ArialMT-48"/>
       <use x="139.013672" xlink:href="#ArialMT-56"/>
      </g>
     </g>
    </g>
    <g id="ytick_2">
     <g id="line2d_3">
      <path clip-path="url(#pe316ebeaf2)" d="M 53.222031 158.977642 
L 381.457325 158.977642 
" style="fill:none;stroke:#ffffff;stroke-linecap:round;"/>
     </g>
     <g id="text_4">
      <!-- 0.10 -->
      <defs>
       <path d="M 37.25 0 
L 28.46875 0 
L 28.46875 56 
Q 25.296875 52.984375 20.140625 49.953125 
Q 14.984375 46.921875 10.890625 45.40625 
L 10.890625 53.90625 
Q 18.265625 57.375 23.78125 62.296875 
Q 29.296875 67.234375 31.59375 71.875 
L 37.25 71.875 
z
" id="ArialMT-49"/>
      </defs>
      <g style="fill:#262626;" transform="translate(22.315 162.914439)scale(0.11 -0.11)">
       <use xlink:href="#ArialMT-48"/>
       <use x="55.615234" xlink:href="#ArialMT-46"/>
       <use x="83.398438" xlink:href="#ArialMT-49"/>
       <use x="139.013672" xlink:href="#ArialMT-48"/>
      </g>
     </g>
    </g>
    <g id="ytick_3">
     <g id="line2d_4">
      <path clip-path="url(#pe316ebeaf2)" d="M 53.222031 136.137306 
L 381.457325 136.137306 
" style="fill:none;stroke:#ffffff;stroke-linecap:round;"/>
     </g>
     <g id="text_5">
      <!-- 0.12 -->
      <defs>
       <path d="M 50.34375 8.453125 
L 50.34375 0 
L 3.03125 0 
Q 2.9375 3.171875 4.046875 6.109375 
Q 5.859375 10.9375 9.828125 15.625 
Q 13.8125 20.3125 21.34375 26.46875 
Q 33.015625 36.03125 37.109375 41.625 
Q 41.21875 47.21875 41.21875 52.203125 
Q 41.21875 57.421875 37.46875 61 
Q 33.734375 64.59375 27.734375 64.59375 
Q 21.390625 64.59375 17.578125 60.78125 
Q 13.765625 56.984375 13.71875 50.25 
L 4.6875 51.171875 
Q 5.609375 61.28125 11.65625 66.578125 
Q 17.71875 71.875 27.9375 71.875 
Q 38.234375 71.875 44.234375 66.15625 
Q 50.25 60.453125 50.25 52 
Q 50.25 47.703125 48.484375 43.546875 
Q 46.734375 39.40625 42.65625 34.8125 
Q 38.578125 30.21875 29.109375 22.21875 
Q 21.1875 15.578125 18.9375 13.203125 
Q 16.703125 10.84375 15.234375 8.453125 
z
" id="ArialMT-50"/>
      </defs>
      <g style="fill:#262626;" transform="translate(22.315 140.074103)scale(0.11 -0.11)">
       <use xlink:href="#ArialMT-48"/>
       <use x="55.615234" xlink:href="#ArialMT-46"/>
       <use x="83.398438" xlink:href="#ArialMT-49"/>
       <use x="139.013672" xlink:href="#ArialMT-50"/>
      </g>
     </g>
    </g>
    <g id="ytick_4">
     <g id="line2d_5">
      <path clip-path="url(#pe316ebeaf2)" d="M 53.222031 113.29697 
L 381.457325 113.29697 
" style="fill:none;stroke:#ffffff;stroke-linecap:round;"/>
     </g>
     <g id="text_6">
      <!-- 0.14 -->
      <defs>
       <path d="M 32.328125 0 
L 32.328125 17.140625 
L 1.265625 17.140625 
L 1.265625 25.203125 
L 33.9375 71.578125 
L 41.109375 71.578125 
L 41.109375 25.203125 
L 50.78125 25.203125 
L 50.78125 17.140625 
L 41.109375 17.140625 
L 41.109375 0 
z
M 32.328125 25.203125 
L 32.328125 57.46875 
L 9.90625 25.203125 
z
" id="ArialMT-52"/>
      </defs>
      <g style="fill:#262626;" transform="translate(22.315 117.233766)scale(0.11 -0.11)">
       <use xlink:href="#ArialMT-48"/>
       <use x="55.615234" xlink:href="#ArialMT-46"/>
       <use x="83.398438" xlink:href="#ArialMT-49"/>
       <use x="139.013672" xlink:href="#ArialMT-52"/>
      </g>
     </g>
    </g>
    <g id="ytick_5">
     <g id="line2d_6">
      <path clip-path="url(#pe316ebeaf2)" d="M 53.222031 90.456633 
L 381.457325 90.456633 
" style="fill:none;stroke:#ffffff;stroke-linecap:round;"/>
     </g>
     <g id="text_7">
      <!-- 0.16 -->
      <defs>
       <path d="M 49.75 54.046875 
L 41.015625 53.375 
Q 39.84375 58.546875 37.703125 60.890625 
Q 34.125 64.65625 28.90625 64.65625 
Q 24.703125 64.65625 21.53125 62.3125 
Q 17.390625 59.28125 14.984375 53.46875 
Q 12.59375 47.65625 12.5 36.921875 
Q 15.671875 41.75 20.265625 44.09375 
Q 24.859375 46.4375 29.890625 46.4375 
Q 38.671875 46.4375 44.84375 39.96875 
Q 51.03125 33.5 51.03125 23.25 
Q 51.03125 16.5 48.125 10.71875 
Q 45.21875 4.9375 40.140625 1.859375 
Q 35.0625 -1.21875 28.609375 -1.21875 
Q 17.625 -1.21875 10.6875 6.859375 
Q 3.765625 14.9375 3.765625 33.5 
Q 3.765625 54.25 11.421875 63.671875 
Q 18.109375 71.875 29.4375 71.875 
Q 37.890625 71.875 43.28125 67.140625 
Q 48.6875 62.40625 49.75 54.046875 
z
M 13.875 23.1875 
Q 13.875 18.65625 15.796875 14.5 
Q 17.71875 10.359375 21.1875 8.171875 
Q 24.65625 6 28.46875 6 
Q 34.03125 6 38.03125 10.484375 
Q 42.046875 14.984375 42.046875 22.703125 
Q 42.046875 30.125 38.078125 34.390625 
Q 34.125 38.671875 28.125 38.671875 
Q 22.171875 38.671875 18.015625 34.390625 
Q 13.875 30.125 13.875 23.1875 
z
" id="ArialMT-54"/>
      </defs>
      <g style="fill:#262626;" transform="translate(22.315 94.39343)scale(0.11 -0.11)">
       <use xlink:href="#ArialMT-48"/>
       <use x="55.615234" xlink:href="#ArialMT-46"/>
       <use x="83.398438" xlink:href="#ArialMT-49"/>
       <use x="139.013672" xlink:href="#ArialMT-54"/>
      </g>
     </g>
    </g>
    <g id="ytick_6">
     <g id="line2d_7">
      <path clip-path="url(#pe316ebeaf2)" d="M 53.222031 67.616297 
L 381.457325 67.616297 
" style="fill:none;stroke:#ffffff;stroke-linecap:round;"/>
     </g>
     <g id="text_8">
      <!-- 0.18 -->
      <g style="fill:#262626;" transform="translate(22.315 71.553094)scale(0.11 -0.11)">
       <use xlink:href="#ArialMT-48"/>
       <use x="55.615234" xlink:href="#ArialMT-46"/>
       <use x="83.398438" xlink:href="#ArialMT-49"/>
       <use x="139.013672" xlink:href="#ArialMT-56"/>
      </g>
     </g>
    </g>
    <g id="ytick_7">
     <g id="line2d_8">
      <path clip-path="url(#pe316ebeaf2)" d="M 53.222031 44.775961 
L 381.457325 44.775961 
" style="fill:none;stroke:#ffffff;stroke-linecap:round;"/>
     </g>
     <g id="text_9">
      <!-- 0.20 -->
      <g style="fill:#262626;" transform="translate(22.315 48.712758)scale(0.11 -0.11)">
       <use xlink:href="#ArialMT-48"/>
       <use x="55.615234" xlink:href="#ArialMT-46"/>
       <use x="83.398438" xlink:href="#ArialMT-50"/>
       <use x="139.013672" xlink:href="#ArialMT-48"/>
      </g>
     </g>
    </g>
    <g id="ytick_8">
     <g id="line2d_9">
      <path clip-path="url(#pe316ebeaf2)" d="M 53.222031 21.935625 
L 381.457325 21.935625 
" style="fill:none;stroke:#ffffff;stroke-linecap:round;"/>
     </g>
     <g id="text_10">
      <!-- 0.22 -->
      <g style="fill:#262626;" transform="translate(22.315 25.872422)scale(0.11 -0.11)">
       <use xlink:href="#ArialMT-48"/>
       <use x="55.615234" xlink:href="#ArialMT-46"/>
       <use x="83.398438" xlink:href="#ArialMT-50"/>
       <use x="139.013672" xlink:href="#ArialMT-50"/>
      </g>
     </g>
    </g>
    <g id="text_11">
     <!-- Harmonic centrality -->
     <defs>
      <path d="M 8.015625 0 
L 8.015625 71.578125 
L 17.484375 71.578125 
L 17.484375 42.1875 
L 54.6875 42.1875 
L 54.6875 71.578125 
L 64.15625 71.578125 
L 64.15625 0 
L 54.6875 0 
L 54.6875 33.734375 
L 17.484375 33.734375 
L 17.484375 0 
z
" id="ArialMT-72"/>
      <path d="M 25.78125 7.859375 
L 27.046875 0.09375 
Q 23.34375 -0.6875 20.40625 -0.6875 
Q 15.625 -0.6875 12.984375 0.828125 
Q 10.359375 2.34375 9.28125 4.8125 
Q 8.203125 7.28125 8.203125 15.1875 
L 8.203125 45.015625 
L 1.765625 45.015625 
L 1.765625 51.859375 
L 8.203125 51.859375 
L 8.203125 64.703125 
L 16.9375 69.96875 
L 16.9375 51.859375 
L 25.78125 51.859375 
L 25.78125 45.015625 
L 16.9375 45.015625 
L 16.9375 14.703125 
Q 16.9375 10.9375 17.40625 9.859375 
Q 17.875 8.796875 18.921875 8.15625 
Q 19.96875 7.515625 21.921875 7.515625 
Q 23.390625 7.515625 25.78125 7.859375 
z
" id="ArialMT-116"/>
     </defs>
     <g style="fill:#262626;" transform="translate(15.789375 153.222739)rotate(-90)scale(0.12 -0.12)">
      <use xlink:href="#ArialMT-72"/>
      <use x="72.216797" xlink:href="#ArialMT-97"/>
      <use x="127.832031" xlink:href="#ArialMT-114"/>
      <use x="161.132812" xlink:href="#ArialMT-109"/>
      <use x="244.433594" xlink:href="#ArialMT-111"/>
      <use x="300.048828" xlink:href="#ArialMT-110"/>
      <use x="355.664062" xlink:href="#ArialMT-105"/>
      <use x="377.880859" xlink:href="#ArialMT-99"/>
      <use x="427.880859" xlink:href="#ArialMT-32"/>
      <use x="455.664062" xlink:href="#ArialMT-99"/>
      <use x="505.664062" xlink:href="#ArialMT-101"/>
      <use x="561.279297" xlink:href="#ArialMT-110"/>
      <use x="616.894531" xlink:href="#ArialMT-116"/>
      <use x="644.677734" xlink:href="#ArialMT-114"/>
      <use x="677.978516" xlink:href="#ArialMT-97"/>
      <use x="733.59375" xlink:href="#ArialMT-108"/>
      <use x="755.810547" xlink:href="#ArialMT-105"/>
      <use x="778.027344" xlink:href="#ArialMT-116"/>
      <use x="805.810547" xlink:href="#ArialMT-121"/>
     </g>
    </g>
   </g>
   <g id="patch_3">
    <path clip-path="url(#pe316ebeaf2)" d="M 68.141817 273.179322 
L 72.133733 273.179322 
L 72.133733 181.817978 
L 68.141817 181.817978 
z
" style="fill:#4c72b0;stroke:#ffffff;stroke-linejoin:miter;"/>
   </g>
   <g id="patch_4">
    <path clip-path="url(#pe316ebeaf2)" d="M 73.131712 273.179322 
L 77.123628 273.179322 
L 77.123628 181.817978 
L 73.131712 181.817978 
z
" style="fill:#4c72b0;stroke:#ffffff;stroke-linejoin:miter;"/>
   </g>
   <g id="patch_5">
    <path clip-path="url(#pe316ebeaf2)" d="M 78.121607 273.179322 
L 82.113523 273.179322 
L 82.113523 181.817978 
L 78.121607 181.817978 
z
" style="fill:#4c72b0;stroke:#ffffff;stroke-linejoin:miter;"/>
   </g>
   <g id="patch_6">
    <path clip-path="url(#pe316ebeaf2)" d="M 83.111502 273.179322 
L 87.103418 273.179322 
L 87.103418 181.817978 
L 83.111502 181.817978 
z
" style="fill:#4c72b0;stroke:#ffffff;stroke-linejoin:miter;"/>
   </g>
   <g id="patch_7">
    <path clip-path="url(#pe316ebeaf2)" d="M 88.101397 273.179322 
L 92.093313 273.179322 
L 92.093313 181.817978 
L 88.101397 181.817978 
z
" style="fill:#4c72b0;stroke:#ffffff;stroke-linejoin:miter;"/>
   </g>
   <g id="patch_8">
    <path clip-path="url(#pe316ebeaf2)" d="M 93.091292 273.179322 
L 97.083208 273.179322 
L 97.083208 170.39781 
L 93.091292 170.39781 
z
" style="fill:#4c72b0;stroke:#ffffff;stroke-linejoin:miter;"/>
   </g>
   <g id="patch_9">
    <path clip-path="url(#pe316ebeaf2)" d="M 98.081187 273.179322 
L 102.073103 273.179322 
L 102.073103 170.39781 
L 98.081187 170.39781 
z
" style="fill:#4c72b0;stroke:#ffffff;stroke-linejoin:miter;"/>
   </g>
   <g id="patch_10">
    <path clip-path="url(#pe316ebeaf2)" d="M 103.071082 273.179322 
L 107.062998 273.179322 
L 107.062998 170.39781 
L 103.071082 170.39781 
z
" style="fill:#4c72b0;stroke:#ffffff;stroke-linejoin:miter;"/>
   </g>
   <g id="patch_11">
    <path clip-path="url(#pe316ebeaf2)" d="M 108.060977 273.179322 
L 112.052893 273.179322 
L 112.052893 170.39781 
L 108.060977 170.39781 
z
" style="fill:#4c72b0;stroke:#ffffff;stroke-linejoin:miter;"/>
   </g>
   <g id="patch_12">
    <path clip-path="url(#pe316ebeaf2)" d="M 113.050872 273.179322 
L 117.042788 273.179322 
L 117.042788 170.39781 
L 113.050872 170.39781 
z
" style="fill:#4c72b0;stroke:#ffffff;stroke-linejoin:miter;"/>
   </g>
   <g id="patch_13">
    <path clip-path="url(#pe316ebeaf2)" d="M 118.040768 273.179322 
L 122.032684 273.179322 
L 122.032684 158.977642 
L 118.040768 158.977642 
z
" style="fill:#4c72b0;stroke:#ffffff;stroke-linejoin:miter;"/>
   </g>
   <g id="patch_14">
    <path clip-path="url(#pe316ebeaf2)" d="M 123.030663 273.179322 
L 127.022579 273.179322 
L 127.022579 158.977642 
L 123.030663 158.977642 
z
" style="fill:#4c72b0;stroke:#ffffff;stroke-linejoin:miter;"/>
   </g>
   <g id="patch_15">
    <path clip-path="url(#pe316ebeaf2)" d="M 128.020558 273.179322 
L 132.012474 273.179322 
L 132.012474 158.977642 
L 128.020558 158.977642 
z
" style="fill:#4c72b0;stroke:#ffffff;stroke-linejoin:miter;"/>
   </g>
   <g id="patch_16">
    <path clip-path="url(#pe316ebeaf2)" d="M 133.010453 273.179322 
L 137.002369 273.179322 
L 137.002369 158.977642 
L 133.010453 158.977642 
z
" style="fill:#4c72b0;stroke:#ffffff;stroke-linejoin:miter;"/>
   </g>
   <g id="patch_17">
    <path clip-path="url(#pe316ebeaf2)" d="M 138.000348 273.179322 
L 141.992264 273.179322 
L 141.992264 158.977642 
L 138.000348 158.977642 
z
" style="fill:#4c72b0;stroke:#ffffff;stroke-linejoin:miter;"/>
   </g>
   <g id="patch_18">
    <path clip-path="url(#pe316ebeaf2)" d="M 142.990243 273.179322 
L 146.982159 273.179322 
L 146.982159 158.977642 
L 142.990243 158.977642 
z
" style="fill:#4c72b0;stroke:#ffffff;stroke-linejoin:miter;"/>
   </g>
   <g id="patch_19">
    <path clip-path="url(#pe316ebeaf2)" d="M 147.980138 273.179322 
L 151.972054 273.179322 
L 151.972054 158.977642 
L 147.980138 158.977642 
z
" style="fill:#4c72b0;stroke:#ffffff;stroke-linejoin:miter;"/>
   </g>
   <g id="patch_20">
    <path clip-path="url(#pe316ebeaf2)" d="M 152.970033 273.179322 
L 156.961949 273.179322 
L 156.961949 158.977642 
L 152.970033 158.977642 
z
" style="fill:#4c72b0;stroke:#ffffff;stroke-linejoin:miter;"/>
   </g>
   <g id="patch_21">
    <path clip-path="url(#pe316ebeaf2)" d="M 157.959928 273.179322 
L 161.951844 273.179322 
L 161.951844 158.977642 
L 157.959928 158.977642 
z
" style="fill:#4c72b0;stroke:#ffffff;stroke-linejoin:miter;"/>
   </g>
   <g id="patch_22">
    <path clip-path="url(#pe316ebeaf2)" d="M 162.949823 273.179322 
L 166.941739 273.179322 
L 166.941739 147.557474 
L 162.949823 147.557474 
z
" style="fill:#4c72b0;stroke:#ffffff;stroke-linejoin:miter;"/>
   </g>
   <g id="patch_23">
    <path clip-path="url(#pe316ebeaf2)" d="M 167.939718 273.179322 
L 171.931634 273.179322 
L 171.931634 147.557474 
L 167.939718 147.557474 
z
" style="fill:#4c72b0;stroke:#ffffff;stroke-linejoin:miter;"/>
   </g>
   <g id="patch_24">
    <path clip-path="url(#pe316ebeaf2)" d="M 172.929613 273.179322 
L 176.921529 273.179322 
L 176.921529 147.557474 
L 172.929613 147.557474 
z
" style="fill:#4c72b0;stroke:#ffffff;stroke-linejoin:miter;"/>
   </g>
   <g id="patch_25">
    <path clip-path="url(#pe316ebeaf2)" d="M 177.919508 273.179322 
L 181.911424 273.179322 
L 181.911424 147.557474 
L 177.919508 147.557474 
z
" style="fill:#4c72b0;stroke:#ffffff;stroke-linejoin:miter;"/>
   </g>
   <g id="patch_26">
    <path clip-path="url(#pe316ebeaf2)" d="M 182.909403 273.179322 
L 186.901319 273.179322 
L 186.901319 147.557474 
L 182.909403 147.557474 
z
" style="fill:#4c72b0;stroke:#ffffff;stroke-linejoin:miter;"/>
   </g>
   <g id="patch_27">
    <path clip-path="url(#pe316ebeaf2)" d="M 187.899298 273.179322 
L 191.891214 273.179322 
L 191.891214 136.137306 
L 187.899298 136.137306 
z
" style="fill:#4c72b0;stroke:#ffffff;stroke-linejoin:miter;"/>
   </g>
   <g id="patch_28">
    <path clip-path="url(#pe316ebeaf2)" d="M 192.889193 273.179322 
L 196.881109 273.179322 
L 196.881109 136.137306 
L 192.889193 136.137306 
z
" style="fill:#4c72b0;stroke:#ffffff;stroke-linejoin:miter;"/>
   </g>
   <g id="patch_29">
    <path clip-path="url(#pe316ebeaf2)" d="M 197.879088 273.179322 
L 201.871004 273.179322 
L 201.871004 136.137306 
L 197.879088 136.137306 
z
" style="fill:#4c72b0;stroke:#ffffff;stroke-linejoin:miter;"/>
   </g>
   <g id="patch_30">
    <path clip-path="url(#pe316ebeaf2)" d="M 202.868983 273.179322 
L 206.860899 273.179322 
L 206.860899 136.137306 
L 202.868983 136.137306 
z
" style="fill:#4c72b0;stroke:#ffffff;stroke-linejoin:miter;"/>
   </g>
   <g id="patch_31">
    <path clip-path="url(#pe316ebeaf2)" d="M 207.858878 273.179322 
L 211.850794 273.179322 
L 211.850794 136.137306 
L 207.858878 136.137306 
z
" style="fill:#4c72b0;stroke:#ffffff;stroke-linejoin:miter;"/>
   </g>
   <g id="patch_32">
    <path clip-path="url(#pe316ebeaf2)" d="M 212.848773 273.179322 
L 216.840689 273.179322 
L 216.840689 136.137306 
L 212.848773 136.137306 
z
" style="fill:#4c72b0;stroke:#ffffff;stroke-linejoin:miter;"/>
   </g>
   <g id="patch_33">
    <path clip-path="url(#pe316ebeaf2)" d="M 217.838668 273.179322 
L 221.830584 273.179322 
L 221.830584 136.137306 
L 217.838668 136.137306 
z
" style="fill:#4c72b0;stroke:#ffffff;stroke-linejoin:miter;"/>
   </g>
   <g id="patch_34">
    <path clip-path="url(#pe316ebeaf2)" d="M 222.828563 273.179322 
L 226.820479 273.179322 
L 226.820479 136.137306 
L 222.828563 136.137306 
z
" style="fill:#4c72b0;stroke:#ffffff;stroke-linejoin:miter;"/>
   </g>
   <g id="patch_35">
    <path clip-path="url(#pe316ebeaf2)" d="M 227.818458 273.179322 
L 231.810374 273.179322 
L 231.810374 136.137306 
L 227.818458 136.137306 
z
" style="fill:#4c72b0;stroke:#ffffff;stroke-linejoin:miter;"/>
   </g>
   <g id="patch_36">
    <path clip-path="url(#pe316ebeaf2)" d="M 232.808353 273.179322 
L 236.800269 273.179322 
L 236.800269 136.137306 
L 232.808353 136.137306 
z
" style="fill:#4c72b0;stroke:#ffffff;stroke-linejoin:miter;"/>
   </g>
   <g id="patch_37">
    <path clip-path="url(#pe316ebeaf2)" d="M 237.798248 273.179322 
L 241.790164 273.179322 
L 241.790164 124.717138 
L 237.798248 124.717138 
z
" style="fill:#4c72b0;stroke:#ffffff;stroke-linejoin:miter;"/>
   </g>
   <g id="patch_38">
    <path clip-path="url(#pe316ebeaf2)" d="M 242.788143 273.179322 
L 246.780059 273.179322 
L 246.780059 124.717138 
L 242.788143 124.717138 
z
" style="fill:#4c72b0;stroke:#ffffff;stroke-linejoin:miter;"/>
   </g>
   <g id="patch_39">
    <path clip-path="url(#pe316ebeaf2)" d="M 247.778038 273.179322 
L 251.769954 273.179322 
L 251.769954 124.717138 
L 247.778038 124.717138 
z
" style="fill:#4c72b0;stroke:#ffffff;stroke-linejoin:miter;"/>
   </g>
   <g id="patch_40">
    <path clip-path="url(#pe316ebeaf2)" d="M 252.767933 273.179322 
L 256.759849 273.179322 
L 256.759849 124.717138 
L 252.767933 124.717138 
z
" style="fill:#4c72b0;stroke:#ffffff;stroke-linejoin:miter;"/>
   </g>
   <g id="patch_41">
    <path clip-path="url(#pe316ebeaf2)" d="M 257.757828 273.179322 
L 261.749744 273.179322 
L 261.749744 124.717138 
L 257.757828 124.717138 
z
" style="fill:#4c72b0;stroke:#ffffff;stroke-linejoin:miter;"/>
   </g>
   <g id="patch_42">
    <path clip-path="url(#pe316ebeaf2)" d="M 262.747723 273.179322 
L 266.739639 273.179322 
L 266.739639 124.717138 
L 262.747723 124.717138 
z
" style="fill:#4c72b0;stroke:#ffffff;stroke-linejoin:miter;"/>
   </g>
   <g id="patch_43">
    <path clip-path="url(#pe316ebeaf2)" d="M 267.737618 273.179322 
L 271.729534 273.179322 
L 271.729534 124.717138 
L 267.737618 124.717138 
z
" style="fill:#4c72b0;stroke:#ffffff;stroke-linejoin:miter;"/>
   </g>
   <g id="patch_44">
    <path clip-path="url(#pe316ebeaf2)" d="M 272.727513 273.179322 
L 276.719429 273.179322 
L 276.719429 124.717138 
L 272.727513 124.717138 
z
" style="fill:#4c72b0;stroke:#ffffff;stroke-linejoin:miter;"/>
   </g>
   <g id="patch_45">
    <path clip-path="url(#pe316ebeaf2)" d="M 277.717408 273.179322 
L 281.709324 273.179322 
L 281.709324 124.717138 
L 277.717408 124.717138 
z
" style="fill:#4c72b0;stroke:#ffffff;stroke-linejoin:miter;"/>
   </g>
   <g id="patch_46">
    <path clip-path="url(#pe316ebeaf2)" d="M 282.707303 273.179322 
L 286.699219 273.179322 
L 286.699219 124.717138 
L 282.707303 124.717138 
z
" style="fill:#4c72b0;stroke:#ffffff;stroke-linejoin:miter;"/>
   </g>
   <g id="patch_47">
    <path clip-path="url(#pe316ebeaf2)" d="M 287.697198 273.179322 
L 291.689114 273.179322 
L 291.689114 113.29697 
L 287.697198 113.29697 
z
" style="fill:#4c72b0;stroke:#ffffff;stroke-linejoin:miter;"/>
   </g>
   <g id="patch_48">
    <path clip-path="url(#pe316ebeaf2)" d="M 292.687093 273.179322 
L 296.679009 273.179322 
L 296.679009 113.29697 
L 292.687093 113.29697 
z
" style="fill:#4c72b0;stroke:#ffffff;stroke-linejoin:miter;"/>
   </g>
   <g id="patch_49">
    <path clip-path="url(#pe316ebeaf2)" d="M 297.676988 273.179322 
L 301.668904 273.179322 
L 301.668904 113.29697 
L 297.676988 113.29697 
z
" style="fill:#4c72b0;stroke:#ffffff;stroke-linejoin:miter;"/>
   </g>
   <g id="patch_50">
    <path clip-path="url(#pe316ebeaf2)" d="M 302.666883 273.179322 
L 306.658799 273.179322 
L 306.658799 113.29697 
L 302.666883 113.29697 
z
" style="fill:#4c72b0;stroke:#ffffff;stroke-linejoin:miter;"/>
   </g>
   <g id="patch_51">
    <path clip-path="url(#pe316ebeaf2)" d="M 307.656778 273.179322 
L 311.648694 273.179322 
L 311.648694 101.876801 
L 307.656778 101.876801 
z
" style="fill:#4c72b0;stroke:#ffffff;stroke-linejoin:miter;"/>
   </g>
   <g id="patch_52">
    <path clip-path="url(#pe316ebeaf2)" d="M 312.646673 273.179322 
L 316.638589 273.179322 
L 316.638589 101.876801 
L 312.646673 101.876801 
z
" style="fill:#4c72b0;stroke:#ffffff;stroke-linejoin:miter;"/>
   </g>
   <g id="patch_53">
    <path clip-path="url(#pe316ebeaf2)" d="M 317.636568 273.179322 
L 321.628484 273.179322 
L 321.628484 90.456633 
L 317.636568 90.456633 
z
" style="fill:#4c72b0;stroke:#ffffff;stroke-linejoin:miter;"/>
   </g>
   <g id="patch_54">
    <path clip-path="url(#pe316ebeaf2)" d="M 322.626463 273.179322 
L 326.618379 273.179322 
L 326.618379 90.456633 
L 322.626463 90.456633 
z
" style="fill:#4c72b0;stroke:#ffffff;stroke-linejoin:miter;"/>
   </g>
   <g id="patch_55">
    <path clip-path="url(#pe316ebeaf2)" d="M 327.616358 273.179322 
L 331.608274 273.179322 
L 331.608274 90.456633 
L 327.616358 90.456633 
z
" style="fill:#4c72b0;stroke:#ffffff;stroke-linejoin:miter;"/>
   </g>
   <g id="patch_56">
    <path clip-path="url(#pe316ebeaf2)" d="M 332.606253 273.179322 
L 336.598169 273.179322 
L 336.598169 79.036465 
L 332.606253 79.036465 
z
" style="fill:#4c72b0;stroke:#ffffff;stroke-linejoin:miter;"/>
   </g>
   <g id="patch_57">
    <path clip-path="url(#pe316ebeaf2)" d="M 337.596148 273.179322 
L 341.588064 273.179322 
L 341.588064 79.036465 
L 337.596148 79.036465 
z
" style="fill:#4c72b0;stroke:#ffffff;stroke-linejoin:miter;"/>
   </g>
   <g id="patch_58">
    <path clip-path="url(#pe316ebeaf2)" d="M 342.586043 273.179322 
L 346.577959 273.179322 
L 346.577959 79.036465 
L 342.586043 79.036465 
z
" style="fill:#4c72b0;stroke:#ffffff;stroke-linejoin:miter;"/>
   </g>
   <g id="patch_59">
    <path clip-path="url(#pe316ebeaf2)" d="M 347.575938 273.179322 
L 351.567854 273.179322 
L 351.567854 56.196129 
L 347.575938 56.196129 
z
" style="fill:#4c72b0;stroke:#ffffff;stroke-linejoin:miter;"/>
   </g>
   <g id="patch_60">
    <path clip-path="url(#pe316ebeaf2)" d="M 352.565833 273.179322 
L 356.557749 273.179322 
L 356.557749 33.355793 
L 352.565833 33.355793 
z
" style="fill:#4c72b0;stroke:#ffffff;stroke-linejoin:miter;"/>
   </g>
   <g id="patch_61">
    <path clip-path="url(#pe316ebeaf2)" d="M 357.555728 273.179322 
L 361.547644 273.179322 
L 361.547644 33.355793 
L 357.555728 33.355793 
z
" style="fill:#4c72b0;stroke:#ffffff;stroke-linejoin:miter;"/>
   </g>
   <g id="patch_62">
    <path clip-path="url(#pe316ebeaf2)" d="M 362.545623 273.179322 
L 366.537539 273.179322 
L 366.537539 21.935625 
L 362.545623 21.935625 
z
" style="fill:#4c72b0;stroke:#ffffff;stroke-linejoin:miter;"/>
   </g>
   <g id="patch_63">
    <path d="M 53.222031 181.817978 
L 53.222031 21.935625 
" style="fill:none;stroke:#ffffff;stroke-linecap:square;stroke-linejoin:miter;stroke-width:1.25;"/>
   </g>
   <g id="patch_64">
    <path d="M 381.457325 181.817978 
L 381.457325 21.935625 
" style="fill:none;stroke:#ffffff;stroke-linecap:square;stroke-linejoin:miter;stroke-width:1.25;"/>
   </g>
   <g id="patch_65">
    <path d="M 53.222031 181.817978 
L 381.457325 181.817978 
" style="fill:none;stroke:#ffffff;stroke-linecap:square;stroke-linejoin:miter;stroke-width:1.25;"/>
   </g>
   <g id="patch_66">
    <path d="M 53.222031 21.935625 
L 381.457325 21.935625 
" style="fill:none;stroke:#ffffff;stroke-linecap:square;stroke-linejoin:miter;stroke-width:1.25;"/>
   </g>
   <g id="text_12">
    <!-- UDC Centrality -->
    <g style="fill:#262626;" transform="translate(177.332803 15.935625)scale(0.12 -0.12)">
     <use xlink:href="#ArialMT-85"/>
     <use x="72.216797" xlink:href="#ArialMT-68"/>
     <use x="144.433594" xlink:href="#ArialMT-67"/>
     <use x="216.650391" xlink:href="#ArialMT-32"/>
     <use x="244.433594" xlink:href="#ArialMT-67"/>
     <use x="316.650391" xlink:href="#ArialMT-101"/>
     <use x="372.265625" xlink:href="#ArialMT-110"/>
     <use x="427.880859" xlink:href="#ArialMT-116"/>
     <use x="455.664062" xlink:href="#ArialMT-114"/>
     <use x="488.964844" xlink:href="#ArialMT-97"/>
     <use x="544.580078" xlink:href="#ArialMT-108"/>
     <use x="566.796875" xlink:href="#ArialMT-105"/>
     <use x="589.013672" xlink:href="#ArialMT-116"/>
     <use x="616.796875" xlink:href="#ArialMT-121"/>
    </g>
   </g>
  </g>
  <g id="axes_2">
   <g id="patch_67">
    <path d="M 447.104384 181.817978 
L 775.339678 181.817978 
L 775.339678 21.935625 
L 447.104384 21.935625 
z
" style="fill:#eaeaf2;"/>
   </g>
   <g id="matplotlib.axis_3">
    <g id="xtick_2">
     <g id="line2d_10">
      <path clip-path="url(#p9417b87885)" d="M 499.752365 181.817978 
L 499.752365 21.935625 
" style="fill:none;stroke:#ffffff;stroke-linecap:round;"/>
     </g>
     <g id="text_13">
      <!-- Schneider-Ammann Johann N. (PLR) -->
      <defs>
       <path d="M 4.5 23 
L 13.421875 23.78125 
Q 14.0625 18.40625 16.375 14.96875 
Q 18.703125 11.53125 23.578125 9.40625 
Q 28.46875 7.28125 34.578125 7.28125 
Q 39.984375 7.28125 44.140625 8.890625 
Q 48.296875 10.5 50.3125 13.296875 
Q 52.34375 16.109375 52.34375 19.4375 
Q 52.34375 22.796875 50.390625 25.3125 
Q 48.4375 27.828125 43.953125 29.546875 
Q 41.0625 30.671875 31.203125 33.03125 
Q 21.34375 35.40625 17.390625 37.5 
Q 12.25 40.1875 9.734375 44.15625 
Q 7.234375 48.140625 7.234375 53.078125 
Q 7.234375 58.5 10.296875 63.203125 
Q 13.375 67.921875 19.28125 70.359375 
Q 25.203125 72.796875 32.421875 72.796875 
Q 40.375 72.796875 46.453125 70.234375 
Q 52.546875 67.671875 55.8125 62.6875 
Q 59.078125 57.71875 59.328125 51.421875 
L 50.25 50.734375 
Q 49.515625 57.515625 45.28125 60.984375 
Q 41.0625 64.453125 32.8125 64.453125 
Q 24.21875 64.453125 20.28125 61.296875 
Q 16.359375 58.15625 16.359375 53.71875 
Q 16.359375 49.859375 19.140625 47.359375 
Q 21.875 44.875 33.421875 42.265625 
Q 44.96875 39.65625 49.265625 37.703125 
Q 55.515625 34.8125 58.484375 30.390625 
Q 61.46875 25.984375 61.46875 20.21875 
Q 61.46875 14.5 58.203125 9.4375 
Q 54.9375 4.390625 48.796875 1.578125 
Q 42.671875 -1.21875 35.015625 -1.21875 
Q 25.296875 -1.21875 18.71875 1.609375 
Q 12.15625 4.4375 8.421875 10.125 
Q 4.6875 15.828125 4.5 23 
z
" id="ArialMT-83"/>
       <path d="M 6.59375 0 
L 6.59375 71.578125 
L 15.375 71.578125 
L 15.375 45.90625 
Q 21.53125 53.03125 30.90625 53.03125 
Q 36.671875 53.03125 40.921875 50.75 
Q 45.171875 48.484375 47 44.484375 
Q 48.828125 40.484375 48.828125 32.859375 
L 48.828125 0 
L 40.046875 0 
L 40.046875 32.859375 
Q 40.046875 39.453125 37.1875 42.453125 
Q 34.328125 45.453125 29.109375 45.453125 
Q 25.203125 45.453125 21.75 43.421875 
Q 18.3125 41.40625 16.84375 37.9375 
Q 15.375 34.46875 15.375 28.375 
L 15.375 0 
z
" id="ArialMT-104"/>
       <path d="M 40.234375 0 
L 40.234375 6.546875 
Q 35.296875 -1.171875 25.734375 -1.171875 
Q 19.53125 -1.171875 14.328125 2.25 
Q 9.125 5.671875 6.265625 11.796875 
Q 3.421875 17.921875 3.421875 25.875 
Q 3.421875 33.640625 6 39.96875 
Q 8.59375 46.296875 13.765625 49.65625 
Q 18.953125 53.03125 25.34375 53.03125 
Q 30.03125 53.03125 33.6875 51.046875 
Q 37.359375 49.078125 39.65625 45.90625 
L 39.65625 71.578125 
L 48.390625 71.578125 
L 48.390625 0 
z
M 12.453125 25.875 
Q 12.453125 15.921875 16.640625 10.984375 
Q 20.84375 6.0625 26.5625 6.0625 
Q 32.328125 6.0625 36.34375 10.765625 
Q 40.375 15.484375 40.375 25.140625 
Q 40.375 35.796875 36.265625 40.765625 
Q 32.171875 45.75 26.171875 45.75 
Q 20.3125 45.75 16.375 40.96875 
Q 12.453125 36.1875 12.453125 25.875 
z
" id="ArialMT-100"/>
       <path d="M 3.171875 21.484375 
L 3.171875 30.328125 
L 30.171875 30.328125 
L 30.171875 21.484375 
z
" id="ArialMT-45"/>
       <path d="M -0.140625 0 
L 27.34375 71.578125 
L 37.546875 71.578125 
L 66.84375 0 
L 56.0625 0 
L 47.703125 21.6875 
L 17.78125 21.6875 
L 9.90625 0 
z
M 20.515625 29.390625 
L 44.78125 29.390625 
L 37.3125 49.21875 
Q 33.890625 58.25 32.234375 64.0625 
Q 30.859375 57.171875 28.375 50.390625 
z
" id="ArialMT-65"/>
       <path d="M 2.875 20.3125 
L 11.421875 21.484375 
Q 11.765625 13.28125 14.5 10.25 
Q 17.234375 7.234375 22.078125 7.234375 
Q 25.640625 7.234375 28.21875 8.859375 
Q 30.8125 10.5 31.78125 13.296875 
Q 32.765625 16.109375 32.765625 22.265625 
L 32.765625 71.578125 
L 42.234375 71.578125 
L 42.234375 22.796875 
Q 42.234375 13.8125 40.0625 8.875 
Q 37.890625 3.953125 33.171875 1.359375 
Q 28.46875 -1.21875 22.125 -1.21875 
Q 12.703125 -1.21875 7.6875 4.203125 
Q 2.6875 9.625 2.875 20.3125 
z
" id="ArialMT-74"/>
       <path d="M 7.625 0 
L 7.625 71.578125 
L 17.328125 71.578125 
L 54.9375 15.375 
L 54.9375 71.578125 
L 64.015625 71.578125 
L 64.015625 0 
L 54.296875 0 
L 16.703125 56.25 
L 16.703125 0 
z
" id="ArialMT-78"/>
       <path d="M 7.328125 0 
L 7.328125 71.578125 
L 16.796875 71.578125 
L 16.796875 8.453125 
L 52.046875 8.453125 
L 52.046875 0 
z
" id="ArialMT-76"/>
      </defs>
      <g style="fill:#262626;" transform="translate(486.737558 372.123077)rotate(-80)scale(0.11 -0.11)">
       <use xlink:href="#ArialMT-83"/>
       <use x="66.699219" xlink:href="#ArialMT-99"/>
       <use x="116.699219" xlink:href="#ArialMT-104"/>
       <use x="172.314453" xlink:href="#ArialMT-110"/>
       <use x="227.929688" xlink:href="#ArialMT-101"/>
       <use x="283.544922" xlink:href="#ArialMT-105"/>
       <use x="305.761719" xlink:href="#ArialMT-100"/>
       <use x="361.376953" xlink:href="#ArialMT-101"/>
       <use x="416.992188" xlink:href="#ArialMT-114"/>
       <use x="450.292969" xlink:href="#ArialMT-45"/>
       <use x="483.59375" xlink:href="#ArialMT-65"/>
       <use x="550.292969" xlink:href="#ArialMT-109"/>
       <use x="633.59375" xlink:href="#ArialMT-109"/>
       <use x="716.894531" xlink:href="#ArialMT-97"/>
       <use x="772.509766" xlink:href="#ArialMT-110"/>
       <use x="828.125" xlink:href="#ArialMT-110"/>
       <use x="883.740234" xlink:href="#ArialMT-32"/>
       <use x="911.523438" xlink:href="#ArialMT-74"/>
       <use x="961.523438" xlink:href="#ArialMT-111"/>
       <use x="1017.138672" xlink:href="#ArialMT-104"/>
       <use x="1072.753906" xlink:href="#ArialMT-97"/>
       <use x="1128.369141" xlink:href="#ArialMT-110"/>
       <use x="1183.984375" xlink:href="#ArialMT-110"/>
       <use x="1239.599609" xlink:href="#ArialMT-32"/>
       <use x="1267.382812" xlink:href="#ArialMT-78"/>
       <use x="1339.599609" xlink:href="#ArialMT-46"/>
       <use x="1367.382812" xlink:href="#ArialMT-32"/>
       <use x="1395.166016" xlink:href="#ArialMT-40"/>
       <use x="1428.466797" xlink:href="#ArialMT-80"/>
       <use x="1495.166016" xlink:href="#ArialMT-76"/>
       <use x="1550.78125" xlink:href="#ArialMT-82"/>
       <use x="1622.998047" xlink:href="#ArialMT-41"/>
      </g>
     </g>
    </g>
    <g id="xtick_3">
     <g id="line2d_11">
      <path clip-path="url(#p9417b87885)" d="M 679.818749 181.817978 
L 679.818749 21.935625 
" style="fill:none;stroke:#ffffff;stroke-linecap:round;"/>
     </g>
     <g id="text_14">
      <!-- Cassis Ignazio (PLR) -->
      <defs>
       <path d="M 9.328125 0 
L 9.328125 71.578125 
L 18.796875 71.578125 
L 18.796875 0 
z
" id="ArialMT-73"/>
       <path d="M 1.953125 0 
L 1.953125 7.125 
L 34.96875 45.015625 
Q 29.34375 44.734375 25.046875 44.734375 
L 3.90625 44.734375 
L 3.90625 51.859375 
L 46.296875 51.859375 
L 46.296875 46.046875 
L 18.21875 13.140625 
L 12.796875 7.125 
Q 18.703125 7.5625 23.875 7.5625 
L 47.859375 7.5625 
L 47.859375 0 
z
" id="ArialMT-122"/>
      </defs>
      <g style="fill:#262626;" transform="translate(673.652056 294.447905)rotate(-80)scale(0.11 -0.11)">
       <use xlink:href="#ArialMT-67"/>
       <use x="72.216797" xlink:href="#ArialMT-97"/>
       <use x="127.832031" xlink:href="#ArialMT-115"/>
       <use x="177.832031" xlink:href="#ArialMT-115"/>
       <use x="227.832031" xlink:href="#ArialMT-105"/>
       <use x="250.048828" xlink:href="#ArialMT-115"/>
       <use x="300.048828" xlink:href="#ArialMT-32"/>
       <use x="327.832031" xlink:href="#ArialMT-73"/>
       <use x="355.615234" xlink:href="#ArialMT-103"/>
       <use x="411.230469" xlink:href="#ArialMT-110"/>
       <use x="466.845703" xlink:href="#ArialMT-97"/>
       <use x="522.460938" xlink:href="#ArialMT-122"/>
       <use x="572.460938" xlink:href="#ArialMT-105"/>
       <use x="594.677734" xlink:href="#ArialMT-111"/>
       <use x="650.292969" xlink:href="#ArialMT-32"/>
       <use x="678.076172" xlink:href="#ArialMT-40"/>
       <use x="711.376953" xlink:href="#ArialMT-80"/>
       <use x="778.076172" xlink:href="#ArialMT-76"/>
       <use x="833.691406" xlink:href="#ArialMT-82"/>
       <use x="905.908203" xlink:href="#ArialMT-41"/>
      </g>
     </g>
    </g>
    <g id="text_15">
     <!-- Councillors Ranking -->
     <g style="fill:#262626;" transform="translate(557.866094 385.260725)scale(0.12 -0.12)">
      <use xlink:href="#ArialMT-67"/>
      <use x="72.216797" xlink:href="#ArialMT-111"/>
      <use x="127.832031" xlink:href="#ArialMT-117"/>
      <use x="183.447266" xlink:href="#ArialMT-110"/>
      <use x="239.0625" xlink:href="#ArialMT-99"/>
      <use x="289.0625" xlink:href="#ArialMT-105"/>
      <use x="311.279297" xlink:href="#ArialMT-108"/>
      <use x="333.496094" xlink:href="#ArialMT-108"/>
      <use x="355.712891" xlink:href="#ArialMT-111"/>
      <use x="411.328125" xlink:href="#ArialMT-114"/>
      <use x="444.628906" xlink:href="#ArialMT-115"/>
      <use x="494.628906" xlink:href="#ArialMT-32"/>
      <use x="522.412109" xlink:href="#ArialMT-82"/>
      <use x="594.628906" xlink:href="#ArialMT-97"/>
      <use x="650.244141" xlink:href="#ArialMT-110"/>
      <use x="705.859375" xlink:href="#ArialMT-107"/>
      <use x="755.859375" xlink:href="#ArialMT-105"/>
      <use x="778.076172" xlink:href="#ArialMT-110"/>
      <use x="833.691406" xlink:href="#ArialMT-103"/>
     </g>
    </g>
   </g>
   <g id="matplotlib.axis_4">
    <g id="ytick_9">
     <g id="line2d_12">
      <path clip-path="url(#p9417b87885)" d="M 447.104384 165.829743 
L 775.339678 165.829743 
" style="fill:none;stroke:#ffffff;stroke-linecap:round;"/>
     </g>
     <g id="text_16">
      <!-- 0.14 -->
      <g style="fill:#262626;" transform="translate(416.197353 169.76654)scale(0.11 -0.11)">
       <use xlink:href="#ArialMT-48"/>
       <use x="55.615234" xlink:href="#ArialMT-46"/>
       <use x="83.398438" xlink:href="#ArialMT-49"/>
       <use x="139.013672" xlink:href="#ArialMT-52"/>
      </g>
     </g>
    </g>
    <g id="ytick_10">
     <g id="line2d_13">
      <path clip-path="url(#p9417b87885)" d="M 447.104384 133.853272 
L 775.339678 133.853272 
" style="fill:none;stroke:#ffffff;stroke-linecap:round;"/>
     </g>
     <g id="text_17">
      <!-- 0.16 -->
      <g style="fill:#262626;" transform="translate(416.197353 137.790069)scale(0.11 -0.11)">
       <use xlink:href="#ArialMT-48"/>
       <use x="55.615234" xlink:href="#ArialMT-46"/>
       <use x="83.398438" xlink:href="#ArialMT-49"/>
       <use x="139.013672" xlink:href="#ArialMT-54"/>
      </g>
     </g>
    </g>
    <g id="ytick_11">
     <g id="line2d_14">
      <path clip-path="url(#p9417b87885)" d="M 447.104384 101.876801 
L 775.339678 101.876801 
" style="fill:none;stroke:#ffffff;stroke-linecap:round;"/>
     </g>
     <g id="text_18">
      <!-- 0.18 -->
      <g style="fill:#262626;" transform="translate(416.197353 105.813598)scale(0.11 -0.11)">
       <use xlink:href="#ArialMT-48"/>
       <use x="55.615234" xlink:href="#ArialMT-46"/>
       <use x="83.398438" xlink:href="#ArialMT-49"/>
       <use x="139.013672" xlink:href="#ArialMT-56"/>
      </g>
     </g>
    </g>
    <g id="ytick_12">
     <g id="line2d_15">
      <path clip-path="url(#p9417b87885)" d="M 447.104384 69.900331 
L 775.339678 69.900331 
" style="fill:none;stroke:#ffffff;stroke-linecap:round;"/>
     </g>
     <g id="text_19">
      <!-- 0.20 -->
      <g style="fill:#262626;" transform="translate(416.197353 73.837128)scale(0.11 -0.11)">
       <use xlink:href="#ArialMT-48"/>
       <use x="55.615234" xlink:href="#ArialMT-46"/>
       <use x="83.398438" xlink:href="#ArialMT-50"/>
       <use x="139.013672" xlink:href="#ArialMT-48"/>
      </g>
     </g>
    </g>
    <g id="ytick_13">
     <g id="line2d_16">
      <path clip-path="url(#p9417b87885)" d="M 447.104384 37.92386 
L 775.339678 37.92386 
" style="fill:none;stroke:#ffffff;stroke-linecap:round;"/>
     </g>
     <g id="text_20">
      <!-- 0.22 -->
      <g style="fill:#262626;" transform="translate(416.197353 41.860657)scale(0.11 -0.11)">
       <use xlink:href="#ArialMT-48"/>
       <use x="55.615234" xlink:href="#ArialMT-46"/>
       <use x="83.398438" xlink:href="#ArialMT-50"/>
       <use x="139.013672" xlink:href="#ArialMT-50"/>
      </g>
     </g>
    </g>
    <g id="text_21">
     <!-- Harmonic centrality -->
     <g style="fill:#262626;" transform="translate(409.671728 153.222739)rotate(-90)scale(0.12 -0.12)">
      <use xlink:href="#ArialMT-72"/>
      <use x="72.216797" xlink:href="#ArialMT-97"/>
      <use x="127.832031" xlink:href="#ArialMT-114"/>
      <use x="161.132812" xlink:href="#ArialMT-109"/>
      <use x="244.433594" xlink:href="#ArialMT-111"/>
      <use x="300.048828" xlink:href="#ArialMT-110"/>
      <use x="355.664062" xlink:href="#ArialMT-105"/>
      <use x="377.880859" xlink:href="#ArialMT-99"/>
      <use x="427.880859" xlink:href="#ArialMT-32"/>
      <use x="455.664062" xlink:href="#ArialMT-99"/>
      <use x="505.664062" xlink:href="#ArialMT-101"/>
      <use x="561.279297" xlink:href="#ArialMT-110"/>
      <use x="616.894531" xlink:href="#ArialMT-116"/>
      <use x="644.677734" xlink:href="#ArialMT-114"/>
      <use x="677.978516" xlink:href="#ArialMT-97"/>
      <use x="733.59375" xlink:href="#ArialMT-108"/>
      <use x="755.810547" xlink:href="#ArialMT-105"/>
      <use x="778.027344" xlink:href="#ArialMT-116"/>
      <use x="805.810547" xlink:href="#ArialMT-121"/>
     </g>
    </g>
   </g>
   <g id="patch_68">
    <path clip-path="url(#p9417b87885)" d="M 462.02417 389.665037 
L 468.883842 389.665037 
L 468.883842 181.817978 
L 462.02417 181.817978 
z
" style="fill:#4c72b0;stroke:#ffffff;stroke-linejoin:miter;"/>
   </g>
   <g id="patch_69">
    <path clip-path="url(#p9417b87885)" d="M 470.59876 389.665037 
L 477.458432 389.665037 
L 477.458432 181.817978 
L 470.59876 181.817978 
z
" style="fill:#4c72b0;stroke:#ffffff;stroke-linejoin:miter;"/>
   </g>
   <g id="patch_70">
    <path clip-path="url(#p9417b87885)" d="M 479.17335 389.665037 
L 486.033021 389.665037 
L 486.033021 165.829743 
L 479.17335 165.829743 
z
" style="fill:#4c72b0;stroke:#ffffff;stroke-linejoin:miter;"/>
   </g>
   <g id="patch_71">
    <path clip-path="url(#p9417b87885)" d="M 487.747939 389.665037 
L 494.607611 389.665037 
L 494.607611 165.829743 
L 487.747939 165.829743 
z
" style="fill:#4c72b0;stroke:#ffffff;stroke-linejoin:miter;"/>
   </g>
   <g id="patch_72">
    <path clip-path="url(#p9417b87885)" d="M 496.322529 389.665037 
L 503.182201 389.665037 
L 503.182201 165.829743 
L 496.322529 165.829743 
z
" style="fill:#4c72b0;stroke:#ffffff;stroke-linejoin:miter;"/>
   </g>
   <g id="patch_73">
    <path clip-path="url(#p9417b87885)" d="M 504.897119 389.665037 
L 511.756791 389.665037 
L 511.756791 165.829743 
L 504.897119 165.829743 
z
" style="fill:#4c72b0;stroke:#ffffff;stroke-linejoin:miter;"/>
   </g>
   <g id="patch_74">
    <path clip-path="url(#p9417b87885)" d="M 513.471709 389.665037 
L 520.33138 389.665037 
L 520.33138 165.829743 
L 513.471709 165.829743 
z
" style="fill:#4c72b0;stroke:#ffffff;stroke-linejoin:miter;"/>
   </g>
   <g id="patch_75">
    <path clip-path="url(#p9417b87885)" d="M 522.046298 389.665037 
L 528.90597 389.665037 
L 528.90597 165.829743 
L 522.046298 165.829743 
z
" style="fill:#4c72b0;stroke:#ffffff;stroke-linejoin:miter;"/>
   </g>
   <g id="patch_76">
    <path clip-path="url(#p9417b87885)" d="M 530.620888 389.665037 
L 537.48056 389.665037 
L 537.48056 165.829743 
L 530.620888 165.829743 
z
" style="fill:#4c72b0;stroke:#ffffff;stroke-linejoin:miter;"/>
   </g>
   <g id="patch_77">
    <path clip-path="url(#p9417b87885)" d="M 539.195478 389.665037 
L 546.055149 389.665037 
L 546.055149 165.829743 
L 539.195478 165.829743 
z
" style="fill:#4c72b0;stroke:#ffffff;stroke-linejoin:miter;"/>
   </g>
   <g id="patch_78">
    <path clip-path="url(#p9417b87885)" d="M 547.770067 389.665037 
L 554.629739 389.665037 
L 554.629739 165.829743 
L 547.770067 165.829743 
z
" style="fill:#4c72b0;stroke:#ffffff;stroke-linejoin:miter;"/>
   </g>
   <g id="patch_79">
    <path clip-path="url(#p9417b87885)" d="M 556.344657 389.665037 
L 563.204329 389.665037 
L 563.204329 165.829743 
L 556.344657 165.829743 
z
" style="fill:#4c72b0;stroke:#ffffff;stroke-linejoin:miter;"/>
   </g>
   <g id="patch_80">
    <path clip-path="url(#p9417b87885)" d="M 564.919247 389.665037 
L 571.778919 389.665037 
L 571.778919 149.841507 
L 564.919247 149.841507 
z
" style="fill:#4c72b0;stroke:#ffffff;stroke-linejoin:miter;"/>
   </g>
   <g id="patch_81">
    <path clip-path="url(#p9417b87885)" d="M 573.493837 389.665037 
L 580.353508 389.665037 
L 580.353508 149.841507 
L 573.493837 149.841507 
z
" style="fill:#4c72b0;stroke:#ffffff;stroke-linejoin:miter;"/>
   </g>
   <g id="patch_82">
    <path clip-path="url(#p9417b87885)" d="M 582.068426 389.665037 
L 588.928098 389.665037 
L 588.928098 149.841507 
L 582.068426 149.841507 
z
" style="fill:#4c72b0;stroke:#ffffff;stroke-linejoin:miter;"/>
   </g>
   <g id="patch_83">
    <path clip-path="url(#p9417b87885)" d="M 590.643016 389.665037 
L 597.502688 389.665037 
L 597.502688 133.853272 
L 590.643016 133.853272 
z
" style="fill:#4c72b0;stroke:#ffffff;stroke-linejoin:miter;"/>
   </g>
   <g id="patch_84">
    <path clip-path="url(#p9417b87885)" d="M 599.217606 389.665037 
L 606.077277 389.665037 
L 606.077277 133.853272 
L 599.217606 133.853272 
z
" style="fill:#4c72b0;stroke:#ffffff;stroke-linejoin:miter;"/>
   </g>
   <g id="patch_85">
    <path clip-path="url(#p9417b87885)" d="M 607.792195 389.665037 
L 614.651867 389.665037 
L 614.651867 133.853272 
L 607.792195 133.853272 
z
" style="fill:#4c72b0;stroke:#ffffff;stroke-linejoin:miter;"/>
   </g>
   <g id="patch_86">
    <path clip-path="url(#p9417b87885)" d="M 616.366785 389.665037 
L 623.226457 389.665037 
L 623.226457 133.853272 
L 616.366785 133.853272 
z
" style="fill:#4c72b0;stroke:#ffffff;stroke-linejoin:miter;"/>
   </g>
   <g id="patch_87">
    <path clip-path="url(#p9417b87885)" d="M 624.941375 389.665037 
L 631.801047 389.665037 
L 631.801047 117.865037 
L 624.941375 117.865037 
z
" style="fill:#4c72b0;stroke:#ffffff;stroke-linejoin:miter;"/>
   </g>
   <g id="patch_88">
    <path clip-path="url(#p9417b87885)" d="M 633.515964 389.665037 
L 640.375636 389.665037 
L 640.375636 101.876801 
L 633.515964 101.876801 
z
" style="fill:#4c72b0;stroke:#ffffff;stroke-linejoin:miter;"/>
   </g>
   <g id="patch_89">
    <path clip-path="url(#p9417b87885)" d="M 642.090554 389.665037 
L 648.950226 389.665037 
L 648.950226 101.876801 
L 642.090554 101.876801 
z
" style="fill:#4c72b0;stroke:#ffffff;stroke-linejoin:miter;"/>
   </g>
   <g id="patch_90">
    <path clip-path="url(#p9417b87885)" d="M 650.665144 389.665037 
L 657.524816 389.665037 
L 657.524816 101.876801 
L 650.665144 101.876801 
z
" style="fill:#4c72b0;stroke:#ffffff;stroke-linejoin:miter;"/>
   </g>
   <g id="patch_91">
    <path clip-path="url(#p9417b87885)" d="M 659.239734 389.665037 
L 666.099405 389.665037 
L 666.099405 101.876801 
L 659.239734 101.876801 
z
" style="fill:#4c72b0;stroke:#ffffff;stroke-linejoin:miter;"/>
   </g>
   <g id="patch_92">
    <path clip-path="url(#p9417b87885)" d="M 667.814323 389.665037 
L 674.673995 389.665037 
L 674.673995 101.876801 
L 667.814323 101.876801 
z
" style="fill:#4c72b0;stroke:#ffffff;stroke-linejoin:miter;"/>
   </g>
   <g id="patch_93">
    <path clip-path="url(#p9417b87885)" d="M 676.388913 389.665037 
L 683.248585 389.665037 
L 683.248585 101.876801 
L 676.388913 101.876801 
z
" style="fill:#4c72b0;stroke:#ffffff;stroke-linejoin:miter;"/>
   </g>
   <g id="patch_94">
    <path clip-path="url(#p9417b87885)" d="M 684.963503 389.665037 
L 691.823175 389.665037 
L 691.823175 85.888566 
L 684.963503 85.888566 
z
" style="fill:#4c72b0;stroke:#ffffff;stroke-linejoin:miter;"/>
   </g>
   <g id="patch_95">
    <path clip-path="url(#p9417b87885)" d="M 693.538092 389.665037 
L 700.397764 389.665037 
L 700.397764 85.888566 
L 693.538092 85.888566 
z
" style="fill:#4c72b0;stroke:#ffffff;stroke-linejoin:miter;"/>
   </g>
   <g id="patch_96">
    <path clip-path="url(#p9417b87885)" d="M 702.112682 389.665037 
L 708.972354 389.665037 
L 708.972354 85.888566 
L 702.112682 85.888566 
z
" style="fill:#4c72b0;stroke:#ffffff;stroke-linejoin:miter;"/>
   </g>
   <g id="patch_97">
    <path clip-path="url(#p9417b87885)" d="M 710.687272 389.665037 
L 717.546944 389.665037 
L 717.546944 85.888566 
L 710.687272 85.888566 
z
" style="fill:#4c72b0;stroke:#ffffff;stroke-linejoin:miter;"/>
   </g>
   <g id="patch_98">
    <path clip-path="url(#p9417b87885)" d="M 719.261862 389.665037 
L 726.121533 389.665037 
L 726.121533 69.900331 
L 719.261862 69.900331 
z
" style="fill:#4c72b0;stroke:#ffffff;stroke-linejoin:miter;"/>
   </g>
   <g id="patch_99">
    <path clip-path="url(#p9417b87885)" d="M 727.836451 389.665037 
L 734.696123 389.665037 
L 734.696123 53.912096 
L 727.836451 53.912096 
z
" style="fill:#4c72b0;stroke:#ffffff;stroke-linejoin:miter;"/>
   </g>
   <g id="patch_100">
    <path clip-path="url(#p9417b87885)" d="M 736.411041 389.665037 
L 743.270713 389.665037 
L 743.270713 37.92386 
L 736.411041 37.92386 
z
" style="fill:#4c72b0;stroke:#ffffff;stroke-linejoin:miter;"/>
   </g>
   <g id="patch_101">
    <path clip-path="url(#p9417b87885)" d="M 744.985631 389.665037 
L 751.845303 389.665037 
L 751.845303 37.92386 
L 744.985631 37.92386 
z
" style="fill:#4c72b0;stroke:#ffffff;stroke-linejoin:miter;"/>
   </g>
   <g id="patch_102">
    <path clip-path="url(#p9417b87885)" d="M 753.56022 389.665037 
L 760.419892 389.665037 
L 760.419892 21.935625 
L 753.56022 21.935625 
z
" style="fill:#4c72b0;stroke:#ffffff;stroke-linejoin:miter;"/>
   </g>
   <g id="patch_103">
    <path d="M 447.104384 181.817978 
L 447.104384 21.935625 
" style="fill:none;stroke:#ffffff;stroke-linecap:square;stroke-linejoin:miter;stroke-width:1.25;"/>
   </g>
   <g id="patch_104">
    <path d="M 775.339678 181.817978 
L 775.339678 21.935625 
" style="fill:none;stroke:#ffffff;stroke-linecap:square;stroke-linejoin:miter;stroke-width:1.25;"/>
   </g>
   <g id="patch_105">
    <path d="M 447.104384 181.817978 
L 775.339678 181.817978 
" style="fill:none;stroke:#ffffff;stroke-linecap:square;stroke-linejoin:miter;stroke-width:1.25;"/>
   </g>
   <g id="patch_106">
    <path d="M 447.104384 21.935625 
L 775.339678 21.935625 
" style="fill:none;stroke:#ffffff;stroke-linecap:square;stroke-linejoin:miter;stroke-width:1.25;"/>
   </g>
   <g id="text_22">
    <!-- PLR Centrality -->
    <g style="fill:#262626;" transform="translate(572.542656 15.935625)scale(0.12 -0.12)">
     <use xlink:href="#ArialMT-80"/>
     <use x="66.699219" xlink:href="#ArialMT-76"/>
     <use x="122.314453" xlink:href="#ArialMT-82"/>
     <use x="194.53125" xlink:href="#ArialMT-32"/>
     <use x="222.314453" xlink:href="#ArialMT-67"/>
     <use x="294.53125" xlink:href="#ArialMT-101"/>
     <use x="350.146484" xlink:href="#ArialMT-110"/>
     <use x="405.761719" xlink:href="#ArialMT-116"/>
     <use x="433.544922" xlink:href="#ArialMT-114"/>
     <use x="466.845703" xlink:href="#ArialMT-97"/>
     <use x="522.460938" xlink:href="#ArialMT-108"/>
     <use x="544.677734" xlink:href="#ArialMT-105"/>
     <use x="566.894531" xlink:href="#ArialMT-116"/>
     <use x="594.677734" xlink:href="#ArialMT-121"/>
    </g>
   </g>
  </g>
  <g id="axes_3">
   <g id="patch_107">
    <path d="M 840.986737 181.817978 
L 1169.222031 181.817978 
L 1169.222031 21.935625 
L 840.986737 21.935625 
z
" style="fill:#eaeaf2;"/>
   </g>
   <g id="matplotlib.axis_5">
    <g id="xtick_4">
     <g id="line2d_17">
      <path clip-path="url(#pb79c14c86b)" d="M 1005.104384 181.817978 
L 1005.104384 21.935625 
" style="fill:none;stroke:#ffffff;stroke-linecap:round;"/>
     </g>
     <g id="text_23">
      <!-- Amherd Viola (PDC) -->
      <defs>
       <path d="M 28.171875 0 
L 0.4375 71.578125 
L 10.6875 71.578125 
L 29.296875 19.578125 
Q 31.546875 13.328125 33.0625 7.859375 
Q 34.71875 13.71875 36.921875 19.578125 
L 56.25 71.578125 
L 65.921875 71.578125 
L 37.890625 0 
z
" id="ArialMT-86"/>
      </defs>
      <g style="fill:#262626;" transform="translate(999.256743 290.829044)rotate(-80)scale(0.11 -0.11)">
       <use xlink:href="#ArialMT-65"/>
       <use x="66.699219" xlink:href="#ArialMT-109"/>
       <use x="150" xlink:href="#ArialMT-104"/>
       <use x="205.615234" xlink:href="#ArialMT-101"/>
       <use x="261.230469" xlink:href="#ArialMT-114"/>
       <use x="294.53125" xlink:href="#ArialMT-100"/>
       <use x="350.146484" xlink:href="#ArialMT-32"/>
       <use x="377.929688" xlink:href="#ArialMT-86"/>
       <use x="444.613281" xlink:href="#ArialMT-105"/>
       <use x="466.830078" xlink:href="#ArialMT-111"/>
       <use x="522.445312" xlink:href="#ArialMT-108"/>
       <use x="544.662109" xlink:href="#ArialMT-97"/>
       <use x="600.277344" xlink:href="#ArialMT-32"/>
       <use x="628.060547" xlink:href="#ArialMT-40"/>
       <use x="661.361328" xlink:href="#ArialMT-80"/>
       <use x="728.060547" xlink:href="#ArialMT-68"/>
       <use x="800.277344" xlink:href="#ArialMT-67"/>
       <use x="872.494141" xlink:href="#ArialMT-41"/>
      </g>
     </g>
    </g>
    <g id="text_24">
     <!-- Councillors Ranking -->
     <g style="fill:#262626;" transform="translate(951.748447 303.966692)scale(0.12 -0.12)">
      <use xlink:href="#ArialMT-67"/>
      <use x="72.216797" xlink:href="#ArialMT-111"/>
      <use x="127.832031" xlink:href="#ArialMT-117"/>
      <use x="183.447266" xlink:href="#ArialMT-110"/>
      <use x="239.0625" xlink:href="#ArialMT-99"/>
      <use x="289.0625" xlink:href="#ArialMT-105"/>
      <use x="311.279297" xlink:href="#ArialMT-108"/>
      <use x="333.496094" xlink:href="#ArialMT-108"/>
      <use x="355.712891" xlink:href="#ArialMT-111"/>
      <use x="411.328125" xlink:href="#ArialMT-114"/>
      <use x="444.628906" xlink:href="#ArialMT-115"/>
      <use x="494.628906" xlink:href="#ArialMT-32"/>
      <use x="522.412109" xlink:href="#ArialMT-82"/>
      <use x="594.628906" xlink:href="#ArialMT-97"/>
      <use x="650.244141" xlink:href="#ArialMT-110"/>
      <use x="705.859375" xlink:href="#ArialMT-107"/>
      <use x="755.859375" xlink:href="#ArialMT-105"/>
      <use x="778.076172" xlink:href="#ArialMT-110"/>
      <use x="833.691406" xlink:href="#ArialMT-103"/>
     </g>
    </g>
   </g>
   <g id="matplotlib.axis_6">
    <g id="ytick_14">
     <g id="line2d_18">
      <path clip-path="url(#pb79c14c86b)" d="M 840.986737 181.817978 
L 1169.222031 181.817978 
" style="fill:none;stroke:#ffffff;stroke-linecap:round;"/>
     </g>
     <g id="text_25">
      <!-- 0.14 -->
      <g style="fill:#262626;" transform="translate(810.079706 185.754775)scale(0.11 -0.11)">
       <use xlink:href="#ArialMT-48"/>
       <use x="55.615234" xlink:href="#ArialMT-46"/>
       <use x="83.398438" xlink:href="#ArialMT-49"/>
       <use x="139.013672" xlink:href="#ArialMT-52"/>
      </g>
     </g>
    </g>
    <g id="ytick_15">
     <g id="line2d_19">
      <path clip-path="url(#pb79c14c86b)" d="M 840.986737 155.170919 
L 1169.222031 155.170919 
" style="fill:none;stroke:#ffffff;stroke-linecap:round;"/>
     </g>
     <g id="text_26">
      <!-- 0.16 -->
      <g style="fill:#262626;" transform="translate(810.079706 159.107716)scale(0.11 -0.11)">
       <use xlink:href="#ArialMT-48"/>
       <use x="55.615234" xlink:href="#ArialMT-46"/>
       <use x="83.398438" xlink:href="#ArialMT-49"/>
       <use x="139.013672" xlink:href="#ArialMT-54"/>
      </g>
     </g>
    </g>
    <g id="ytick_16">
     <g id="line2d_20">
      <path clip-path="url(#pb79c14c86b)" d="M 840.986737 128.52386 
L 1169.222031 128.52386 
" style="fill:none;stroke:#ffffff;stroke-linecap:round;"/>
     </g>
     <g id="text_27">
      <!-- 0.18 -->
      <g style="fill:#262626;" transform="translate(810.079706 132.460657)scale(0.11 -0.11)">
       <use xlink:href="#ArialMT-48"/>
       <use x="55.615234" xlink:href="#ArialMT-46"/>
       <use x="83.398438" xlink:href="#ArialMT-49"/>
       <use x="139.013672" xlink:href="#ArialMT-56"/>
      </g>
     </g>
    </g>
    <g id="ytick_17">
     <g id="line2d_21">
      <path clip-path="url(#pb79c14c86b)" d="M 840.986737 101.876801 
L 1169.222031 101.876801 
" style="fill:none;stroke:#ffffff;stroke-linecap:round;"/>
     </g>
     <g id="text_28">
      <!-- 0.20 -->
      <g style="fill:#262626;" transform="translate(810.079706 105.813598)scale(0.11 -0.11)">
       <use xlink:href="#ArialMT-48"/>
       <use x="55.615234" xlink:href="#ArialMT-46"/>
       <use x="83.398438" xlink:href="#ArialMT-50"/>
       <use x="139.013672" xlink:href="#ArialMT-48"/>
      </g>
     </g>
    </g>
    <g id="ytick_18">
     <g id="line2d_22">
      <path clip-path="url(#pb79c14c86b)" d="M 840.986737 75.229743 
L 1169.222031 75.229743 
" style="fill:none;stroke:#ffffff;stroke-linecap:round;"/>
     </g>
     <g id="text_29">
      <!-- 0.22 -->
      <g style="fill:#262626;" transform="translate(810.079706 79.16654)scale(0.11 -0.11)">
       <use xlink:href="#ArialMT-48"/>
       <use x="55.615234" xlink:href="#ArialMT-46"/>
       <use x="83.398438" xlink:href="#ArialMT-50"/>
       <use x="139.013672" xlink:href="#ArialMT-50"/>
      </g>
     </g>
    </g>
    <g id="ytick_19">
     <g id="line2d_23">
      <path clip-path="url(#pb79c14c86b)" d="M 840.986737 48.582684 
L 1169.222031 48.582684 
" style="fill:none;stroke:#ffffff;stroke-linecap:round;"/>
     </g>
     <g id="text_30">
      <!-- 0.24 -->
      <g style="fill:#262626;" transform="translate(810.079706 52.519481)scale(0.11 -0.11)">
       <use xlink:href="#ArialMT-48"/>
       <use x="55.615234" xlink:href="#ArialMT-46"/>
       <use x="83.398438" xlink:href="#ArialMT-50"/>
       <use x="139.013672" xlink:href="#ArialMT-52"/>
      </g>
     </g>
    </g>
    <g id="ytick_20">
     <g id="line2d_24">
      <path clip-path="url(#pb79c14c86b)" d="M 840.986737 21.935625 
L 1169.222031 21.935625 
" style="fill:none;stroke:#ffffff;stroke-linecap:round;"/>
     </g>
     <g id="text_31">
      <!-- 0.26 -->
      <g style="fill:#262626;" transform="translate(810.079706 25.872422)scale(0.11 -0.11)">
       <use xlink:href="#ArialMT-48"/>
       <use x="55.615234" xlink:href="#ArialMT-46"/>
       <use x="83.398438" xlink:href="#ArialMT-50"/>
       <use x="139.013672" xlink:href="#ArialMT-54"/>
      </g>
     </g>
    </g>
    <g id="text_32">
     <!-- Harmonic centrality -->
     <g style="fill:#262626;" transform="translate(803.554081 153.222739)rotate(-90)scale(0.12 -0.12)">
      <use xlink:href="#ArialMT-72"/>
      <use x="72.216797" xlink:href="#ArialMT-97"/>
      <use x="127.832031" xlink:href="#ArialMT-114"/>
      <use x="161.132812" xlink:href="#ArialMT-109"/>
      <use x="244.433594" xlink:href="#ArialMT-111"/>
      <use x="300.048828" xlink:href="#ArialMT-110"/>
      <use x="355.664062" xlink:href="#ArialMT-105"/>
      <use x="377.880859" xlink:href="#ArialMT-99"/>
      <use x="427.880859" xlink:href="#ArialMT-32"/>
      <use x="455.664062" xlink:href="#ArialMT-99"/>
      <use x="505.664062" xlink:href="#ArialMT-101"/>
      <use x="561.279297" xlink:href="#ArialMT-110"/>
      <use x="616.894531" xlink:href="#ArialMT-116"/>
      <use x="644.677734" xlink:href="#ArialMT-114"/>
      <use x="677.978516" xlink:href="#ArialMT-97"/>
      <use x="733.59375" xlink:href="#ArialMT-108"/>
      <use x="755.810547" xlink:href="#ArialMT-105"/>
      <use x="778.027344" xlink:href="#ArialMT-116"/>
      <use x="805.810547" xlink:href="#ArialMT-121"/>
     </g>
    </g>
   </g>
   <g id="patch_108">
    <path clip-path="url(#pb79c14c86b)" d="M 855.906523 368.34739 
L 863.657061 368.34739 
L 863.657061 181.817978 
L 855.906523 181.817978 
z
" style="fill:#4c72b0;stroke:#ffffff;stroke-linejoin:miter;"/>
   </g>
   <g id="patch_109">
    <path clip-path="url(#pb79c14c86b)" d="M 865.594696 368.34739 
L 873.345234 368.34739 
L 873.345234 181.817978 
L 865.594696 181.817978 
z
" style="fill:#4c72b0;stroke:#ffffff;stroke-linejoin:miter;"/>
   </g>
   <g id="patch_110">
    <path clip-path="url(#pb79c14c86b)" d="M 875.282869 368.34739 
L 883.033407 368.34739 
L 883.033407 181.817978 
L 875.282869 181.817978 
z
" style="fill:#4c72b0;stroke:#ffffff;stroke-linejoin:miter;"/>
   </g>
   <g id="patch_111">
    <path clip-path="url(#pb79c14c86b)" d="M 884.971042 368.34739 
L 892.72158 368.34739 
L 892.72158 181.817978 
L 884.971042 181.817978 
z
" style="fill:#4c72b0;stroke:#ffffff;stroke-linejoin:miter;"/>
   </g>
   <g id="patch_112">
    <path clip-path="url(#pb79c14c86b)" d="M 894.659214 368.34739 
L 902.409753 368.34739 
L 902.409753 181.817978 
L 894.659214 181.817978 
z
" style="fill:#4c72b0;stroke:#ffffff;stroke-linejoin:miter;"/>
   </g>
   <g id="patch_113">
    <path clip-path="url(#pb79c14c86b)" d="M 904.347387 368.34739 
L 912.097925 368.34739 
L 912.097925 168.494449 
L 904.347387 168.494449 
z
" style="fill:#4c72b0;stroke:#ffffff;stroke-linejoin:miter;"/>
   </g>
   <g id="patch_114">
    <path clip-path="url(#pb79c14c86b)" d="M 914.03556 368.34739 
L 921.786098 368.34739 
L 921.786098 168.494449 
L 914.03556 168.494449 
z
" style="fill:#4c72b0;stroke:#ffffff;stroke-linejoin:miter;"/>
   </g>
   <g id="patch_115">
    <path clip-path="url(#pb79c14c86b)" d="M 923.723733 368.34739 
L 931.474271 368.34739 
L 931.474271 168.494449 
L 923.723733 168.494449 
z
" style="fill:#4c72b0;stroke:#ffffff;stroke-linejoin:miter;"/>
   </g>
   <g id="patch_116">
    <path clip-path="url(#pb79c14c86b)" d="M 933.411906 368.34739 
L 941.162444 368.34739 
L 941.162444 155.170919 
L 933.411906 155.170919 
z
" style="fill:#4c72b0;stroke:#ffffff;stroke-linejoin:miter;"/>
   </g>
   <g id="patch_117">
    <path clip-path="url(#pb79c14c86b)" d="M 943.100078 368.34739 
L 950.850617 368.34739 
L 950.850617 155.170919 
L 943.100078 155.170919 
z
" style="fill:#4c72b0;stroke:#ffffff;stroke-linejoin:miter;"/>
   </g>
   <g id="patch_118">
    <path clip-path="url(#pb79c14c86b)" d="M 952.788251 368.34739 
L 960.538789 368.34739 
L 960.538789 155.170919 
L 952.788251 155.170919 
z
" style="fill:#4c72b0;stroke:#ffffff;stroke-linejoin:miter;"/>
   </g>
   <g id="patch_119">
    <path clip-path="url(#pb79c14c86b)" d="M 962.476424 368.34739 
L 970.226962 368.34739 
L 970.226962 155.170919 
L 962.476424 155.170919 
z
" style="fill:#4c72b0;stroke:#ffffff;stroke-linejoin:miter;"/>
   </g>
   <g id="patch_120">
    <path clip-path="url(#pb79c14c86b)" d="M 972.164597 368.34739 
L 979.915135 368.34739 
L 979.915135 141.84739 
L 972.164597 141.84739 
z
" style="fill:#4c72b0;stroke:#ffffff;stroke-linejoin:miter;"/>
   </g>
   <g id="patch_121">
    <path clip-path="url(#pb79c14c86b)" d="M 981.852769 368.34739 
L 989.603308 368.34739 
L 989.603308 141.84739 
L 981.852769 141.84739 
z
" style="fill:#4c72b0;stroke:#ffffff;stroke-linejoin:miter;"/>
   </g>
   <g id="patch_122">
    <path clip-path="url(#pb79c14c86b)" d="M 991.540942 368.34739 
L 999.291481 368.34739 
L 999.291481 141.84739 
L 991.540942 141.84739 
z
" style="fill:#4c72b0;stroke:#ffffff;stroke-linejoin:miter;"/>
   </g>
   <g id="patch_123">
    <path clip-path="url(#pb79c14c86b)" d="M 1001.229115 368.34739 
L 1008.979653 368.34739 
L 1008.979653 141.84739 
L 1001.229115 141.84739 
z
" style="fill:#4c72b0;stroke:#ffffff;stroke-linejoin:miter;"/>
   </g>
   <g id="patch_124">
    <path clip-path="url(#pb79c14c86b)" d="M 1010.917288 368.34739 
L 1018.667826 368.34739 
L 1018.667826 141.84739 
L 1010.917288 141.84739 
z
" style="fill:#4c72b0;stroke:#ffffff;stroke-linejoin:miter;"/>
   </g>
   <g id="patch_125">
    <path clip-path="url(#pb79c14c86b)" d="M 1020.605461 368.34739 
L 1028.355999 368.34739 
L 1028.355999 141.84739 
L 1020.605461 141.84739 
z
" style="fill:#4c72b0;stroke:#ffffff;stroke-linejoin:miter;"/>
   </g>
   <g id="patch_126">
    <path clip-path="url(#pb79c14c86b)" d="M 1030.293633 368.34739 
L 1038.044172 368.34739 
L 1038.044172 141.84739 
L 1030.293633 141.84739 
z
" style="fill:#4c72b0;stroke:#ffffff;stroke-linejoin:miter;"/>
   </g>
   <g id="patch_127">
    <path clip-path="url(#pb79c14c86b)" d="M 1039.981806 368.34739 
L 1047.732344 368.34739 
L 1047.732344 128.52386 
L 1039.981806 128.52386 
z
" style="fill:#4c72b0;stroke:#ffffff;stroke-linejoin:miter;"/>
   </g>
   <g id="patch_128">
    <path clip-path="url(#pb79c14c86b)" d="M 1049.669979 368.34739 
L 1057.420517 368.34739 
L 1057.420517 115.200331 
L 1049.669979 115.200331 
z
" style="fill:#4c72b0;stroke:#ffffff;stroke-linejoin:miter;"/>
   </g>
   <g id="patch_129">
    <path clip-path="url(#pb79c14c86b)" d="M 1059.358152 368.34739 
L 1067.10869 368.34739 
L 1067.10869 115.200331 
L 1059.358152 115.200331 
z
" style="fill:#4c72b0;stroke:#ffffff;stroke-linejoin:miter;"/>
   </g>
   <g id="patch_130">
    <path clip-path="url(#pb79c14c86b)" d="M 1069.046325 368.34739 
L 1076.796863 368.34739 
L 1076.796863 101.876801 
L 1069.046325 101.876801 
z
" style="fill:#4c72b0;stroke:#ffffff;stroke-linejoin:miter;"/>
   </g>
   <g id="patch_131">
    <path clip-path="url(#pb79c14c86b)" d="M 1078.734497 368.34739 
L 1086.485036 368.34739 
L 1086.485036 101.876801 
L 1078.734497 101.876801 
z
" style="fill:#4c72b0;stroke:#ffffff;stroke-linejoin:miter;"/>
   </g>
   <g id="patch_132">
    <path clip-path="url(#pb79c14c86b)" d="M 1088.42267 368.34739 
L 1096.173208 368.34739 
L 1096.173208 101.876801 
L 1088.42267 101.876801 
z
" style="fill:#4c72b0;stroke:#ffffff;stroke-linejoin:miter;"/>
   </g>
   <g id="patch_133">
    <path clip-path="url(#pb79c14c86b)" d="M 1098.110843 368.34739 
L 1105.861381 368.34739 
L 1105.861381 101.876801 
L 1098.110843 101.876801 
z
" style="fill:#4c72b0;stroke:#ffffff;stroke-linejoin:miter;"/>
   </g>
   <g id="patch_134">
    <path clip-path="url(#pb79c14c86b)" d="M 1107.799016 368.34739 
L 1115.549554 368.34739 
L 1115.549554 101.876801 
L 1107.799016 101.876801 
z
" style="fill:#4c72b0;stroke:#ffffff;stroke-linejoin:miter;"/>
   </g>
   <g id="patch_135">
    <path clip-path="url(#pb79c14c86b)" d="M 1117.487189 368.34739 
L 1125.237727 368.34739 
L 1125.237727 75.229743 
L 1117.487189 75.229743 
z
" style="fill:#4c72b0;stroke:#ffffff;stroke-linejoin:miter;"/>
   </g>
   <g id="patch_136">
    <path clip-path="url(#pb79c14c86b)" d="M 1127.175361 368.34739 
L 1134.9259 368.34739 
L 1134.9259 61.906213 
L 1127.175361 61.906213 
z
" style="fill:#4c72b0;stroke:#ffffff;stroke-linejoin:miter;"/>
   </g>
   <g id="patch_137">
    <path clip-path="url(#pb79c14c86b)" d="M 1136.863534 368.34739 
L 1144.614072 368.34739 
L 1144.614072 61.906213 
L 1136.863534 61.906213 
z
" style="fill:#4c72b0;stroke:#ffffff;stroke-linejoin:miter;"/>
   </g>
   <g id="patch_138">
    <path clip-path="url(#pb79c14c86b)" d="M 1146.551707 368.34739 
L 1154.302245 368.34739 
L 1154.302245 21.935625 
L 1146.551707 21.935625 
z
" style="fill:#4c72b0;stroke:#ffffff;stroke-linejoin:miter;"/>
   </g>
   <g id="patch_139">
    <path d="M 840.986737 181.817978 
L 840.986737 21.935625 
" style="fill:none;stroke:#ffffff;stroke-linecap:square;stroke-linejoin:miter;stroke-width:1.25;"/>
   </g>
   <g id="patch_140">
    <path d="M 1169.222031 181.817978 
L 1169.222031 21.935625 
" style="fill:none;stroke:#ffffff;stroke-linecap:square;stroke-linejoin:miter;stroke-width:1.25;"/>
   </g>
   <g id="patch_141">
    <path d="M 840.986737 181.817978 
L 1169.222031 181.817978 
" style="fill:none;stroke:#ffffff;stroke-linecap:square;stroke-linejoin:miter;stroke-width:1.25;"/>
   </g>
   <g id="patch_142">
    <path d="M 840.986737 21.935625 
L 1169.222031 21.935625 
" style="fill:none;stroke:#ffffff;stroke-linecap:square;stroke-linejoin:miter;stroke-width:1.25;"/>
   </g>
   <g id="text_33">
    <!-- PDC Centrality -->
    <g style="fill:#262626;" transform="translate(965.428447 15.935625)scale(0.12 -0.12)">
     <use xlink:href="#ArialMT-80"/>
     <use x="66.699219" xlink:href="#ArialMT-68"/>
     <use x="138.916016" xlink:href="#ArialMT-67"/>
     <use x="211.132812" xlink:href="#ArialMT-32"/>
     <use x="238.916016" xlink:href="#ArialMT-67"/>
     <use x="311.132812" xlink:href="#ArialMT-101"/>
     <use x="366.748047" xlink:href="#ArialMT-110"/>
     <use x="422.363281" xlink:href="#ArialMT-116"/>
     <use x="450.146484" xlink:href="#ArialMT-114"/>
     <use x="483.447266" xlink:href="#ArialMT-97"/>
     <use x="539.0625" xlink:href="#ArialMT-108"/>
     <use x="561.279297" xlink:href="#ArialMT-105"/>
     <use x="583.496094" xlink:href="#ArialMT-116"/>
     <use x="611.279297" xlink:href="#ArialMT-121"/>
    </g>
   </g>
  </g>
 </g>
 <defs>
  <clipPath id="pe316ebeaf2">
   <rect height="159.882353" width="328.235294" x="53.222031" y="21.935625"/>
  </clipPath>
  <clipPath id="p9417b87885">
   <rect height="159.882353" width="328.235294" x="447.104384" y="21.935625"/>
  </clipPath>
  <clipPath id="pb79c14c86b">
   <rect height="159.882353" width="328.235294" x="840.986737" y="21.935625"/>
  </clipPath>
 </defs>
</svg>
